{
.appVersion = "3217";
copyright = "© 2023, Marco Condello & Collletttivo";
customParameters = (
{
name = "Use Typo Metrics";
value = 1;
},
{
name = fsType;
value = (
);
},
{
name = unicodeRanges;
value = (
0,
1,
2
);
},
{
name = license;
value = "SIL OpenFont License";
},
{
name = licenseURL;
value = "https://scripts.sil.org/OFL_web";
},
{
name = vendorID;
value = CLT;
}
);
date = "2016-06-30 19:50:15 +0000";
designer = "Marco Condello";
familyName = "Necto Mono";
featurePrefixes = (
{
code = "languagesystem DFLT dflt;\012languagesystem latn dflt;\012languagesystem latn CAT;\012languagesystem latn ROM;\012languagesystem latn MOL;\012languagesystem latn KAZ;\012languagesystem latn TAT;\012languagesystem latn TRK;\012languagesystem latn CRT;\012languagesystem latn AZE;\012languagesystem latn NLD;\012";
name = Languagesystems;
}
);
features = (
{
automatic = 1;
code = "feature locl;\012feature subs;\012feature sinf;\012feature sups;\012feature numr;\012feature dnom;\012feature frac;\012feature ordn;\012feature case;\012feature ss01;\012";
name = aalt;
},
{
automatic = 1;
code = "lookup ccmp_Other_1 {\012	@CombiningTopAccents = [acutecomb brevecomb caroncomb circumflexcomb commaturnedabovecomb dieresiscomb dotaccentcomb gravecomb hungarumlautcomb macroncomb ringcomb tildecomb];\012	lookupflag UseMarkFilteringSet @CombiningTopAccents;\012	sub i' @CombiningTopAccents by idotless;\012	sub j' @CombiningTopAccents by jdotless;\012} ccmp_Other_1;\012\012lookup ccmp_latn_1 {\012	sub fi by f i;\012	sub fl by f l;\012} ccmp_latn_1;\012\012script latn;\012lookup ccmp_latn_1;\012";
name = ccmp;
},
{
automatic = 1;

glyphs = (
{
glyphname = A;
layers = (
{
anchors = (
{
name = ogonek;
position = "{401, 10}";
},
{
name = top;
position = "{303, 800}";
}
);
layerId = "B33A6296-7F33-4AA4-95A6-15EAB02AACC1";
paths = (
{
closed = 1;
nodes = (
"156 211 LINE",
"454 211 LINE",
"454 287 LINE",
"156 287 LINE"
);
},
{
closed = 1;
nodes = (
"337 700 LINE",
"274 700 LINE",
"30 0 LINE",
"120 0 LINE",
"329 633 LINE",
"281 633 LINE",
"490 0 LINE",
"580 0 LINE"
);
}
);
width = 610;
},
{
anchors = (
{
name = ogonek;
position = "{451, 10}";
},
{
name = top;
position = "{303, 500}";
}
);
associatedMasterId = "B33A6296-7F33-4AA4-95A6-15EAB02AACC1";
guideLines = (
{
position = "{302, 775}";
}
);
hints = (
{
horizontal = 1;
origin = "{1, 2}";
target = up;
type = BottomGhost;
},
{
horizontal = 1;
origin = "{0, 0}";
target = "{0, 3}";
type = Stem;
},
{
horizontal = 1;
origin = "{1, 1}";
target = down;
type = TopGhost;
},
{
place = "{53, 500}";
type = Stem;
}
);
layerId = "C6ABD813-0D53-4104-A156-CD491871EB60";
name = "Regular Feb 14 17, 19:02";
paths = (
{
closed = 1;
nodes = (
"149 221 LINE",
"447 221 LINE",
"447 296 LINE",
"149 296 LINE"
);
},
{
closed = 1;
nodes = (
"348 700 LINE",
"262 700 LINE",
"55 0 LINE",
"141 0 LINE",
"318 631 LINE",
"292 631 LINE",
"469 0 LINE",
"555 0 LINE"
);
}
);
width = 610;
},
{
anchors = (
{
name = ogonek;
position = "{451, 10}";
},
{
name = top;
position = "{303, 500}";
}
);
associatedMasterId = "B33A6296-7F33-4AA4-95A6-15EAB02AACC1";
components = (
{
name = DotWideUppercase;
transform = "{1, 0, 0, 1, 224, -327}";
}
);
guideLines = (
{
position = "{302, 775}";
}
);
hints = (
{
horizontal = 1;
origin = "{1, 2}";
target = up;
type = BottomGhost;
},
{
horizontal = 1;
origin = "{0, 0}";
target = "{0, 3}";
type = Stem;
},
{
horizontal = 1;
origin = "{1, 1}";
target = down;
type = TopGhost;
},
{
place = "{53, 500}";
type = Stem;
}
);
layerId = "08C963C4-8992-4D91-AA93-C602DF4D9EC7";
name = "Regular Feb 14 17, 23:34";
paths = (
{
closed = 1;
nodes = (
"156 211 LINE",
"454 211 LINE",
"454 287 LINE",
"156 287 LINE"
);
},
{
closed = 1;
nodes = (
"337 700 LINE",
"274 700 LINE",
"45 0 LINE",
"134 0 LINE",
"325 633 LINE",
"285 633 LINE",
"476 0 LINE",
"565 0 LINE"
);
}
);
width = 610;
},
{
anchors = (
{
name = ogonek;
position = "{451, 10}";
},
{
name = top;
position = "{303, 500}";
}
);
associatedMasterId = "B33A6296-7F33-4AA4-95A6-15EAB02AACC1";
guideLines = (
{
position = "{302, 775}";
}
);
layerId = "D768F950-002D-44F2-A3DE-2BFB5AF8172B";
name = "Mar 16 17, 23:03";
paths = (
{
closed = 1;
nodes = (
"156 211 LINE",
"454 211 LINE",
"454 287 LINE",
"156 287 LINE"
);
},
{
closed = 1;
nodes = (
"337 700 LINE",
"274 700 LINE",
"35 0 LINE",
"125 0 LINE",
"329 633 LINE",
"281 633 LINE",
"485 0 LINE",
"575 0 LINE"
);
}
);
width = 610;
}
);
unicode = 0041;
},
{
glyphname = AE;
layers = (
{
anchors = (
{
name = top;
position = "{303, 800}";
}
);
layerId = "B33A6296-7F33-4AA4-95A6-15EAB02AACC1";
paths = (
{
closed = 1;
nodes = (
"294 0 LINE",
"567 0 LINE",
"567 75 LINE",
"294 75 LINE"
);
},
{
closed = 1;
nodes = (
"294 0 LINE",
"377 0 LINE",
"377 700 LINE",
"294 700 LINE"
);
},
{
closed = 1;
nodes = (
"294 625 LINE",
"557 625 LINE",
"557 700 LINE",
"294 700 LINE"
);
},
{
closed = 1;
nodes = (
"294 331 LINE",
"507 331 LINE",
"507 406 LINE",
"294 406 LINE"
);
},
{
closed = 1;
nodes = (
"127 221 LINE",
"365 221 LINE",
"365 296 LINE",
"127 296 LINE"
);
},
{
closed = 1;
nodes = (
"294 598 LINE",
"294 700 LINE",
"250 700 LINE",
"33 0 LINE",
"119 0 LINE"
);
}
);
width = 610;
}
);
unicode = 00C6;
},
{
glyphname = B;
layers = (
{
background = {
components = (
{
name = R;
transform = "{1, 0, 0, 1, -37, 0}";
}
);
};
layerId = "B33A6296-7F33-4AA4-95A6-15EAB02AACC1";
paths = (
{
closed = 1;
nodes = (
"425 362 OFFCURVE",
"502 419 OFFCURVE",
"502 522 CURVE SMOOTH",
"502 624 OFFCURVE",
"423 700 OFFCURVE",
"309 700 CURVE SMOOTH",
"122 700 LINE",
"122 623 LINE",
"305 623 LINE SMOOTH",
"399 623 OFFCURVE",
"417 558 OFFCURVE",
"417 522 CURVE SMOOTH",
"417 484 OFFCURVE",
"399 419 OFFCURVE",
"317 419 CURVE",
"268 419 LINE",
"268 362 LINE",
"309 362 LINE SMOOTH"
);
},
{
closed = 1;
nodes = (
"168 0 LINE",
"168 700 LINE",
"83 700 LINE",
"83 0 LINE"
);
},
{
closed = 1;
nodes = (
"452 0 OFFCURVE",
"526 105 OFFCURVE",
"526 209 CURVE SMOOTH",
"526 317 OFFCURVE",
"437 419 OFFCURVE",
"295 419 CURVE SMOOTH",
"126 419 LINE",
"126 342 LINE",
"290 342 LINE SMOOTH",
"425 342 OFFCURVE",
"441 247 OFFCURVE",
"441 209 CURVE SMOOTH",
"441 171 OFFCURVE",
"424 77 OFFCURVE",
"310 77 CURVE SMOOTH",
"146 77 LINE",
"146 0 LINE",
"323 0 LINE SMOOTH"
);
}
);
width = 610;
},
{
associatedMasterId = "B33A6296-7F33-4AA4-95A6-15EAB02AACC1";
layerId = "B4A4A26E-8BC4-4962-9291-BA3B3497F6DA";
name = "1";
paths = (
{
closed = 1;
nodes = (
"425 353 OFFCURVE",
"501 419 OFFCURVE",
"501 522 CURVE SMOOTH",
"501 623 OFFCURVE",
"423 700 OFFCURVE",
"311 700 CURVE SMOOTH",
"122 700 LINE",
"122 625 LINE",
"305 625 LINE SMOOTH",
"399 625 OFFCURVE",
"418 558 OFFCURVE",
"418 522 CURVE SMOOTH",
"418 484 OFFCURVE",
"399 418 OFFCURVE",
"317 418 CURVE SMOOTH",
"268 418 LINE",
"268 353 LINE",
"309 353 LINE SMOOTH"
);
},
{
closed = 1;
nodes = (
"167 0 LINE",
"167 700 LINE",
"84 700 LINE",
"84 0 LINE"
);
},
{
closed = 1;
nodes = (
"449 0 OFFCURVE",
"525 105 OFFCURVE",
"525 209 CURVE SMOOTH",
"525 317 OFFCURVE",
"440 418 OFFCURVE",
"298 418 CURVE SMOOTH",
"126 418 LINE",
"126 343 LINE",
"290 343 LINE SMOOTH",
"425 343 OFFCURVE",
"442 247 OFFCURVE",
"442 209 CURVE SMOOTH",
"442 171 OFFCURVE",
"424 75 OFFCURVE",
"310 75 CURVE SMOOTH",
"146 75 LINE",
"146 0 LINE",
"315 0 LINE SMOOTH"
);
}
);
width = 610;
}
);
unicode = 0042;
},
{
glyphname = C;
layers = (
{
anchors = (
{
name = bottom;
position = "{336, 0}";
},
{
name = top;
position = "{328, 500}";
}
);
associatedMasterId = "B33A6296-7F33-4AA4-95A6-15EAB02AACC1";
background = {
components = (
{
name = c;
transform = "{1.384, 0, 0, 1.384, -118, 4}";
}
);
};
guideLines = (
{
position = "{302, 775}";
}
);
layerId = "A8B51898-01A3-4EA6-B2B5-4711459C3885";
name = "3";
paths = (
{
closed = 1;
nodes = (
"120 350 LINE",
"120 534 OFFCURVE",
"194 633 OFFCURVE",
"319 633 CURVE SMOOTH",
"421 633 OFFCURVE",
"457 582 OFFCURVE",
"498 488 CURVE",
"571 520 LINE",
"534 617 OFFCURVE",
"474 710 OFFCURVE",
"319 710 CURVE SMOOTH",
"119 710 OFFCURVE",
"35 540 OFFCURVE",
"35 350 CURVE"
);
},
{
closed = 1;
nodes = (
"35 160 OFFCURVE",
"119 -10 OFFCURVE",
"319 -10 CURVE SMOOTH",
"474 -10 OFFCURVE",
"534 83 OFFCURVE",
"571 180 CURVE",
"498 212 LINE",
"457 118 OFFCURVE",
"421 67 OFFCURVE",
"319 67 CURVE SMOOTH",
"194 67 OFFCURVE",
"120 166 OFFCURVE",
"120 350 CURVE",
"35 350 LINE"
);
}
);
width = 610;
},
{
anchors = (
{
name = bottom;
position = "{336, 0}";
},
{
name = top;
position = "{328, 500}";
}
);
associatedMasterId = "B33A6296-7F33-4AA4-95A6-15EAB02AACC1";
background = {
components = (
{
name = c;
transform = "{1.384, 0, 0, 1.384, -118, 4}";
}
);
};
guideLines = (
{
position = "{302, 775}";
}
);
layerId = "D64D6DEC-A635-4F3B-9CA2-A29E9A1E6E98";
name = "2";
paths = (
{
closed = 1;
nodes = (
"120 350 LINE",
"120 534 OFFCURVE",
"194 633 OFFCURVE",
"319 633 CURVE SMOOTH",
"421 633 OFFCURVE",
"477 582 OFFCURVE",
"518 488 CURVE",
"591 520 LINE",
"554 617 OFFCURVE",
"474 710 OFFCURVE",
"319 710 CURVE SMOOTH",
"119 710 OFFCURVE",
"35 540 OFFCURVE",
"35 350 CURVE"
);
},
{
closed = 1;
nodes = (
"35 160 OFFCURVE",
"119 -10 OFFCURVE",
"319 -10 CURVE SMOOTH",
"474 -10 OFFCURVE",
"554 83 OFFCURVE",
"591 180 CURVE",
"518 212 LINE",
"477 118 OFFCURVE",
"421 67 OFFCURVE",
"319 67 CURVE SMOOTH",
"194 67 OFFCURVE",
"120 166 OFFCURVE",
"120 350 CURVE",
"35 350 LINE"
);
}
);
width = 610;
},
{
anchors = (
{
name = bottom;
position = "{336, 0}";
},
{
name = top;
position = "{313, 800}";
}
);
background = {
components = (
{
name = O;
transform = "{1, 0, 0, 1, 9, 0}";
}
);
};
layerId = "B33A6296-7F33-4AA4-95A6-15EAB02AACC1";
paths = (
{
closed = 1;
nodes = (
"208 67 OFFCURVE",
"135 166 OFFCURVE",
"135 350 CURVE SMOOTH",
"135 534 OFFCURVE",
"208 633 OFFCURVE",
"327 633 CURVE SMOOTH",
"424 633 OFFCURVE",
"461 557 OFFCURVE",
"485 496 CURVE",
"560 528 LINE",
"541 594 OFFCURVE",
"478 710 OFFCURVE",
"327 710 CURVE SMOOTH",
"133 710 OFFCURVE",
"50 540 OFFCURVE",
"50 350 CURVE SMOOTH",
"50 160 OFFCURVE",
"133 -10 OFFCURVE",
"327 -10 CURVE SMOOTH",
"478 -10 OFFCURVE",
"541 106 OFFCURVE",
"560 172 CURVE",
"485 204 LINE",
"461 143 OFFCURVE",
"424 67 OFFCURVE",
"327 67 CURVE SMOOTH"
);
}
);
width = 610;
},
{
anchors = (
{
name = bottom;
position = "{336, 0}";
},
{
name = top;
position = "{328, 500}";
}
);
associatedMasterId = "B33A6296-7F33-4AA4-95A6-15EAB02AACC1";
guideLines = (
{
position = "{302, 775}";
}
);
layerId = "3D483C6B-AD83-4905-92B2-2E795EC899A5";
name = "1";
paths = (
{
closed = 1;
nodes = (
"203 65 OFFCURVE",
"129 166 OFFCURVE",
"129 350 CURVE SMOOTH",
"129 534 OFFCURVE",
"203 635 OFFCURVE",
"328 635 CURVE SMOOTH",
"430 635 OFFCURVE",
"467 557 OFFCURVE",
"491 496 CURVE",
"564 528 LINE",
"544 592 OFFCURVE",
"483 710 OFFCURVE",
"328 710 CURVE SMOOTH",
"128 710 OFFCURVE",
"46 540 OFFCURVE",
"46 350 CURVE SMOOTH",
"46 160 OFFCURVE",
"128 -10 OFFCURVE",
"328 -10 CURVE SMOOTH",
"483 -10 OFFCURVE",
"544 108 OFFCURVE",
"564 172 CURVE",
"491 204 LINE",
"467 143 OFFCURVE",
"430 65 OFFCURVE",
"328 65 CURVE SMOOTH"
);
}
);
width = 610;
}
);
unicode = 0043;
},
{
glyphname = D;
layers = (
{
anchors = (
{
name = bottom;
position = "{156, 0}";
},
{
name = center;
position = "{138, 345}";
},
{
name = top;
position = "{242, 500}";
}
);
associatedMasterId = "B33A6296-7F33-4AA4-95A6-15EAB02AACC1";
guideLines = (
{
position = "{302, 775}";
}
);
layerId = "D4E53E39-CB06-4BE6-B226-F7EBC27DF91A";
name = "1";
paths = (
{
closed = 1;
nodes = (
"73 0 LINE",
"156 0 LINE",
"156 700 LINE",
"73 700 LINE"
);
},
{
closed = 1;
nodes = (
"118 700 LINE",
"118 625 LINE",
"254 625 LINE SMOOTH",
"387 625 OFFCURVE",
"454 489 OFFCURVE",
"454 350 CURVE SMOOTH",
"454 211 OFFCURVE",
"387 75 OFFCURVE",
"254 75 CURVE SMOOTH",
"118 75 LINE",
"118 0 LINE",
"251 0 LINE SMOOTH",
"434 0 OFFCURVE",
"537 163 OFFCURVE",
"537 350 CURVE SMOOTH",
"537 537 OFFCURVE",
"434 700 OFFCURVE",
"251 700 CURVE SMOOTH"
);
}
);
width = 610;
},
{
anchors = (
{
name = bottom;
position = "{156, 0}";
},
{
name = center;
position = "{138, 345}";
},
{
name = top;
position = "{242, 500}";
}
);
associatedMasterId = "B33A6296-7F33-4AA4-95A6-15EAB02AACC1";
guideLines = (
{
position = "{302, 775}";
}
);
layerId = "DF571062-D5EA-47AF-8481-A693C9271A0F";
name = "2";
paths = (
{
closed = 1;
nodes = (
"73 0 LINE",
"156 0 LINE",
"156 700 LINE",
"73 700 LINE"
);
},
{
closed = 1;
nodes = (
"118 700 LINE",
"118 625 LINE",
"254 625 LINE SMOOTH",
"397 625 OFFCURVE",
"454 489 OFFCURVE",
"454 350 CURVE SMOOTH",
"454 211 OFFCURVE",
"397 75 OFFCURVE",
"254 75 CURVE SMOOTH",
"118 75 LINE",
"118 0 LINE",
"251 0 LINE SMOOTH",
"444 0 OFFCURVE",
"537 163 OFFCURVE",
"537 350 CURVE SMOOTH",
"537 537 OFFCURVE",
"444 700 OFFCURVE",
"251 700 CURVE SMOOTH"
);
}
);
width = 610;
},
{
anchors = (
{
name = bottom;
position = "{156, 0}";
},
{
name = center;
position = "{138, 345}";
},
{
name = top;
position = "{242, 500}";
}
);
associatedMasterId = "B33A6296-7F33-4AA4-95A6-15EAB02AACC1";
guideLines = (
{
position = "{302, 775}";
}
);
layerId = "EFC6A243-7346-49F0-9CB4-14FD537850A5";
name = "3";
paths = (
{
closed = 1;
nodes = (
"72 0 LINE",
"157 0 LINE",
"157 700 LINE",
"72 700 LINE"
);
},
{
closed = 1;
nodes = (
"118 700 LINE",
"118 623 LINE",
"254 623 LINE SMOOTH",
"397 623 OFFCURVE",
"453 489 OFFCURVE",
"453 350 CURVE SMOOTH",
"453 211 OFFCURVE",
"397 77 OFFCURVE",
"254 77 CURVE SMOOTH",
"118 77 LINE",
"118 0 LINE",
"251 0 LINE SMOOTH",
"447 0 OFFCURVE",
"538 163 OFFCURVE",
"538 350 CURVE SMOOTH",
"538 537 OFFCURVE",
"448 700 OFFCURVE",
"251 700 CURVE SMOOTH"
);
}
);
width = 610;
},
{
anchors = (
{
name = bottom;
position = "{156, 0}";
},
{
name = center;
position = "{138, 345}";
},
{
name = top;
position = "{242, 800}";
}
);
background = {
components = (
{
name = C;
transform = "{-1, 0, 0, 0.9722, 588, 10}";
}
);
};
layerId = "B33A6296-7F33-4AA4-95A6-15EAB02AACC1";
paths = (
{
closed = 1;
nodes = (
"72 0 LINE",
"157 0 LINE",
"157 700 LINE",
"72 700 LINE"
);
},
{
closed = 1;
nodes = (
"118 700 LINE",
"118 623 LINE",
"254 623 LINE SMOOTH",
"415 623 OFFCURVE",
"453 489 OFFCURVE",
"453 350 CURVE SMOOTH",
"453 211 OFFCURVE",
"415 77 OFFCURVE",
"254 77 CURVE SMOOTH",
"118 77 LINE",
"118 0 LINE",
"257 0 LINE SMOOTH",
"463 0 OFFCURVE",
"538 163 OFFCURVE",
"538 350 CURVE SMOOTH",
"538 537 OFFCURVE",
"466 700 OFFCURVE",
"257 700 CURVE SMOOTH"
);
}
);
width = 610;
},
{
anchors = (
{
name = bottom;
position = "{156, 0}";
},
{
name = center;
position = "{138, 345}";
},
{
name = top;
position = "{242, 500}";
}
);
associatedMasterId = "B33A6296-7F33-4AA4-95A6-15EAB02AACC1";
background = {
components = (
{
name = C;
transform = "{-1, 0, 0, 0.9722, 588, 10}";
}
);
};
guideLines = (
{
position = "{302, 775}";
}
);
layerId = "6636DE69-8F0D-4478-8FE9-B5CA543FAFC1";
name = "Mar 16 17, 22:21";
paths = (
{
closed = 1;
nodes = (
"72 0 LINE",
"157 0 LINE",
"157 700 LINE",
"72 700 LINE"
);
},
{
closed = 1;
nodes = (
"118 700 LINE",
"118 623 LINE",
"254 623 LINE SMOOTH",
"415 623 OFFCURVE",
"453 489 OFFCURVE",
"453 350 CURVE SMOOTH",
"453 211 OFFCURVE",
"415 77 OFFCURVE",
"254 77 CURVE SMOOTH",
"118 77 LINE",
"118 0 LINE",
"257 0 LINE SMOOTH",
"463 0 OFFCURVE",
"538 163 OFFCURVE",
"538 350 CURVE SMOOTH",
"538 537 OFFCURVE",
"463 700 OFFCURVE",
"257 700 CURVE SMOOTH"
);
}
);
width = 610;
}
);
unicode = 0044;
},
{
glyphname = E;
layers = (
{
anchors = (
{
name = bottom;
position = "{305, 0}";
},
{
name = ogonek;
position = "{360, 0}";
},
{
name = top;
position = "{295, 800}";
}
);
layerId = "B33A6296-7F33-4AA4-95A6-15EAB02AACC1";
paths = (
{
closed = 1;
nodes = (
"143 0 LINE",
"520 0 LINE",
"520 77 LINE",
"143 77 LINE"
);
},
{
closed = 1;
nodes = (
"90 0 LINE",
"175 0 LINE",
"175 700 LINE",
"90 700 LINE"
);
},
{
closed = 1;
nodes = (
"132 623 LINE",
"510 623 LINE",
"510 700 LINE",
"132 700 LINE"
);
},
{
closed = 1;
nodes = (
"100 330 LINE",
"460 330 LINE",
"460 407 LINE",
"100 407 LINE"
);
}
);
width = 610;
},
{
anchors = (
{
name = bottom;
position = "{305, 0}";
},
{
name = ogonek;
position = "{432, 10}";
},
{
name = top;
position = "{300, 500}";
}
);
associatedMasterId = "B33A6296-7F33-4AA4-95A6-15EAB02AACC1";
guideLines = (
{
position = "{302, 775}";
}
);
layerId = "812EF74F-BD74-4B48-88F3-4BF2F45DC5AE";
name = "Regular Feb 21 17, 22:13";
paths = (
{
closed = 1;
nodes = (
"134 0 LINE",
"528 0 LINE",
"528 75 LINE",
"134 75 LINE"
);
},
{
closed = 1;
nodes = (
"82 0 LINE",
"165 0 LINE",
"165 700 LINE",
"82 700 LINE"
);
},
{
closed = 1;
nodes = (
"123 625 LINE",
"518 625 LINE",
"518 700 LINE",
"123 700 LINE"
);
},
{
closed = 1;
nodes = (
"91 331 LINE",
"468 331 LINE",
"468 406 LINE",
"91 406 LINE"
);
}
);
width = 610;
}
);
unicode = 0045;
},
{
glyphname = F;
layers = (
{
layerId = "B33A6296-7F33-4AA4-95A6-15EAB02AACC1";
paths = (
{
closed = 1;
nodes = (
"86 0 LINE",
"171 0 LINE",
"171 700 LINE",
"86 700 LINE"
);
},
{
closed = 1;
nodes = (
"130 623 LINE",
"523 623 LINE",
"523 700 LINE",
"130 700 LINE"
);
},
{
closed = 1;
nodes = (
"128 319 LINE",
"473 319 LINE",
"473 396 LINE",
"128 396 LINE"
);
}
);
width = 610;
}
);
unicode = 0046;
},
{
glyphname = G;
layers = (
{
anchors = (
{
name = bottom;
position = "{305, 0}";
},
{
name = top;
position = "{322, 800}";
}
);
background = {
paths = (
{
closed = 1;
nodes = (
"528 251 LINE",
"486 288 LINE",
"483 161 OFFCURVE",
"411 66 OFFCURVE",
"323 67 CURVE SMOOTH",
"205 68 OFFCURVE",
"133 167 OFFCURVE",
"133 350 CURVE SMOOTH",
"133 534 OFFCURVE",
"206 633 OFFCURVE",
"326 633 CURVE SMOOTH",
"424 633 OFFCURVE",
"461 557 OFFCURVE",
"485 496 CURVE",
"560 528 LINE",
"541 594 OFFCURVE",
"478 710 OFFCURVE",
"326 710 CURVE SMOOTH",
"131 710 OFFCURVE",
"48 540 OFFCURVE",
"48 350 CURVE SMOOTH",
"48 154 OFFCURVE",
"136 -10 OFFCURVE",
"326 -10 CURVE SMOOTH",
"400 -10 OFFCURVE",
"472 46 OFFCURVE",
"497 120 CURVE",
"485 137 LINE",
"486 0 LINE",
"558 0 LINE",
"558 326 LINE",
"346 326 LINE",
"346 249 LINE"
);
}
);
};
guideLines = (
{
position = "{284, -75}";
}
);
layerId = "B33A6296-7F33-4AA4-95A6-15EAB02AACC1";
paths = (
{
closed = 1;
nodes = (
"485 251 LINE",
"485 126 OFFCURVE",
"411 66 OFFCURVE",
"323 67 CURVE SMOOTH",
"205 68 OFFCURVE",
"133 167 OFFCURVE",
"133 350 CURVE SMOOTH",
"133 534 OFFCURVE",
"206 633 OFFCURVE",
"323 633 CURVE SMOOTH",
"424 633 OFFCURVE",
"461 557 OFFCURVE",
"485 496 CURVE",
"560 528 LINE",
"541 594 OFFCURVE",
"478 710 OFFCURVE",
"323 710 CURVE SMOOTH",
"131 710 OFFCURVE",
"48 540 OFFCURVE",
"48 350 CURVE SMOOTH",
"48 154 OFFCURVE",
"136 -10 OFFCURVE",
"323 -10 CURVE SMOOTH",
"400 -10 OFFCURVE",
"516 32 OFFCURVE",
"516 251 CURVE"
);
},
{
closed = 1;
nodes = (
"530 253 LINE",
"485 296 LINE",
"485 112 LINE",
"496 0 LINE",
"558 0 LINE",
"558 326 LINE",
"346 326 LINE",
"346 249 LINE"
);
}
);
width = 610;
},
{
anchors = (
{
name = bottom;
position = "{305, 0}";
},
{
name = top;
position = "{322, 500}";
}
);
associatedMasterId = "B33A6296-7F33-4AA4-95A6-15EAB02AACC1";
guideLines = (
{
position = "{321, 775}";
},
{
position = "{284, -75}";
}
);
layerId = "5396C5FD-B218-4698-83AA-8CB39F4B027F";
name = "Regular Feb 14 17, 22:57";
paths = (
{
closed = 1;
nodes = (
"532 251 LINE",
"490 288 LINE",
"487 160 OFFCURVE",
"414 66 OFFCURVE",
"321 66 CURVE SMOOTH",
"206 66 OFFCURVE",
"132 166 OFFCURVE",
"132 350 CURVE SMOOTH",
"132 533 OFFCURVE",
"206 634 OFFCURVE",
"331 634 CURVE SMOOTH",
"433 634 OFFCURVE",
"470 556 OFFCURVE",
"494 495 CURVE",
"567 527 LINE",
"547 591 OFFCURVE",
"486 709 OFFCURVE",
"331 709 CURVE SMOOTH",
"130 709 OFFCURVE",
"44 539 OFFCURVE",
"49 350 CURVE SMOOTH",
"49 165 OFFCURVE",
"128 -9 OFFCURVE",
"321 -9 CURVE SMOOTH",
"396 -9 OFFCURVE",
"475 44 OFFCURVE",
"502 120 CURVE",
"489 137 LINE",
"490 0 LINE",
"562 0 LINE",
"562 326 LINE",
"346 326 LINE",
"346 251 LINE"
);
}
);
width = 610;
},
{
anchors = (
{
name = bottom;
position = "{305, 0}";
},
{
name = top;
position = "{322, 500}";
}
);
associatedMasterId = "B33A6296-7F33-4AA4-95A6-15EAB02AACC1";
background = {
components = (
{
name = n;
transform = "{-1, 0, 0, -1, 667, 519}";
}
);
};
guideLines = (
{
position = "{321, 775}";
},
{
position = "{284, -75}";
}
);
layerId = "E7BF6046-91FB-4B02-A86D-CFBBE0A8D7FA";
name = "Mar 16 17, 22:44";
paths = (
{
closed = 1;
nodes = (
"528 251 LINE",
"486 288 LINE",
"483 161 OFFCURVE",
"411 66 OFFCURVE",
"323 67 CURVE SMOOTH",
"205 68 OFFCURVE",
"133 167 OFFCURVE",
"133 350 CURVE SMOOTH",
"133 534 OFFCURVE",
"206 633 OFFCURVE",
"326 633 CURVE SMOOTH",
"424 633 OFFCURVE",
"461 557 OFFCURVE",
"485 496 CURVE",
"560 528 LINE",
"541 594 OFFCURVE",
"478 710 OFFCURVE",
"326 710 CURVE SMOOTH",
"131 710 OFFCURVE",
"48 540 OFFCURVE",
"48 350 CURVE SMOOTH",
"48 154 OFFCURVE",
"136 -10 OFFCURVE",
"326 -10 CURVE SMOOTH",
"400 -10 OFFCURVE",
"472 46 OFFCURVE",
"497 120 CURVE",
"485 137 LINE",
"486 0 LINE",
"558 0 LINE",
"558 326 LINE",
"346 326 LINE",
"346 249 LINE"
);
}
);
width = 610;
}
);
unicode = 0047;
},
{
glyphname = H;
layers = (
{
anchors = (
{
name = bottom;
position = "{305, 0}";
},
{
name = center;
position = "{306, 516}";
},
{
name = top;
position = "{305, 800}";
},
{
name = topleft;
position = "{20, 700}";
}
);
layerId = "B33A6296-7F33-4AA4-95A6-15EAB02AACC1";
paths = (
{
closed = 1;
nodes = (
"90 0 LINE",
"175 0 LINE",
"175 700 LINE",
"90 700 LINE"
);
},
{
closed = 1;
nodes = (
"120 339 LINE",
"500 339 LINE",
"500 416 LINE",
"120 416 LINE"
);
},
{
closed = 1;
nodes = (
"435 0 LINE",
"520 0 LINE",
"520 700 LINE",
"435 700 LINE"
);
}
);
width = 610;
}
);
unicode = 0048;
},
{
glyphname = I;
layers = (
{
anchors = (
{
name = ogonek;
position = "{338, 0}";
},
{
name = top;
position = "{305, 800}";
}
);
layerId = "B33A6296-7F33-4AA4-95A6-15EAB02AACC1";
paths = (
{
closed = 1;
nodes = (
"263 0 LINE",
"348 0 LINE",
"348 700 LINE",
"263 700 LINE"
);
},
{
closed = 1;
nodes = (
"95 0 LINE",
"515 0 LINE",
"515 77 LINE",
"95 77 LINE"
);
},
{
closed = 1;
nodes = (
"95 623 LINE",
"515 623 LINE",
"515 700 LINE",
"95 700 LINE"
);
}
);
width = 610;
}
);
unicode = 0049;
},
{
glyphname = IJ;
layers = (
{
layerId = "B33A6296-7F33-4AA4-95A6-15EAB02AACC1";
paths = (
{
closed = 1;
nodes = (
"122 0 LINE",
"205 0 LINE",
"205 700 LINE",
"122 700 LINE"
);
},
{
closed = 1;
nodes = (
"310 -10 LINE",
"427 -10 OFFCURVE",
"516 45 OFFCURVE",
"516 251 CURVE SMOOTH",
"516 700 LINE",
"433 700 LINE",
"433 275 LINE SMOOTH",
"433 107 OFFCURVE",
"398 65 OFFCURVE",
"309 65 CURVE"
);
}
);
width = 610;
}
);
unicode = 0132;
},
{
glyphname = J;
layers = (
{
anchors = (
{
name = bottom;
position = "{300, 0}";
},
{
name = top;
position = "{300, 800}";
}
);
background = {
components = (
{
name = S;
transform = "{1, 0, 0, 1, 20, 0}";
}
);
};
layerId = "B33A6296-7F33-4AA4-95A6-15EAB02AACC1";
paths = (
{
closed = 1;
nodes = (
"425 700 LINE",
"425 213 LINE SMOOTH",
"425 101 OFFCURVE",
"364 67 OFFCURVE",
"295 67 CURVE SMOOTH",
"228 67 OFFCURVE",
"169 119 OFFCURVE",
"150 207 CURVE",
"75 175 LINE",
"97 76 OFFCURVE",
"177 -10 OFFCURVE",
"295 -10 CURVE SMOOTH",
"406 -10 OFFCURVE",
"510 53 OFFCURVE",
"510 215 CURVE SMOOTH",
"510 700 LINE"
);
}
);
width = 610;
},
{
associatedMasterId = "B33A6296-7F33-4AA4-95A6-15EAB02AACC1";
layerId = "9400DD60-A898-4B81-8233-FA3856E4E684";
name = "1";
paths = (
{
closed = 1;
nodes = (
"423 -10 OFFCURVE",
"512 45 OFFCURVE",
"512 251 CURVE SMOOTH",
"512 701 LINE",
"429 701 LINE",
"429 275 LINE SMOOTH",
"429 107 OFFCURVE",
"394 65 OFFCURVE",
"305 65 CURVE SMOOTH",
"206 65 OFFCURVE",
"178 144 OFFCURVE",
"159 196 CURVE",
"90 170 LINE",
"106 104 OFFCURVE",
"163 -10 OFFCURVE",
"306 -10 CURVE SMOOTH"
);
}
);
width = 610;
},
{
anchors = (
{
name = bottom;
position = "{300, 0}";
},
{
name = top;
position = "{300, 500}";
}
);
associatedMasterId = "B33A6296-7F33-4AA4-95A6-15EAB02AACC1";
background = {
components = (
{
name = j;
transform = "{1, 0, 0, 1, 23, 200}";
},
{
name = S;
transform = "{1, 0, 0, 1, 22, 0}";
}
);
};
layerId = "0D61721D-0D89-4F47-9D79-857F5D8D9B45";
name = "Mar 16 17, 21:42";
paths = (
{
closed = 1;
nodes = (
"425 700 LINE",
"425 180 LINE SMOOTH",
"425 110 OFFCURVE",
"387 67 OFFCURVE",
"319 67 CURVE SMOOTH",
"261 67 OFFCURVE",
"203 78 OFFCURVE",
"174 154 CURVE",
"104 118 LINE",
"136 31 OFFCURVE",
"217 -10 OFFCURVE",
"316 -10 CURVE SMOOTH",
"429 -10 OFFCURVE",
"510 62 OFFCURVE",
"510 182 CURVE SMOOTH",
"510 700 LINE"
);
}
);
width = 610;
}
);
unicode = 004A;
},
{
glyphname = K;
layers = (
{
anchors = (
{
name = bottom;
position = "{282, 0}";
},
{
name = top;
position = "{291, 800}";
}
);
background = {
components = (
{
name = N;
transform = "{1, 0, 0, 1, 14, 0}";
}
);
};
layerId = "B33A6296-7F33-4AA4-95A6-15EAB02AACC1";
paths = (
{
closed = 1;
nodes = (
"553 0 LINE",
"302 446 LINE",
"295 387 LINE",
"528 700 LINE",
"421 700 LINE",
"142 306 LINE",
"172 297 LINE",
"172 700 LINE",
"87 700 LINE",
"87 0 LINE",
"172 0 LINE",
"172 268 LINE",
"145 187 LINE",
"284 373 LINE",
"254 373 LINE",
"452 0 LINE"
);
}
);
width = 610;
},
{
anchors = (
{
name = bottom;
position = "{267, 0}";
},
{
name = top;
position = "{266, 500}";
}
);
associatedMasterId = "B33A6296-7F33-4AA4-95A6-15EAB02AACC1";
layerId = "1347BA05-1DC7-4F3E-825A-2C2EB40324D1";
name = "Regular Feb 22 17, 22:18";
paths = (
{
closed = 1;
nodes = (
"88 0 LINE",
"171 0 LINE",
"171 700 LINE",
"88 700 LINE"
);
},
{
closed = 1;
nodes = (
"105 253 LINE",
"162 210 LINE",
"494 700 LINE",
"398 700 LINE"
);
},
{
closed = 1;
nodes = (
"524 0 LINE",
"267 435 LINE",
"209 391 LINE",
"430 0 LINE"
);
}
);
width = 610;
}
);
unicode = 004B;
},
{
glyphname = L;
layers = (
{
anchors = (
{
name = bottom;
position = "{287, 0}";
},
{
name = center;
position = "{216, 348}";
},
{
name = top;
position = "{305, 800}";
},
{
name = topright;
position = "{590, 700}";
}
);
background = {
components = (
{
name = T;
}
);
};
layerId = "B33A6296-7F33-4AA4-95A6-15EAB02AACC1";
paths = (
{
closed = 1;
nodes = (
"146 0 LINE",
"543 0 LINE",
"543 77 LINE",
"146 77 LINE"
);
},
{
closed = 1;
nodes = (
"105 0 LINE",
"190 0 LINE",
"190 699 LINE",
"105 700 LINE"
);
}
);
width = 610;
}
);
unicode = 004C;
},
{
glyphname = M;
layers = (
{
anchors = (
{
name = bottom;
position = "{502, 0}";
},
{
name = top;
position = "{305, 800}";
}
);
background = {
components = (
{
name = N;
}
);
};
layerId = "B33A6296-7F33-4AA4-95A6-15EAB02AACC1";
paths = (
{
closed = 1;
nodes = (
"543 700 LINE",
"475 700 LINE",
"291 379 LINE",
"319 379 LINE",
"135 700 LINE",
"67 700 LINE",
"66 0 LINE",
"151 0 LINE",
"148 592 LINE",
"121 592 LINE",
"278 305 LINE",
"332 305 LINE",
"489 592 LINE",
"462 592 LINE",
"459 0 LINE",
"544 0 LINE"
);
}
);
width = 610;
},
{
anchors = (
{
name = bottom;
position = "{502, 0}";
},
{
name = top;
position = "{305, 500}";
}
);
associatedMasterId = "B33A6296-7F33-4AA4-95A6-15EAB02AACC1";
layerId = "E49524D1-866E-4A97-A197-E530518859E5";
name = "1";
paths = (
{
closed = 1;
nodes = (
"465 700 LINE",
"283 379 LINE",
"327 379 LINE",
"145 700 LINE",
"67 700 LINE",
"67 0 LINE",
"150 0 LINE",
"147 608 LINE",
"115 602 LINE",
"281 305 LINE",
"328 305 LINE",
"495 602 LINE",
"463 608 LINE",
"460 0 LINE",
"543 0 LINE",
"543 700 LINE"
);
}
);
width = 610;
}
);
unicode = 004D;
},
{
glyphname = N;
layers = (
{
anchors = (
{
name = bottom;
position = "{305, 0}";
},
{
name = top;
position = "{305, 800}";
}
);
background = {
components = (
{
name = A;
}
);
};
layerId = "B33A6296-7F33-4AA4-95A6-15EAB02AACC1";
paths = (
{
closed = 1;
nodes = (
"456 92 LINE",
"515 62 LINE",
"142 700 LINE",
"74 700 LINE",
"74 0 LINE",
"159 0 LINE",
"154 611 LINE",
"99 631 LINE",
"468 0 LINE",
"536 0 LINE",
"536 700 LINE",
"451 700 LINE"
);
}
);
width = 610;
},
{
anchors = (
{
name = bottom;
position = "{305, 0}";
},
{
name = top;
position = "{305, 500}";
}
);
associatedMasterId = "B33A6296-7F33-4AA4-95A6-15EAB02AACC1";
guideLines = (
{
position = "{302, 775}";
}
);
layerId = "8997C58A-09C5-4893-96A0-F61A204408B6";
name = "Regular Feb 21 17, 22:31";
paths = (
{
closed = 1;
nodes = (
"456 92 LINE",
"491 98 LINE",
"150 700 LINE",
"74 700 LINE",
"74 0 LINE",
"158 0 LINE",
"154 611 LINE",
"119 605 LINE",
"461 0 LINE",
"536 0 LINE",
"536 700 LINE",
"453 700 LINE"
);
}
);
width = 610;
}
);
unicode = 004E;
},
{
glyphname = Eng;
layers = (
{
anchors = (
{
name = bottom;
position = "{497, 0}";
}
);
components = (
{
name = N;
}
);
layerId = "B33A6296-7F33-4AA4-95A6-15EAB02AACC1";
paths = (
{
closed = 1;
nodes = (
"318 -209 LINE",
"438 -213 OFFCURVE",
"536 -149 OFFCURVE",
"536 -17 CURVE SMOOTH",
"536 26 LINE",
"454 26 LINE",
"454 -100 OFFCURVE",
"417 -138 OFFCURVE",
"315 -134 CURVE"
);
}
);
width = 610;
}
);
unicode = 014A;
},
{
glyphname = O;
layers = (
{
anchors = (
{
name = center;
position = "{305, 350}";
},
{
name = ogonek;
position = "{312, 10}";
},
{
name = top;
position = "{305, 800}";
},
{
name = topleft;
position = "{20, 700}";
},
{
name = topright;
position = "{590, 700}";
}
);
layerId = "B33A6296-7F33-4AA4-95A6-15EAB02AACC1";
paths = (
{
closed = 1;
nodes = (
"120 710 OFFCURVE",
"40 529 OFFCURVE",
"40 350 CURVE SMOOTH",
"40 171 OFFCURVE",
"120 -10 OFFCURVE",
"305 -10 CURVE SMOOTH",
"490 -10 OFFCURVE",
"570 171 OFFCURVE",
"570 350 CURVE SMOOTH",
"570 529 OFFCURVE",
"490 710 OFFCURVE",
"305 710 CURVE SMOOTH"
);
},
{
closed = 1;
nodes = (
"190 67 OFFCURVE",
"125 188 OFFCURVE",
"125 350 CURVE SMOOTH",
"125 512 OFFCURVE",
"190 633 OFFCURVE",
"305 633 CURVE SMOOTH",
"420 633 OFFCURVE",
"485 512 OFFCURVE",
"485 350 CURVE SMOOTH",
"485 188 OFFCURVE",
"420 67 OFFCURVE",
"305 67 CURVE SMOOTH"
);
}
);
width = 610;
}
);
unicode = 004F;
},
{
glyphname = OE;
layers = (
{
anchors = (
{
name = bottom;
position = "{310, 0}";
},
{
name = ogonek;
position = "{558, 10}";
},
{
name = top;
position = "{303, 800}";
}
);
layerId = "B33A6296-7F33-4AA4-95A6-15EAB02AACC1";
paths = (
{
closed = 1;
nodes = (
"336 700 LINE",
"139 699 OFFCURVE",
"59 516 OFFCURVE",
"59 350 CURVE SMOOTH",
"59 184 OFFCURVE",
"140 1 OFFCURVE",
"336 0 CURVE",
"336 76 LINE",
"218 77 OFFCURVE",
"142 177 OFFCURVE",
"142 350 CURVE SMOOTH",
"142 524 OFFCURVE",
"218 624 OFFCURVE",
"336 625 CURVE"
);
},
{
closed = 1;
nodes = (
"328 331 LINE",
"492 331 LINE",
"492 406 LINE",
"328 406 LINE"
);
},
{
closed = 1;
nodes = (
"392 625 LINE",
"542 625 LINE",
"542 700 LINE",
"336 700 LINE",
"308 675 LINE",
"308 26.009 LINE",
"336 0 LINE",
"552 0 LINE",
"552 75 LINE",
"392 76 LINE"
);
}
);
width = 610;
},
{
anchors = (
{
name = bottom;
position = "{310, 0}";
},
{
name = ogonek;
position = "{558, 10}";
},
{
name = top;
position = "{303, 685}";
}
);
associatedMasterId = "B33A6296-7F33-4AA4-95A6-15EAB02AACC1";
layerId = "77E64179-6933-4ECD-ABC8-85999B77BB70";
name = "Mar 16 17, 23:31";
paths = (
{
closed = 1;
nodes = (
"336 700 LINE",
"139 699 OFFCURVE",
"59 516 OFFCURVE",
"59 350 CURVE SMOOTH",
"59 184 OFFCURVE",
"140 1 OFFCURVE",
"336 0 CURVE",
"336 76 LINE",
"218 77 OFFCURVE",
"142 177 OFFCURVE",
"142 350 CURVE SMOOTH",
"142 524 OFFCURVE",
"218 624 OFFCURVE",
"336 625 CURVE"
);
},
{
closed = 1;
nodes = (
"328 331 LINE",
"492 331 LINE",
"492 406 LINE",
"328 406 LINE"
);
},
{
closed = 1;
nodes = (
"392 625 LINE",
"542 625 LINE",
"542 700 LINE",
"336 700 LINE",
"308 675 LINE",
"308 26.009 LINE",
"336 0 LINE",
"552 0 LINE",
"552 75 LINE",
"392 76 LINE"
);
}
);
width = 610;
}
);
unicode = 0152;
},
{
glyphname = P;
layers = (
{
anchors = (
{
name = bottom;
position = "{305, 0}";
},
{
name = top;
position = "{305, 700}";
}
);
layerId = "B33A6296-7F33-4AA4-95A6-15EAB02AACC1";
paths = (
{
closed = 1;
nodes = (
"157 0 LINE",
"157 700 LINE",
"72 700 LINE",
"72 0 LINE"
);
},
{
closed = 1;
nodes = (
"110 700 LINE",
"110 623 LINE",
"333 623 LINE SMOOTH",
"448 623 OFFCURVE",
"463 545 OFFCURVE",
"463 496 CURVE SMOOTH",
"463 447 OFFCURVE",
"448 369 OFFCURVE",
"333 369 CURVE SMOOTH",
"110 369 LINE",
"110 292 LINE",
"342 292 LINE SMOOTH",
"488 292 OFFCURVE",
"548 396 OFFCURVE",
"548 496 CURVE SMOOTH",
"548 596 OFFCURVE",
"488 700 OFFCURVE",
"342 700 CURVE SMOOTH"
);
}
);
width = 610;
}
);
unicode = 0050;
},
{
glyphname = Thorn;
layers = (
{
anchors = (
{
name = bottom;
position = "{305, 0}";
},
{
name = top;
position = "{305, 700}";
}
);
guideLines = (
{
position = "{543, 350}";
}
);
layerId = "B33A6296-7F33-4AA4-95A6-15EAB02AACC1";
paths = (
{
closed = 1;
nodes = (
"152 0 LINE",
"152 700 LINE",
"67 700 LINE",
"67 0 LINE"
);
},
{
closed = 1;
nodes = (
"152 0 LINE",
"152 700 LINE",
"67 700 LINE",
"67 0 LINE"
);
},
{
closed = 1;
nodes = (
"105 554 LINE",
"105 477 LINE",
"328 477 LINE SMOOTH",
"443 477 OFFCURVE",
"458 399 OFFCURVE",
"458 350 CURVE SMOOTH",
"458 301 OFFCURVE",
"443 223 OFFCURVE",
"328 223 CURVE SMOOTH",
"105 223 LINE",
"105 146 LINE",
"337 146 LINE SMOOTH",
"483 146 OFFCURVE",
"543 250 OFFCURVE",
"543 350 CURVE SMOOTH",
"543 450 OFFCURVE",
"483 554 OFFCURVE",
"337 554 CURVE SMOOTH"
);
}
);
width = 610;
},
{
anchors = (
{
name = bottom;
position = "{305, 0}";
},
{
name = top;
position = "{305, 700}";
}
);
associatedMasterId = "B33A6296-7F33-4AA4-95A6-15EAB02AACC1";
guideLines = (
{
position = "{543, 350}";
}
);
layerId = "A5DB6272-69F1-4ED7-A44C-E4EDE40142EC";
name = "Mar 16 17, 23:32";
paths = (
{
closed = 1;
nodes = (
"152 0 LINE",
"152 700 LINE",
"67 700 LINE",
"67 0 LINE"
);
},
{
closed = 1;
nodes = (
"105 554 LINE",
"105 479 LINE",
"338 479 LINE SMOOTH",
"443 479 OFFCURVE",
"459 399 OFFCURVE",
"459 350 CURVE SMOOTH",
"459 301 OFFCURVE",
"443 221 OFFCURVE",
"338 221 CURVE SMOOTH",
"105 221 LINE",
"105 146 LINE",
"347 146 LINE SMOOTH",
"476 146 OFFCURVE",
"542 250 OFFCURVE",
"542 350 CURVE SMOOTH",
"542 450 OFFCURVE",
"476 554 OFFCURVE",
"347 554 CURVE SMOOTH"
);
}
);
width = 610;
}
);
unicode = 00DE;
},
{
glyphname = Q;
layers = (
{
components = (
{
name = O;
}
);
layerId = "B33A6296-7F33-4AA4-95A6-15EAB02AACC1";
paths = (
{
closed = 1;
nodes = (
"536 -56 LINE",
"411 97 LINE",
"345 53 LINE",
"469 -102 LINE"
);
}
);
width = 610;
},
{
associatedMasterId = "B33A6296-7F33-4AA4-95A6-15EAB02AACC1";
components = (
{
name = O;
}
);
layerId = "D5C05269-950F-46B2-8924-12C2B0FE0565";
name = "Mar 16 17, 21:55";
paths = (
{
closed = 1;
nodes = (
"499 0 LINE",
"437 -30 OFFCURVE",
"406 -19 OFFCURVE",
"368 50 CURVE",
"321 -9 LINE",
"372 -89 OFFCURVE",
"451 -119 OFFCURVE",
"533 -68 CURVE"
);
}
);
width = 610;
}
);
unicode = 0051;
},
{
glyphname = R;
layers = (
{
anchors = (
{
name = bottom;
position = "{278, 0}";
},
{
name = top;
position = "{275, 800}";
}
);
background = {
components = (
{
name = K;
transform = "{1, 0, 0, 1, -7, 0}";
}
);
};
layerId = "B33A6296-7F33-4AA4-95A6-15EAB02AACC1";
paths = (
{
closed = 1;
nodes = (
"535 611 OFFCURVE",
"462 700 OFFCURVE",
"349 700 CURVE SMOOTH",
"78 700 LINE",
"78 0 LINE",
"163 0 LINE",
"163 368 LINE",
"118 323 LINE",
"305 323 LINE",
"248 363 LINE",
"442 0 LINE",
"540 0 LINE",
"335 364 LINE",
"330 323 LINE",
"455 317 OFFCURVE",
"535 405 OFFCURVE",
"535 512 CURVE SMOOTH"
);
},
{
closed = 1;
nodes = (
"338 623 LINE SMOOTH",
"431 623 OFFCURVE",
"450 549 OFFCURVE",
"450 512 CURVE SMOOTH",
"450 474 OFFCURVE",
"432 400 OFFCURVE",
"338 400 CURVE SMOOTH",
"148 400 LINE",
"163 385 LINE",
"163 668 LINE",
"118 623 LINE"
);
}
);
width = 610;
},
{
anchors = (
{
name = bottom;
position = "{278, 0}";
},
{
name = top;
position = "{275, 500}";
}
);
associatedMasterId = "B33A6296-7F33-4AA4-95A6-15EAB02AACC1";
guideLines = (
{
position = "{302, 775}";
}
);
layerId = "CDA8A190-B02A-4CA8-91D4-82722195A3EA";
name = "Regular Feb 21 17, 22:21";
paths = (
{
closed = 1;
nodes = (
"449 323 OFFCURVE",
"528 408 OFFCURVE",
"528 512 CURVE SMOOTH",
"528 611 OFFCURVE",
"450 700 OFFCURVE",
"343 700 CURVE SMOOTH",
"120 700 LINE",
"120 625 LINE",
"332 625 LINE SMOOTH",
"425 625 OFFCURVE",
"445 549 OFFCURVE",
"445 512 CURVE SMOOTH",
"445 474 OFFCURVE",
"426 398 OFFCURVE",
"332 398 CURVE SMOOTH",
"120 398 LINE",
"120 323 LINE",
"336 323 LINE SMOOTH"
);
},
{
closed = 1;
nodes = (
"166 0 LINE",
"166 700 LINE",
"82 700 LINE",
"82 0 LINE"
);
},
{
closed = 1;
nodes = (
"437 0 LINE",
"527 0 LINE",
"346 358 LINE",
"264 358 LINE"
);
}
);
width = 610;
},
{
anchors = (
{
name = bottom;
position = "{278, 0}";
},
{
name = top;
position = "{275, 500}";
}
);
associatedMasterId = "B33A6296-7F33-4AA4-95A6-15EAB02AACC1";
background = {
components = (
{
name = P;
transform = "{1, 0, 0, 1, 18, 0}";
}
);
};
guideLines = (
{
position = "{302, 775}";
}
);
layerId = "E471CB66-B4AE-4620-8E0C-F5AE68A562FE";
name = "Regular Feb 21 17, 22:25";
paths = (
{
closed = 1;
nodes = (
"465 323 OFFCURVE",
"539 408 OFFCURVE",
"539 512 CURVE SMOOTH",
"539 611 OFFCURVE",
"466 700 OFFCURVE",
"353 700 CURVE SMOOTH",
"120 700 LINE",
"120 623 LINE",
"342 623 LINE SMOOTH",
"435 623 OFFCURVE",
"454 549 OFFCURVE",
"454 512 CURVE SMOOTH",
"454 474 OFFCURVE",
"436 400 OFFCURVE",
"342 400 CURVE SMOOTH",
"120 400 LINE",
"120 323 LINE",
"346 323 LINE SMOOTH"
);
},
{
closed = 1;
nodes = (
"167 0 LINE",
"167 700 LINE",
"82 700 LINE",
"82 0 LINE"
);
},
{
closed = 1;
nodes = (
"437 0 LINE",
"531 0 LINE",
"342 377 LINE",
"246 378 LINE"
);
}
);
width = 610;
},
{
anchors = (
{
name = bottom;
position = "{278, 0}";
},
{
name = top;
position = "{275, 500}";
}
);
associatedMasterId = "B33A6296-7F33-4AA4-95A6-15EAB02AACC1";
background = {
components = (
{
name = P;
transform = "{1, 0, 0, 1, 18, 0}";
}
);
};
guideLines = (
{
position = "{302, 775}";
}
);
layerId = "F92D48EB-66DD-41C5-AFAB-22EF805BB953";
name = "Mar 16 17, 21:25";
paths = (
{
closed = 1;
nodes = (
"539 611 OFFCURVE",
"466 700 OFFCURVE",
"353 700 CURVE SMOOTH",
"82 700 LINE",
"82 0 LINE",
"167 0 LINE",
"167 368 LINE",
"122 323 LINE",
"309 323 LINE",
"254 363 LINE",
"437 0 LINE",
"531 0 LINE",
"339 364 LINE",
"334 323 LINE",
"459 317 OFFCURVE",
"539 405 OFFCURVE",
"539 512 CURVE SMOOTH"
);
},
{
closed = 1;
nodes = (
"342 623 LINE SMOOTH",
"435 623 OFFCURVE",
"454 549 OFFCURVE",
"454 512 CURVE SMOOTH",
"454 474 OFFCURVE",
"436 400 OFFCURVE",
"342 400 CURVE SMOOTH",
"152 400 LINE",
"167 385 LINE",
"167 668 LINE",
"122 623 LINE"
);
}
);
width = 610;
},
{
anchors = (
{
name = bottom;
position = "{278, 0}";
},
{
name = top;
position = "{275, 500}";
}
);
associatedMasterId = "B33A6296-7F33-4AA4-95A6-15EAB02AACC1";
background = {
components = (
{
name = K;
transform = "{1, 0, 0, 1, -7, 0}";
}
);
};
guideLines = (
{
position = "{302, 775}";
}
);
layerId = "1C6B9663-9AEF-4DBC-A3E5-0AD7F896E58F";
name = "Mar 16 17, 22:24";
paths = (
{
closed = 1;
nodes = (
"539 611 OFFCURVE",
"466 700 OFFCURVE",
"353 700 CURVE SMOOTH",
"82 700 LINE",
"82 0 LINE",
"167 0 LINE",
"167 368 LINE",
"122 323 LINE",
"309 323 LINE",
"252 363 LINE",
"435 0 LINE",
"531 0 LINE",
"339 364 LINE",
"334 323 LINE",
"459 317 OFFCURVE",
"539 405 OFFCURVE",
"539 512 CURVE SMOOTH"
);
},
{
closed = 1;
nodes = (
"342 623 LINE SMOOTH",
"435 623 OFFCURVE",
"454 549 OFFCURVE",
"454 512 CURVE SMOOTH",
"454 474 OFFCURVE",
"436 400 OFFCURVE",
"342 400 CURVE SMOOTH",
"152 400 LINE",
"167 385 LINE",
"167 668 LINE",
"122 623 LINE"
);
}
);
width = 610;
}
);
unicode = 0052;
},
{
glyphname = S;
layers = (
{
anchors = (
{
name = bottom;
position = "{310, 0}";
},
{
name = top;
position = "{310, 500}";
}
);
associatedMasterId = "B33A6296-7F33-4AA4-95A6-15EAB02AACC1";
guideLines = (
{
position = "{302, 775}";
}
);
layerId = "F3DCD1EF-3951-43E6-9589-E0A03A59D27B";
name = "1";
paths = (
{
closed = 1;
nodes = (
"120 34 OFFCURVE",
"203 -10 OFFCURVE",
"309 -10 CURVE SMOOTH",
"443 -10 OFFCURVE",
"553 56 OFFCURVE",
"553 193 CURVE SMOOTH",
"553 428 OFFCURVE",
"164 365 OFFCURVE",
"164 519 CURVE SMOOTH",
"164 605 OFFCURVE",
"235 635 OFFCURVE",
"305 635 CURVE SMOOTH",
"374 635 OFFCURVE",
"418 601 OFFCURVE",
"469 554 CURVE",
"524 610 LINE",
"477 665 OFFCURVE",
"401 710 OFFCURVE",
"305 710 CURVE SMOOTH",
"187 710 OFFCURVE",
"81 645 OFFCURVE",
"81 519 CURVE SMOOTH",
"81 291 OFFCURVE",
"470 358 OFFCURVE",
"470 193 CURVE SMOOTH",
"470 106 OFFCURVE",
"407 65 OFFCURVE",
"309 65 CURVE SMOOTH",
"232 65 OFFCURVE",
"164 106 OFFCURVE",
"113 162 CURVE",
"59 103 LINE"
);
}
);
width = 610;
},
{
anchors = (
{
name = bottom;
position = "{310, 0}";
},
{
name = top;
position = "{310, 500}";
}
);
associatedMasterId = "B33A6296-7F33-4AA4-95A6-15EAB02AACC1";
background = {
anchors = (
{
name = bottom;
position = "{281, 0}";
},
{
name = top;
position = "{289, 500}";
}
);
paths = (
{
closed = 1;
nodes = (
"109 350 LINE",
"109 534 OFFCURVE",
"182 633 OFFCURVE",
"307 633 CURVE SMOOTH",
"409 633 OFFCURVE",
"446 557 OFFCURVE",
"470 496 CURVE",
"545 528 LINE",
"526 594 OFFCURVE",
"463 710 OFFCURVE",
"307 710 CURVE SMOOTH",
"107 710 OFFCURVE",
"24 540 OFFCURVE",
"24 350 CURVE"
);
},
{
closed = 1;
nodes = (
"187 67 OFFCURVE",
"150 143 OFFCURVE",
"126 204 CURVE",
"51 172 LINE",
"70 106 OFFCURVE",
"133 -10 OFFCURVE",
"289 -10 CURVE SMOOTH",
"489 -10 OFFCURVE",
"572 160 OFFCURVE",
"572 350 CURVE",
"487 350 LINE",
"487 166 OFFCURVE",
"414 67 OFFCURVE",
"289 67 CURVE SMOOTH"
);
}
);
};
guideLines = (
{
angle = 270;
position = "{311, 710}";
}
);
layerId = "597A1E70-7F03-4019-84CC-55922AC0C9E2";
name = "2";
paths = (
{
closed = 1;
nodes = (
"96 30 OFFCURVE",
"203 -10 OFFCURVE",
"307 -10 CURVE SMOOTH",
"443 -10 OFFCURVE",
"554 56 OFFCURVE",
"554 193 CURVE SMOOTH",
"554 328 OFFCURVE",
"426 375 OFFCURVE",
"307 403 CURVE SMOOTH",
"233 420 OFFCURVE",
"165 443 OFFCURVE",
"165 519 CURVE SMOOTH",
"165 605 OFFCURVE",
"241 633 OFFCURVE",
"307 633 CURVE SMOOTH",
"380 633 OFFCURVE",
"435 602 OFFCURVE",
"470 496 CURVE",
"545 528 LINE",
"507 655 OFFCURVE",
"407 710 OFFCURVE",
"307 710 CURVE SMOOTH",
"193 710 OFFCURVE",
"80 645 OFFCURVE",
"80 519 CURVE SMOOTH",
"80 380 OFFCURVE",
"202 345 OFFCURVE",
"307 322 CURVE SMOOTH",
"396 302 OFFCURVE",
"469 265 OFFCURVE",
"469 193 CURVE SMOOTH",
"469 106 OFFCURVE",
"407 67 OFFCURVE",
"307 67 CURVE SMOOTH",
"232 67 OFFCURVE",
"172 87 OFFCURVE",
"126 207 CURVE",
"51 175 LINE"
);
}
);
width = 610;
},
{
anchors = (
{
name = bottom;
position = "{312, 0}";
},
{
name = top;
position = "{312, 500}";
}
);
associatedMasterId = "B33A6296-7F33-4AA4-95A6-15EAB02AACC1";
background = {
anchors = (
{
name = bottom;
position = "{281, 0}";
},
{
name = top;
position = "{289, 500}";
}
);
components = (
{
name = s;
transform = "{1.3844, 0, 0, 1.3844, -117, 4}";
}
);
};
guideLines = (
{
angle = 270;
position = "{309, 710}";
}
);
layerId = "AC7E32F3-D56E-465A-9A2C-33C0BF6D15C8";
name = "3";
paths = (
{
closed = 1;
nodes = (
"98 30 OFFCURVE",
"205 -10 OFFCURVE",
"309 -10 CURVE SMOOTH",
"447 -10 OFFCURVE",
"556 56 OFFCURVE",
"556 193 CURVE SMOOTH",
"556 350 OFFCURVE",
"428 386 OFFCURVE",
"309 405 CURVE SMOOTH",
"235 417 OFFCURVE",
"167 437 OFFCURVE",
"167 519 CURVE SMOOTH",
"167 604 OFFCURVE",
"234 633 OFFCURVE",
"309 633 CURVE SMOOTH",
"383 633 OFFCURVE",
"437 602 OFFCURVE",
"472 496 CURVE",
"547 528 LINE",
"509 661 OFFCURVE",
"410 710 OFFCURVE",
"309 710 CURVE SMOOTH",
"185 710 OFFCURVE",
"82 646 OFFCURVE",
"82 519 CURVE SMOOTH",
"82 374 OFFCURVE",
"204 339 OFFCURVE",
"309 325 CURVE SMOOTH",
"398 313 OFFCURVE",
"471 287 OFFCURVE",
"471 193 CURVE SMOOTH",
"471 106 OFFCURVE",
"409 67 OFFCURVE",
"309 67 CURVE SMOOTH",
"234 67 OFFCURVE",
"174 87 OFFCURVE",
"128 207 CURVE",
"53 175 LINE"
);
}
);
width = 610;
},
{
associatedMasterId = "B33A6296-7F33-4AA4-95A6-15EAB02AACC1";
background = {
anchors = (
{
name = bottom;
position = "{281, 0}";
},
{
name = top;
position = "{289, 500}";
}
);
guideLines = (
{
angle = 270;
position = "{309, 67}";
}
);
paths = (
{
closed = 1;
nodes = (
"490 207 LINE",
"444 87 OFFCURVE",
"384 67 OFFCURVE",
"309 67 CURVE SMOOTH",
"209 67 OFFCURVE",
"147 106 OFFCURVE",
"147 193 CURVE SMOOTH",
"147 287 OFFCURVE",
"220 313 OFFCURVE",
"309 325 CURVE SMOOTH",
"414 339 OFFCURVE",
"536 374 OFFCURVE",
"536 519 CURVE SMOOTH",
"536 646 OFFCURVE",
"433 710 OFFCURVE",
"309 710 CURVE SMOOTH",
"208 710 OFFCURVE",
"109 661 OFFCURVE",
"71 528 CURVE",
"146 496 LINE",
"181 602 OFFCURVE",
"235 633 OFFCURVE",
"309 633 CURVE SMOOTH",
"384 633 OFFCURVE",
"451 604 OFFCURVE",
"451 519 CURVE SMOOTH",
"451 437 OFFCURVE",
"383 417 OFFCURVE",
"309 405 CURVE SMOOTH",
"190 386 OFFCURVE",
"62 350 OFFCURVE",
"62 193 CURVE SMOOTH",
"62 56 OFFCURVE",
"171 -10 OFFCURVE",
"309 -10 CURVE SMOOTH",
"413 -10 OFFCURVE",
"520 30 OFFCURVE",
"565 175 CURVE"
);
}
);
};
guideLines = (
{
angle = 270;
position = "{309, 710}";
}
);
layerId = "C2800550-81EA-487D-AB71-617D20E9E8C1";
name = "4";
paths = (
{
closed = 1;
nodes = (
"100 30 OFFCURVE",
"205 -10 OFFCURVE",
"309 -10 CURVE SMOOTH",
"447 -10 OFFCURVE",
"556 56 OFFCURVE",
"556 193 CURVE SMOOTH",
"556 350 OFFCURVE",
"428 386 OFFCURVE",
"309 405 CURVE SMOOTH",
"235 417 OFFCURVE",
"167 437 OFFCURVE",
"167 519 CURVE SMOOTH",
"167 604 OFFCURVE",
"234 633 OFFCURVE",
"309 633 CURVE SMOOTH",
"383 633 OFFCURVE",
"437 602 OFFCURVE",
"472 496 CURVE",
"547 528 LINE",
"509 661 OFFCURVE",
"410 710 OFFCURVE",
"309 710 CURVE SMOOTH",
"185 710 OFFCURVE",
"82 646 OFFCURVE",
"82 519 CURVE SMOOTH",
"82 374 OFFCURVE",
"204 339 OFFCURVE",
"309 325 CURVE SMOOTH",
"398 313 OFFCURVE",
"471 287 OFFCURVE",
"471 193 CURVE SMOOTH",
"471 106 OFFCURVE",
"409 67 OFFCURVE",
"309 67 CURVE SMOOTH",
"234 67 OFFCURVE",
"172 87 OFFCURVE",
"128 207 CURVE",
"53 175 LINE"
);
}
);
width = 610;
},
{
anchors = (
{
name = top;
position = "{309, 757}";
}
);
associatedMasterId = "B33A6296-7F33-4AA4-95A6-15EAB02AACC1";
background = {
anchors = (
{
name = bottom;
position = "{281, 0}";
},
{
name = top;
position = "{289, 500}";
}
);
guideLines = (
{
angle = 270;
position = "{309, 67}";
}
);
paths = (
{
closed = 1;
nodes = (
"100 30 OFFCURVE",
"205 -10 OFFCURVE",
"309 -10 CURVE SMOOTH",
"447 -10 OFFCURVE",
"556 56 OFFCURVE",
"556 193 CURVE SMOOTH",
"556 349 OFFCURVE",
"428 387 OFFCURVE",
"309 407 CURVE SMOOTH",
"235 420 OFFCURVE",
"167 441 OFFCURVE",
"167 519 CURVE SMOOTH",
"167 604 OFFCURVE",
"234 633 OFFCURVE",
"309 633 CURVE SMOOTH",
"383 633 OFFCURVE",
"435 604 OFFCURVE",
"470 498 CURVE",
"545 530 LINE",
"507 663 OFFCURVE",
"410 710 OFFCURVE",
"309 710 CURVE SMOOTH",
"185 710 OFFCURVE",
"82 646 OFFCURVE",
"82 519 CURVE SMOOTH",
"82 375 OFFCURVE",
"204 338 OFFCURVE",
"309 323 CURVE SMOOTH",
"398 311 OFFCURVE",
"471 284 OFFCURVE",
"471 193 CURVE SMOOTH",
"471 106 OFFCURVE",
"409 67 OFFCURVE",
"309 67 CURVE SMOOTH",
"234 67 OFFCURVE",
"172 87 OFFCURVE",
"128 207 CURVE",
"53 175 LINE"
);
}
);
};
guideLines = (
{
angle = 270;
position = "{309, 710}";
}
);
layerId = "7A36A187-1FC3-4D72-9E46-4485855092FD";
name = "Regular Oct 19 17, 23:37";
paths = (
{
closed = 1;
nodes = (
"101 33 OFFCURVE",
"202 -10 OFFCURVE",
"305 -10 CURVE SMOOTH",
"446 -10 OFFCURVE",
"552 55 OFFCURVE",
"552 187 CURVE SMOOTH",
"552 347 OFFCURVE",
"423 366 OFFCURVE",
"305 392 CURVE SMOOTH",
"231 408 OFFCURVE",
"162 429 OFFCURVE",
"162 513 CURVE SMOOTH",
"162 599 OFFCURVE",
"227 633 OFFCURVE",
"305 633 CURVE SMOOTH",
"379 633 OFFCURVE",
"426 609 OFFCURVE",
"466 496 CURVE",
"541 528 LINE",
"498 667 OFFCURVE",
"407 710 OFFCURVE",
"304 710 CURVE SMOOTH",
"183 710 OFFCURVE",
"77 645 OFFCURVE",
"77 513 CURVE SMOOTH",
"77 363 OFFCURVE",
"200 323 OFFCURVE",
"304 308 CURVE SMOOTH",
"394 295 OFFCURVE",
"467 281 OFFCURVE",
"467 187 CURVE SMOOTH",
"467 101 OFFCURVE",
"402 67 OFFCURVE",
"304 67 CURVE SMOOTH",
"230 67 OFFCURVE",
"173 91 OFFCURVE",
"133 204 CURVE",
"58 172 LINE"
);
}
);
width = 610;
},
{
anchors = (
{
name = top;
position = "{309, 800}";
}
);
background = {
anchors = (
{
name = bottom;
position = "{281, 0}";
},
{
name = top;
position = "{289, 500}";
}
);
guideLines = (
{
angle = 270;
position = "{309, 67}";
}
);
};
guideLines = (
{
angle = 270;
position = "{309, 710}";
}
);
layerId = "B33A6296-7F33-4AA4-95A6-15EAB02AACC1";
paths = (
{
closed = 1;
nodes = (
"100 30 OFFCURVE",
"205 -10 OFFCURVE",
"309 -10 CURVE SMOOTH",
"447 -10 OFFCURVE",
"556 56 OFFCURVE",
"556 193 CURVE SMOOTH",
"556 349 OFFCURVE",
"428 387 OFFCURVE",
"309 407 CURVE SMOOTH",
"235 420 OFFCURVE",
"167 441 OFFCURVE",
"167 519 CURVE SMOOTH",
"167 604 OFFCURVE",
"234 633 OFFCURVE",
"309 633 CURVE SMOOTH",
"383 633 OFFCURVE",
"435 604 OFFCURVE",
"470 498 CURVE",
"545 530 LINE",
"507 663 OFFCURVE",
"410 710 OFFCURVE",
"309 710 CURVE SMOOTH",
"185 710 OFFCURVE",
"82 646 OFFCURVE",
"82 519 CURVE SMOOTH",
"82 375 OFFCURVE",
"204 338 OFFCURVE",
"309 323 CURVE SMOOTH",
"398 311 OFFCURVE",
"471 284 OFFCURVE",
"471 193 CURVE SMOOTH",
"471 106 OFFCURVE",
"409 67 OFFCURVE",
"309 67 CURVE SMOOTH",
"234 67 OFFCURVE",
"173 87 OFFCURVE",
"128 207 CURVE",
"53 175 LINE"
);
}
);
width = 610;
}
);
unicode = 0053;
},
{
glyphname = T;
layers = (
{
anchors = (
{
name = bottom;
position = "{305, 0}";
},
{
name = center;
position = "{305, 350}";
},
{
name = top;
position = "{305, 800}";
}
);
background = {
components = (
{
name = B;
}
);
};
layerId = "B33A6296-7F33-4AA4-95A6-15EAB02AACC1";
paths = (
{
closed = 1;
nodes = (
"262 0 LINE",
"347 0 LINE",
"347 660 LINE",
"262 660 LINE"
);
},
{
closed = 1;
nodes = (
"50 623 LINE",
"560 623 LINE",
"560 700 LINE",
"50 700 LINE"
);
}
);
width = 610;
},
{
anchors = (
{
name = bottom;
position = "{305, 0}";
},
{
name = center;
position = "{305, 350}";
},
{
name = top;
position = "{305, 800}";
}
);
associatedMasterId = "B33A6296-7F33-4AA4-95A6-15EAB02AACC1";
background = {
components = (
{
name = L;
}
);
};
layerId = "3F06D81D-22F9-4B3D-BC2A-993A644BDBF4";
name = "Dec 7 17, 12:33";
paths = (
{
closed = 1;
nodes = (
"263 0 LINE",
"348 0 LINE",
"348 660 LINE",
"263 660 LINE"
);
},
{
closed = 1;
nodes = (
"90 623 LINE",
"520 623 LINE",
"520 700 LINE",
"90 700 LINE"
);
}
);
width = 610;
}
);
unicode = 0054;
},
{
glyphname = U;
layers = (
{
anchors = (
{
name = bottom;
position = "{305, 0}";
},
{
name = ogonek;
position = "{319, 10}";
},
{
name = top;
position = "{302, 800}";
},
{
name = topright;
position = "{590, 700}";
}
);
layerId = "B33A6296-7F33-4AA4-95A6-15EAB02AACC1";
paths = (
{
closed = 1;
nodes = (
"456 233 LINE SMOOTH",
"456 121 OFFCURVE",
"398 67 OFFCURVE",
"305 67 CURVE",
"212 67 OFFCURVE",
"154 121 OFFCURVE",
"154 233 CURVE SMOOTH",
"154 700 LINE",
"69 700 LINE",
"69 232 LINE SMOOTH",
"69 76 OFFCURVE",
"171 -10 OFFCURVE",
"305 -10 CURVE SMOOTH",
"439 -10 OFFCURVE",
"541 76 OFFCURVE",
"541 232 CURVE SMOOTH",
"541 700 LINE",
"456 700 LINE"
);
}
);
width = 610;
}
);
unicode = 0055;
},
{
glyphname = V;
layers = (
{
anchors = (
{
name = ogonek;
position = "{451, 690}";
},
{
name = top;
position = "{303, 200}";
}
);
background = {
components = (
{
name = A;
transform = "{1, 0, 0, -1, 1, 700}";
}
);
};
layerId = "B33A6296-7F33-4AA4-95A6-15EAB02AACC1";
paths = (
{
closed = 1;
nodes = (
"485 700 LINE",
"282 67 LINE",
"328 67 LINE",
"125 700 LINE",
"35 700 LINE",
"274 0 LINE",
"337 0 LINE",
"575 700 LINE"
);
}
);
width = 610;
},
{
associatedMasterId = "B33A6296-7F33-4AA4-95A6-15EAB02AACC1";
layerId = "567F38AD-B22A-46E8-8C3C-0B51306B0D41";
name = "Regular Feb 15 17, 23:13";
paths = (
{
closed = 1;
nodes = (
"332 51 LINE",
"146 700 LINE",
"61 700 LINE",
"268 0 LINE",
"317 0 LINE"
);
},
{
closed = 1;
nodes = (
"353 0 LINE",
"560 700 LINE",
"475 700 LINE",
"289 51 LINE",
"304 0 LINE"
);
}
);
width = 610;
}
);
unicode = 0056;
},
{
glyphname = W;
layers = (
{
anchors = (
{
name = bottom;
position = "{305, 0}";
},
{
name = top;
position = "{305, 800}";
}
);
background = {
components = (
{
name = V;
}
);
};
layerId = "B33A6296-7F33-4AA4-95A6-15EAB02AACC1";
paths = (
{
closed = 1;
nodes = (
"416 67 LINE",
"456 67 LINE",
"337 500 LINE",
"306 500 LINE",
"306 499 LINE",
"305 500 LINE",
"274 500 LINE",
"155 67 LINE",
"195 67 LINE",
"121 700 LINE",
"35 700 LINE",
"129 0 LINE",
"200 0 LINE",
"320 409 LINE",
"292 409 LINE",
"411 0 LINE",
"482 0 LINE",
"576 700 LINE",
"490 700 LINE"
);
}
);
width = 610;
},
{
anchors = (
{
name = bottom;
position = "{305, 0}";
},
{
name = top;
position = "{305, 500}";
}
);
associatedMasterId = "B33A6296-7F33-4AA4-95A6-15EAB02AACC1";
layerId = "96E2899A-3C36-47DC-B50A-1E24CCC0A339";
name = "1";
paths = (
{
closed = 1;
nodes = (
"413 77 LINE",
"451 77 LINE",
"332 502 LINE",
"278 502 LINE",
"159 77 LINE",
"197 77 LINE",
"141 700 LINE",
"58 700 LINE",
"129 0 LINE",
"196 0 LINE",
"318 384 LINE",
"293 384 LINE",
"414 0 LINE",
"481 0 LINE",
"552 700 LINE",
"469 700 LINE"
);
}
);
width = 610;
},
{
anchors = (
{
name = bottom;
position = "{305, 0}";
},
{
name = top;
position = "{305, 500}";
}
);
associatedMasterId = "B33A6296-7F33-4AA4-95A6-15EAB02AACC1";
background = {
components = (
{
name = V;
}
);
};
layerId = "6F99D941-430B-4BA9-B96C-F55EB8B7CD78";
name = "2";
paths = (
{
closed = 1;
nodes = (
"413 67 LINE",
"458 67 LINE",
"337 500 LINE",
"306 500 LINE",
"306 499 LINE",
"305 500 LINE",
"274 500 LINE",
"153 67 LINE",
"198 67 LINE",
"121 700 LINE",
"35 700 LINE",
"129 0 LINE",
"200 0 LINE",
"320 398 LINE",
"292 398 LINE",
"411 0 LINE",
"482 0 LINE",
"576 700 LINE",
"490 700 LINE"
);
}
);
width = 610;
}
);
unicode = 0057;
},
{
glyphname = X;
layers = (
{
guideLines = (
{
angle = 270;
position = "{576, 700}";
}
);
layerId = "B33A6296-7F33-4AA4-95A6-15EAB02AACC1";
paths = (
{
closed = 1;
nodes = (
"472 700 LINE",
"292 397 LINE",
"326 397 LINE",
"139 700 LINE",
"40 700 LINE",
"277 332 LINE",
"274 410 LINE",
"35 0 LINE",
"134 0 LINE",
"320 332 LINE",
"287 332 LINE",
"477 0 LINE",
"576 0 LINE",
"334 408 LINE",
"337 330 LINE",
"571 700 LINE"
);
}
);
width = 610;
},
{
associatedMasterId = "B33A6296-7F33-4AA4-95A6-15EAB02AACC1";
layerId = "06E459F7-D1D6-4DFE-9A23-BF3976750F72";
name = "1";
paths = (
{
closed = 1;
nodes = (
"567 700 LINE",
"473 700 LINE",
"297 406 LINE",
"266 364 LINE",
"43 0 LINE",
"137 0 LINE"
);
},
{
closed = 1;
nodes = (
"473 0 LINE",
"567 0 LINE",
"344 364 LINE",
"313 406 LINE",
"137 700 LINE",
"43 700 LINE",
"266 336 LINE",
"297 295 LINE"
);
}
);
width = 610;
},
{
associatedMasterId = "B33A6296-7F33-4AA4-95A6-15EAB02AACC1";
components = (
{
name = DotWideUppercase;
transform = "{1, 0, 0, 1, -175, 296}";
},
{
name = DotWideUppercase;
transform = "{1, 0, 0, 1, 218, -326}";
}
);
guideLines = (
{
angle = 270;
position = "{576, 700}";
}
);
layerId = "BBA50B24-D67D-4B9E-A4D7-B31311CE36AC";
name = "1/5";
paths = (
{
closed = 1;
nodes = (
"477 0 LINE",
"576 0 LINE",
"134 700 LINE",
"35 700 LINE"
);
},
{
closed = 1;
nodes = (
"477 700 LINE",
"35 0 LINE",
"134 0 LINE",
"576 700 LINE"
);
}
);
width = 610;
},
{
associatedMasterId = "B33A6296-7F33-4AA4-95A6-15EAB02AACC1";
guideLines = (
{
angle = 270;
position = "{576, 700}";
}
);
layerId = "141FA60F-AE98-4DB6-A70F-8FC1917D8AD7";
name = "2";
paths = (
{
closed = 1;
nodes = (
"472 700 LINE",
"290 397 LINE",
"326 397 LINE",
"139 700 LINE",
"40 700 LINE",
"277 332 LINE",
"276 410 LINE",
"35 0 LINE",
"134 0 LINE",
"322 332 LINE",
"287 332 LINE",
"477 0 LINE",
"576 0 LINE",
"334 408 LINE",
"335 330 LINE",
"571 700 LINE"
);
}
);
width = 610;
},
{
associatedMasterId = "B33A6296-7F33-4AA4-95A6-15EAB02AACC1";
guideLines = (
{
angle = 270;
position = "{576, 700}";
}
);
layerId = "D0483B24-04D8-4BD8-BC75-1D73D7E1F57C";
name = "3";
paths = (
{
closed = 1;
nodes = (
"472 700 LINE",
"293 394 LINE",
"326 397 LINE",
"139 700 LINE",
"40 700 LINE",
"277 332 LINE",
"273 413 LINE",
"35 0 LINE",
"134 0 LINE",
"319 335 LINE",
"287 332 LINE",
"477 0 LINE",
"576 0 LINE",
"334 408 LINE",
"338 327 LINE",
"571 700 LINE"
);
}
);
width = 610;
}
);
unicode = 0058;
},
{
glyphname = Y;
layers = (
{
anchors = (
{
name = bottom;
position = "{305, 0}";
},
{
name = top;
position = "{305, 800}";
},
{
name = topleft;
position = "{20, 700}";
}
);
layerId = "B33A6296-7F33-4AA4-95A6-15EAB02AACC1";
paths = (
{
closed = 1;
nodes = (
"282 307 LINE",
"330 306 LINE",
"131 700 LINE",
"36 700 LINE",
"263 284 LINE",
"263 0 LINE",
"348 0 LINE",
"348 284 LINE",
"575 700 LINE",
"480 700 LINE"
);
}
);
width = 610;
},
{
anchors = (
{
name = bottom;
position = "{305, 0}";
},
{
name = top;
position = "{305, 500}";
},
{
name = topleft;
position = "{20, 700}";
}
);
associatedMasterId = "B33A6296-7F33-4AA4-95A6-15EAB02AACC1";
layerId = "7BD67512-2E44-4E8D-A115-12483A4E785E";
name = "1";
paths = (
{
closed = 1;
nodes = (
"264 0 LINE",
"347 0 LINE",
"347 326 LINE",
"264 326 LINE"
);
},
{
closed = 1;
nodes = (
"483 700 LINE",
"264 292 LINE",
"347 284 LINE",
"575 700 LINE"
);
},
{
closed = 1;
nodes = (
"264 284 LINE",
"347 292 LINE",
"128 700 LINE",
"36 700 LINE"
);
}
);
width = 610;
},
{
anchors = (
{
name = bottom;
position = "{305, 0}";
},
{
name = top;
position = "{305, 500}";
},
{
name = topleft;
position = "{20, 700}";
}
);
associatedMasterId = "B33A6296-7F33-4AA4-95A6-15EAB02AACC1";
layerId = "D7EF432E-C9BD-4762-81B7-46E9D2073583";
name = "2";
paths = (
{
closed = 1;
nodes = (
"272 304 LINE",
"340 303 LINE",
"131 700 LINE",
"36 700 LINE",
"263 284 LINE",
"263 0 LINE",
"348 0 LINE",
"348 284 LINE",
"575 700 LINE",
"480 700 LINE"
);
}
);
width = 610;
},
{
anchors = (
{
name = bottom;
position = "{305, 0}";
},
{
name = top;
position = "{305, 500}";
},
{
name = topleft;
position = "{20, 700}";
}
);
associatedMasterId = "B33A6296-7F33-4AA4-95A6-15EAB02AACC1";
layerId = "4794C5DD-02CE-4BE3-8654-E2F9CA8F2C37";
name = "Regular Feb 25 17, 18:36";
paths = (
{
closed = 1;
nodes = (
"282 302 LINE",
"330 301 LINE",
"131 700 LINE",
"36 700 LINE",
"263 284 LINE",
"263 0 LINE",
"348 0 LINE",
"348 284 LINE",
"575 700 LINE",
"480 700 LINE"
);
}
);
width = 610;
}
);
unicode = 0059;
},
{
glyphname = Z;
layers = (
{
anchors = (
{
name = bottom;
position = "{305, 0}";
},
{
name = top;
position = "{305, 800}";
}
);
layerId = "B33A6296-7F33-4AA4-95A6-15EAB02AACC1";
paths = (
{
closed = 1;
nodes = (
"537 650 LINE",
"537 700 LINE",
"72 700 LINE",
"72 623 LINE",
"471 623 LINE",
"466 694 LINE",
"54 50 LINE",
"54 0 LINE",
"556 0 LINE",
"556 75 LINE",
"119 75 LINE",
"123 4 LINE"
);
}
);
width = 610;
},
{
anchors = (
{
name = bottom;
position = "{305, 0}";
},
{
name = top;
position = "{305, 500}";
}
);
associatedMasterId = "B33A6296-7F33-4AA4-95A6-15EAB02AACC1";
guideLines = (
{
position = "{14, 775}";
}
);
layerId = "4C2BA787-9705-4A05-B3D1-E4E50103DF85";
name = "Regular Feb 21 17, 22:46";
paths = (
{
closed = 1;
nodes = (
"538 650 LINE",
"538 700 LINE",
"62 700 LINE",
"62 623 LINE",
"472 623 LINE",
"452 661 LINE",
"54 50 LINE",
"54 0 LINE",
"556 0 LINE",
"556 75 LINE",
"119 75 LINE",
"139 37 LINE"
);
}
);
width = 610;
},
{
anchors = (
{
name = bottom;
position = "{305, 0}";
},
{
name = top;
position = "{305, 500}";
}
);
associatedMasterId = "B33A6296-7F33-4AA4-95A6-15EAB02AACC1";
components = (
{
name = DotWideUppercase;
transform = "{1, 0, 0, 1, 211, 296}";
},
{
name = DotWideUppercase;
transform = "{1, 0, 0, 1, -188, -327}";
}
);
guideLines = (
{
position = "{14, 775}";
}
);
layerId = "801B6737-FE0D-4CC3-B465-A3BD2AD86E82";
name = "Regular Feb 23 17, 23:41";
paths = (
{
closed = 1;
nodes = (
"538 650 LINE",
"538 700 LINE",
"62 700 LINE",
"62 623 LINE",
"472 623 LINE",
"474 694 LINE",
"54 50 LINE",
"54 0 LINE",
"556 0 LINE",
"556 75 LINE",
"119 75 LINE",
"116 4 LINE"
);
}
);
width = 610;
}
);
unicode = 005A;
},
{
color = 10;
glyphname = Iacute_J.locl;
layers = (
{
components = (
{
name = acute;
transform = "{1, 0, 0, 1, -133, 270}";
},
{
name = acute;
transform = "{1, 0, 0, 1, 173, 270}";
}
);
layerId = "B33A6296-7F33-4AA4-95A6-15EAB02AACC1";
paths = (
{
closed = 1;
nodes = (
"121 0 LINE",
"206 0 LINE",
"206 700 LINE",
"121 700 LINE"
);
},
{
closed = 1;
nodes = (
"310 -10 LINE",
"427 -10 OFFCURVE",
"517 45 OFFCURVE",
"517 251 CURVE SMOOTH",
"517 701 LINE",
"432 701 LINE",
"432 275 LINE SMOOTH",
"432 107 OFFCURVE",
"398 65 OFFCURVE",
"309 65 CURVE"
);
}
);
width = 610;
}
);
},
{
color = 10;
glyphname = L_periodcentered_L.loclCAT;
layers = (
{
layerId = "B33A6296-7F33-4AA4-95A6-15EAB02AACC1";
paths = (
{
closed = 1;
nodes = (
"236 310 LINE",
"319 310 LINE",
"319 393 LINE",
"236 393 LINE"
);
},
{
closed = 1;
nodes = (
"82 0 LINE",
"260 0 LINE",
"260 77 LINE",
"82 77 LINE"
);
},
{
closed = 1;
nodes = (
"82 0 LINE",
"165 0 LINE",
"165 699 LINE",
"82 700 LINE"
);
},
{
closed = 1;
nodes = (
"373 0 LINE",
"551 0 LINE",
"551 77 LINE",
"373 77 LINE"
);
},
{
closed = 1;
nodes = (
"373 0 LINE",
"456 0 LINE",
"456 699 LINE",
"373 700 LINE"
);
}
);
width = 610;
}
);
},
{
glyphname = a;
layers = (
{
anchors = (
{
name = bottom;
position = "{315, 0}";
},
{
name = ogonek;
position = "{383, 10}";
},
{
name = top;
position = "{295, 580}";
}
);
layerId = "B33A6296-7F33-4AA4-95A6-15EAB02AACC1";
paths = (
{
closed = 0;
nodes = (
"399 45 LINE"
);
},
{
closed = 1;
nodes = (
"427 0 LINE",
"550 0 LINE",
"550 74 LINE",
"427 74 LINE"
);
},
{
closed = 1;
nodes = (
"218 480 OFFCURVE",
"138 450 OFFCURVE",
"97 356 CURVE",
"167 320 LINE",
"188 372 OFFCURVE",
"226 405 OFFCURVE",
"293 405 CURVE SMOOTH",
"366 405 OFFCURVE",
"396 361 OFFCURVE",
"396 317 CURVE SMOOTH",
"396 263 LINE",
"396 59 LINE",
"427 0 LINE",
"479 0 LINE",
"479 273 LINE",
"479 313 LINE SMOOTH",
"479 414 OFFCURVE",
"405 480 OFFCURVE",
"295 480 CURVE SMOOTH"
);
},
{
closed = 1;
nodes = (
"164 251 OFFCURVE",
"443 150 OFFCURVE",
"443 304 CURVE",
"396 304 LINE",
"396 230 OFFCURVE",
"78 309 OFFCURVE",
"78 125 CURVE SMOOTH",
"78 39 OFFCURVE",
"146 -10 OFFCURVE",
"240 -10 CURVE SMOOTH",
"358 -10 OFFCURVE",
"427 52 OFFCURVE",
"427 171 CURVE",
"396 171 LINE",
"396 111 OFFCURVE",
"347 65 OFFCURVE",
"254 65 CURVE SMOOTH",
"191 65 OFFCURVE",
"164 96 OFFCURVE",
"164 134 CURVE SMOOTH"
);
}
);
width = 610;
},
{
anchors = (
{
name = bottom;
position = "{315, 0}";
},
{
name = ogonek;
position = "{439, 10}";
},
{
name = top;
position = "{295, 300}";
}
);
associatedMasterId = "B33A6296-7F33-4AA4-95A6-15EAB02AACC1";
background = {
anchors = (
{
name = bottom;
position = "{285, 500}";
},
{
name = ogonek;
position = "{213, 490}";
},
{
name = top;
position = "{302, 200}";
}
);
paths = (
{
closed = 1;
nodes = (
"492 282 LINE",
"100 282 LINE",
"100 207 LINE",
"492 207 LINE"
);
},
{
closed = 1;
nodes = (
"163 282 LINE",
"80 282 LINE",
"79 250 LINE",
"79 130 OFFCURVE",
"136 -10 OFFCURVE",
"300 -10 CURVE SMOOTH",
"468 -10 OFFCURVE",
"531 130 OFFCURVE",
"531 250 CURVE SMOOTH",
"531 372 OFFCURVE",
"458 510 OFFCURVE",
"300 510 CURVE SMOOTH",
"182 510 OFFCURVE",
"123 454 OFFCURVE",
"92 382 CURVE",
"162 346 LINE",
"182 404 OFFCURVE",
"221 435 OFFCURVE",
"300 435 CURVE SMOOTH",
"388 435 OFFCURVE",
"448 370 OFFCURVE",
"448 250 CURVE SMOOTH",
"448 130 OFFCURVE",
"397 65 OFFCURVE",
"300 65 CURVE SMOOTH",
"206 65 OFFCURVE",
"154 130 OFFCURVE",
"161 250 CURVE SMOOTH"
);
}
);
};
guideLines = (
{
position = "{48, 575}";
},
{
position = "{48, -75}";
}
);
layerId = "2D154A81-290E-4BAD-BB45-02995744F8BA";
name = "1";
paths = (
{
closed = 1;
nodes = (
"377 59 LINE",
"408 0 LINE",
"460 0 LINE",
"460 361 LINE",
"377 361 LINE"
);
},
{
closed = 1;
nodes = (
"377 181 LINE",
"377 131 OFFCURVE",
"363 65 OFFCURVE",
"253 65 CURVE SMOOTH",
"208 65 OFFCURVE",
"163 71 OFFCURVE",
"163 135 CURVE SMOOTH",
"163 234 OFFCURVE",
"460 195 OFFCURVE",
"460 361 CURVE SMOOTH",
"460 453 OFFCURVE",
"383 510 OFFCURVE",
"290 510 CURVE SMOOTH",
"215 510 OFFCURVE",
"155 478 OFFCURVE",
"106 416 CURVE",
"159 363 LINE",
"192 402 OFFCURVE",
"215 435 OFFCURVE",
"290 435 CURVE SMOOTH",
"342 435 OFFCURVE",
"377 409 OFFCURVE",
"377 365 CURVE SMOOTH",
"377 257 OFFCURVE",
"79 300 OFFCURVE",
"79 135 CURVE SMOOTH",
"79 41 OFFCURVE",
"139 -10 OFFCURVE",
"242 -10 CURVE SMOOTH",
"345 -10 OFFCURVE",
"408 52 OFFCURVE",
"408 181 CURVE"
);
},
{
closed = 0;
nodes = (
"380 45 LINE"
);
},
{
closed = 1;
nodes = (
"408 0 LINE",
"531 0 LINE",
"531 74 LINE",
"402 74 LINE"
);
}
);
width = 610;
},
{
anchors = (
{
name = bottom;
position = "{315, 0}";
},
{
name = ogonek;
position = "{439, 10}";
},
{
name = top;
position = "{295, 300}";
}
);
associatedMasterId = "B33A6296-7F33-4AA4-95A6-15EAB02AACC1";
background = {
anchors = (
{
name = bottom;
position = "{285, 500}";
},
{
name = ogonek;
position = "{213, 490}";
},
{
name = top;
position = "{302, 200}";
}
);
paths = (
{
closed = 1;
nodes = (
"462 -10 OFFCURVE",
"526 116 OFFCURVE",
"526 250 CURVE SMOOTH",
"526 384 OFFCURVE",
"462 510 OFFCURVE",
"305 510 CURVE SMOOTH",
"148 510 OFFCURVE",
"84 384 OFFCURVE",
"84 250 CURVE SMOOTH",
"84 116 OFFCURVE",
"148 -10 OFFCURVE",
"305 -10 CURVE SMOOTH"
);
},
{
closed = 1;
nodes = (
"215 65 OFFCURVE",
"167 130 OFFCURVE",
"167 250 CURVE SMOOTH",
"167 370 OFFCURVE",
"215 435 OFFCURVE",
"305 435 CURVE SMOOTH",
"395 435 OFFCURVE",
"443 370 OFFCURVE",
"443 250 CURVE SMOOTH",
"443 130 OFFCURVE",
"395 65 OFFCURVE",
"305 65 CURVE SMOOTH"
);
}
);
};
guideLines = (
{
position = "{48, 575}";
},
{
position = "{48, -75}";
}
);
layerId = "2F0DAAD8-9564-45F9-8CF9-2135FFE38D0D";
name = "2";
paths = (
{
closed = 1;
nodes = (
"387 59 LINE",
"418 0 LINE",
"470 0 LINE",
"470 361 LINE",
"387 361 LINE"
);
},
{
closed = 1;
nodes = (
"387 181 LINE",
"387 131 OFFCURVE",
"373 65 OFFCURVE",
"263 65 CURVE SMOOTH",
"218 65 OFFCURVE",
"173 71 OFFCURVE",
"173 135 CURVE SMOOTH",
"173 234 OFFCURVE",
"470 195 OFFCURVE",
"470 361 CURVE SMOOTH",
"470 453 OFFCURVE",
"393 510 OFFCURVE",
"300 510 CURVE SMOOTH",
"225 510 OFFCURVE",
"136 471 OFFCURVE",
"102 382 CURVE",
"172 346 LINE",
"192 397 OFFCURVE",
"225 435 OFFCURVE",
"300 435 CURVE SMOOTH",
"352 435 OFFCURVE",
"387 409 OFFCURVE",
"387 365 CURVE SMOOTH",
"387 257 OFFCURVE",
"89 300 OFFCURVE",
"89 135 CURVE SMOOTH",
"89 41 OFFCURVE",
"149 -10 OFFCURVE",
"252 -10 CURVE SMOOTH",
"355 -10 OFFCURVE",
"418 52 OFFCURVE",
"418 181 CURVE"
);
},
{
closed = 0;
nodes = (
"390 45 LINE"
);
},
{
closed = 1;
nodes = (
"418 0 LINE",
"541 0 LINE",
"541 74 LINE",
"412 74 LINE"
);
}
);
width = 610;
},
{
anchors = (
{
name = bottom;
position = "{315, 0}";
},
{
name = ogonek;
position = "{439, 10}";
},
{
name = top;
position = "{295, 300}";
}
);
associatedMasterId = "B33A6296-7F33-4AA4-95A6-15EAB02AACC1";
background = {
anchors = (
{
name = bottom;
position = "{285, 500}";
},
{
name = ogonek;
position = "{213, 490}";
},
{
name = top;
position = "{302, 200}";
}
);
components = (
{
name = e;
}
);
};
guideLines = (
{
position = "{48, 575}";
}
);
layerId = "926ED934-8379-4A90-85DA-2D96DB376573";
name = "3";
paths = (
{
closed = 0;
nodes = (
"390 45 LINE"
);
},
{
closed = 1;
nodes = (
"418 0 LINE",
"541 0 LINE",
"541 74 LINE",
"412 74 LINE"
);
},
{
closed = 1;
nodes = (
"225 510 OFFCURVE",
"142 471 OFFCURVE",
"108 382 CURVE",
"178 346 LINE",
"198 397 OFFCURVE",
"225 435 OFFCURVE",
"300 435 CURVE SMOOTH",
"352 435 OFFCURVE",
"387 409 OFFCURVE",
"387 356 CURVE SMOOTH",
"387 328 LINE",
"387 59 LINE",
"418 0 LINE",
"470 0 LINE",
"470 328 LINE",
"470 352 LINE SMOOTH",
"470 453 OFFCURVE",
"402 510 OFFCURVE",
"300 510 CURVE SMOOTH"
);
},
{
closed = 1;
nodes = (
"425 218 LINE",
"425 293 LINE",
"285 293 LINE SMOOTH",
"163 293 OFFCURVE",
"92 241 OFFCURVE",
"92 144 CURVE SMOOTH",
"92 50 OFFCURVE",
"171 -10 OFFCURVE",
"254 -10 CURVE SMOOTH",
"357 -10 OFFCURVE",
"418 52 OFFCURVE",
"418 181 CURVE",
"387 181 LINE",
"387 131 OFFCURVE",
"375 65 OFFCURVE",
"265 65 CURVE SMOOTH",
"230 65 OFFCURVE",
"174 81 OFFCURVE",
"174 144 CURVE",
"174 220 OFFCURVE",
"241 218 OFFCURVE",
"305 218 CURVE SMOOTH"
);
}
);
width = 610;
},
{
anchors = (
{
name = bottom;
position = "{315, 0}";
},
{
name = ogonek;
position = "{439, 10}";
},
{
name = top;
position = "{295, 300}";
}
);
associatedMasterId = "B33A6296-7F33-4AA4-95A6-15EAB02AACC1";
background = {
anchors = (
{
name = bottom;
position = "{285, 500}";
},
{
name = ogonek;
position = "{213, 490}";
},
{
name = top;
position = "{302, 200}";
}
);
components = (
{
name = e;
}
);
};
guideLines = (
{
position = "{48, 575}";
}
);
layerId = "69925569-196E-46DA-B7E1-317768EABA02";
name = "4";
paths = (
{
closed = 0;
nodes = (
"390 45 LINE"
);
},
{
closed = 1;
nodes = (
"418 0 LINE",
"541 0 LINE",
"541 74 LINE",
"412 74 LINE"
);
},
{
closed = 1;
nodes = (
"225 510 OFFCURVE",
"142 471 OFFCURVE",
"108 382 CURVE",
"178 346 LINE",
"198 397 OFFCURVE",
"225 435 OFFCURVE",
"300 435 CURVE SMOOTH",
"352 435 OFFCURVE",
"387 400 OFFCURVE",
"387 347 CURVE SMOOTH",
"387 283 LINE",
"387 59 LINE",
"418 0 LINE",
"470 0 LINE",
"470 293 LINE",
"470 343 LINE SMOOTH",
"470 444 OFFCURVE",
"402 510 OFFCURVE",
"300 510 CURVE SMOOTH"
);
},
{
closed = 1;
nodes = (
"425 208 LINE",
"425 283 LINE",
"285 283 LINE SMOOTH",
"162 283 OFFCURVE",
"92 237 OFFCURVE",
"92 144 CURVE SMOOTH",
"92 50 OFFCURVE",
"171 -10 OFFCURVE",
"254 -10 CURVE SMOOTH",
"357 -10 OFFCURVE",
"418 52 OFFCURVE",
"418 181 CURVE",
"387 181 LINE",
"387 131 OFFCURVE",
"375 65 OFFCURVE",
"265 65 CURVE SMOOTH",
"230 65 OFFCURVE",
"174 81 OFFCURVE",
"174 144 CURVE",
"174 194 OFFCURVE",
"214 208 OFFCURVE",
"266 208 CURVE SMOOTH"
);
}
);
width = 610;
},
{
anchors = (
{
name = bottom;
position = "{315, 0}";
},
{
name = ogonek;
position = "{439, 10}";
},
{
name = top;
position = "{295, 300}";
}
);
associatedMasterId = "B33A6296-7F33-4AA4-95A6-15EAB02AACC1";
background = {
anchors = (
{
name = bottom;
position = "{285, 500}";
},
{
name = ogonek;
position = "{213, 490}";
},
{
name = top;
position = "{302, 200}";
}
);
components = (
{
name = e;
transform = "{-1, 0, 0, -1, 618, 500}";
}
);
};
guideLines = (
{
position = "{48, 575}";
}
);
layerId = "CD426D9D-8CD5-4771-B017-9966896A7548";
name = "5";
paths = (
{
closed = 0;
nodes = (
"400 45 LINE"
);
},
{
closed = 1;
nodes = (
"428 0 LINE",
"551 0 LINE",
"551 74 LINE",
"422 74 LINE"
);
},
{
closed = 1;
nodes = (
"235 510 OFFCURVE",
"152 471 OFFCURVE",
"118 382 CURVE",
"188 346 LINE",
"208 397 OFFCURVE",
"235 435 OFFCURVE",
"310 435 CURVE SMOOTH",
"362 435 OFFCURVE",
"397 400 OFFCURVE",
"397 347 CURVE SMOOTH",
"397 283 LINE",
"397 59 LINE",
"428 0 LINE",
"480 0 LINE",
"480 293 LINE",
"480 343 LINE SMOOTH",
"480 444 OFFCURVE",
"412 510 OFFCURVE",
"310 510 CURVE SMOOTH"
);
},
{
closed = 1;
nodes = (
"435 208 LINE",
"435 283 LINE",
"295 283 LINE SMOOTH",
"161 283 OFFCURVE",
"91 237 OFFCURVE",
"91 144 CURVE SMOOTH",
"91 50 OFFCURVE",
"160 -10 OFFCURVE",
"254 -10 CURVE SMOOTH",
"357 -10 OFFCURVE",
"428 52 OFFCURVE",
"428 181 CURVE",
"397 181 LINE",
"397 131 OFFCURVE",
"385 65 OFFCURVE",
"275 65 CURVE SMOOTH",
"229 65 OFFCURVE",
"173 81 OFFCURVE",
"173 144 CURVE",
"173 194 OFFCURVE",
"213 208 OFFCURVE",
"276 208 CURVE SMOOTH"
);
}
);
width = 610;
},
{
anchors = (
{
name = bottom;
position = "{315, 0}";
},
{
name = ogonek;
position = "{439, 10}";
},
{
name = top;
position = "{295, 300}";
}
);
associatedMasterId = "B33A6296-7F33-4AA4-95A6-15EAB02AACC1";
background = {
anchors = (
{
name = bottom;
position = "{285, 500}";
},
{
name = ogonek;
position = "{213, 490}";
},
{
name = top;
position = "{302, 200}";
}
);
components = (
{
name = e;
transform = "{-1, 0, 0, -1, 618, 500}";
}
);
};
guideLines = (
{
position = "{48, 575}";
}
);
layerId = "8C2519AB-222B-4584-9231-917A0E9D0DEB";
name = "6";
paths = (
{
closed = 0;
nodes = (
"400 45 LINE"
);
},
{
closed = 1;
nodes = (
"428 0 LINE",
"551 0 LINE",
"551 74 LINE",
"422 74 LINE"
);
},
{
closed = 1;
nodes = (
"217 510 OFFCURVE",
"143 479 OFFCURVE",
"102 382 CURVE",
"172 346 LINE",
"196 407 OFFCURVE",
"230 435 OFFCURVE",
"302 435 CURVE SMOOTH",
"354 435 OFFCURVE",
"397 400 OFFCURVE",
"397 347 CURVE SMOOTH",
"397 283 LINE",
"397 59 LINE",
"428 0 LINE",
"480 0 LINE",
"480 293 LINE",
"480 343 LINE SMOOTH",
"480 444 OFFCURVE",
"404 510 OFFCURVE",
"302 510 CURVE SMOOTH"
);
},
{
closed = 1;
nodes = (
"173 261 OFFCURVE",
"444 161 OFFCURVE",
"444 344 CURVE",
"397 344 LINE",
"397 235 OFFCURVE",
"91 336 OFFCURVE",
"91 129 CURVE SMOOTH",
"91 40 OFFCURVE",
"160 -10 OFFCURVE",
"254 -10 CURVE SMOOTH",
"357 -10 OFFCURVE",
"428 52 OFFCURVE",
"428 181 CURVE",
"397 181 LINE",
"397 131 OFFCURVE",
"385 65 OFFCURVE",
"275 65 CURVE SMOOTH",
"229 65 OFFCURVE",
"173 70 OFFCURVE",
"173 129 CURVE"
);
}
);
width = 610;
},
{
anchors = (
{
name = bottom;
position = "{315, 0}";
},
{
name = ogonek;
position = "{439, 10}";
},
{
name = top;
position = "{295, 300}";
}
);
associatedMasterId = "B33A6296-7F33-4AA4-95A6-15EAB02AACC1";
background = {
anchors = (
{
name = bottom;
position = "{285, 500}";
},
{
name = ogonek;
position = "{213, 490}";
},
{
name = top;
position = "{302, 200}";
}
);
components = (
{
name = e;
transform = "{-1, 0, 0, -1, 605, 500}";
}
);
};
layerId = "2747861B-1FBA-4AF8-BC29-BD638D39E761";
name = "7";
paths = (
{
closed = 0;
nodes = (
"384 45 LINE"
);
},
{
closed = 1;
nodes = (
"412 0 LINE",
"535 0 LINE",
"535 74 LINE",
"412 74 LINE"
);
},
{
closed = 1;
nodes = (
"201 510 OFFCURVE",
"127 479 OFFCURVE",
"86 382 CURVE",
"156 346 LINE",
"180 407 OFFCURVE",
"214 435 OFFCURVE",
"286 435 CURVE SMOOTH",
"338 435 OFFCURVE",
"381 400 OFFCURVE",
"381 347 CURVE SMOOTH",
"381 283 LINE",
"381 59 LINE",
"412 0 LINE",
"464 0 LINE",
"464 293 LINE",
"464 343 LINE SMOOTH",
"464 444 OFFCURVE",
"388 510 OFFCURVE",
"286 510 CURVE SMOOTH"
);
},
{
closed = 1;
nodes = (
"157 263 OFFCURVE",
"428 168 OFFCURVE",
"428 344 CURVE",
"381 344 LINE",
"381 235 OFFCURVE",
"75 338 OFFCURVE",
"75 131 CURVE SMOOTH",
"75 42 OFFCURVE",
"144 -10 OFFCURVE",
"238 -10 CURVE SMOOTH",
"341 -10 OFFCURVE",
"412 52 OFFCURVE",
"412 181 CURVE",
"381 181 LINE",
"381 131 OFFCURVE",
"369 65 OFFCURVE",
"259 65 CURVE SMOOTH",
"213 65 OFFCURVE",
"157 72 OFFCURVE",
"157 131 CURVE"
);
}
);
width = 610;
},
{
anchors = (
{
name = bottom;
position = "{315, 0}";
},
{
name = ogonek;
position = "{439, 10}";
},
{
name = top;
position = "{295, 300}";
}
);
associatedMasterId = "B33A6296-7F33-4AA4-95A6-15EAB02AACC1";
background = {
anchors = (
{
name = bottom;
position = "{285, 500}";
},
{
name = ogonek;
position = "{213, 490}";
},
{
name = top;
position = "{302, 200}";
}
);
components = (
{
name = e;
transform = "{-1, 0, 0, -1, 605, 500}";
}
);
};
layerId = "34C516F6-9F97-48F4-B4EC-A27C07D6C23B";
name = "8";
paths = (
{
closed = 0;
nodes = (
"390 45 LINE"
);
},
{
closed = 1;
nodes = (
"418 0 LINE",
"541 0 LINE",
"541 74 LINE",
"418 74 LINE"
);
},
{
closed = 1;
nodes = (
"207 510 OFFCURVE",
"133 479 OFFCURVE",
"92 382 CURVE",
"162 346 LINE",
"186 407 OFFCURVE",
"220 435 OFFCURVE",
"292 435 CURVE SMOOTH",
"344 435 OFFCURVE",
"387 400 OFFCURVE",
"387 347 CURVE SMOOTH",
"387 283 LINE",
"387 59 LINE",
"418 0 LINE",
"470 0 LINE",
"470 293 LINE",
"470 343 LINE SMOOTH",
"470 444 OFFCURVE",
"394 510 OFFCURVE",
"292 510 CURVE SMOOTH"
);
},
{
closed = 1;
nodes = (
"152 263 OFFCURVE",
"434 168 OFFCURVE",
"434 344 CURVE",
"387 344 LINE",
"387 235 OFFCURVE",
"69 338 OFFCURVE",
"69 131 CURVE SMOOTH",
"69 42 OFFCURVE",
"145 -10 OFFCURVE",
"244 -10 CURVE SMOOTH",
"347 -10 OFFCURVE",
"418 52 OFFCURVE",
"418 181 CURVE",
"387 181 LINE",
"387 131 OFFCURVE",
"375 65 OFFCURVE",
"265 65 CURVE SMOOTH",
"217 65 OFFCURVE",
"152 72 OFFCURVE",
"152 131 CURVE"
);
}
);
width = 610;
},
{
anchors = (
{
name = bottom;
position = "{315, 0}";
},
{
name = ogonek;
position = "{383, 10}";
},
{
name = top;
position = "{295, 580}";
}
);
associatedMasterId = "B33A6296-7F33-4AA4-95A6-15EAB02AACC1";
layerId = "8D287C91-7065-435D-99C7-F62002562A46";
name = "9";
paths = (
{
closed = 0;
nodes = (
"399 45 LINE"
);
},
{
closed = 1;
nodes = (
"427 0 LINE",
"550 0 LINE",
"550 74 LINE",
"427 74 LINE"
);
},
{
closed = 1;
nodes = (
"216 480 OFFCURVE",
"142 449 OFFCURVE",
"101 352 CURVE",
"171 316 LINE",
"195 377 OFFCURVE",
"229 405 OFFCURVE",
"301 405 CURVE SMOOTH",
"353 405 OFFCURVE",
"396 370 OFFCURVE",
"396 317 CURVE SMOOTH",
"396 263 LINE",
"396 59 LINE",
"427 0 LINE",
"479 0 LINE",
"479 273 LINE",
"479 313 LINE SMOOTH",
"479 414 OFFCURVE",
"403 480 OFFCURVE",
"301 480 CURVE SMOOTH"
);
},
{
closed = 1;
nodes = (
"161 263 OFFCURVE",
"443 148 OFFCURVE",
"443 314 CURVE",
"396 314 LINE",
"396 205 OFFCURVE",
"78 338 OFFCURVE",
"78 131 CURVE SMOOTH",
"78 42 OFFCURVE",
"145 -10 OFFCURVE",
"253 -10 CURVE SMOOTH",
"356 -10 OFFCURVE",
"427 52 OFFCURVE",
"427 171 CURVE",
"396 171 LINE",
"396 131 OFFCURVE",
"363 65 OFFCURVE",
"253 65 CURVE SMOOTH",
"213 65 OFFCURVE",
"161 72 OFFCURVE",
"161 131 CURVE"
);
}
);
width = 610;
}
);
unicode = 0061;
},
{
glyphname = ae;
layers = (
{
anchors = (
{
name = bottom;
position = "{285, 0}";
},
{
name = ogonek;
position = "{353, 10}";
},
{
name = top;
position = "{310, 580}";
}
);
background = {
paths = (
{
closed = 1;
nodes = (
"131 247 OFFCURVE",
"317 162 OFFCURVE",
"317 324 CURVE",
"270 324 LINE",
"270 222 OFFCURVE",
"48 315 OFFCURVE",
"48 138 CURVE SMOOTH",
"48 40 OFFCURVE",
"115 -10 OFFCURVE",
"221 -10 CURVE SMOOTH",
"258 -10 OFFCURVE",
"285 -4 OFFCURVE",
"310 8 CURVE",
"311 85 LINE",
"290 73 OFFCURVE",
"261 65 OFFCURVE",
"223 65 CURVE SMOOTH",
"183 65 OFFCURVE",
"131 72 OFFCURVE",
"131 131 CURVE"
);
},
{
closed = 1;
nodes = (
"270 -10 LINE",
"353 -10 LINE",
"353 416 LINE",
"270 416 LINE"
);
},
{
closed = 1;
nodes = (
"328 214 LINE",
"550 213 LINE",
"530 286 LINE",
"328 287 LINE"
);
},
{
closed = 1;
nodes = (
"330 -10 LINE",
"451 -10 OFFCURVE",
"507 46 OFFCURVE",
"538 118 CURVE",
"468 154 LINE",
"447 93 OFFCURVE",
"410 65 OFFCURVE",
"330 65 CURVE"
);
},
{
closed = 1;
nodes = (
"187 480 OFFCURVE",
"117 450 OFFCURVE",
"71 352 CURVE",
"141 316 LINE",
"182 384 OFFCURVE",
"200 405 OFFCURVE",
"286 405 CURVE SMOOTH",
"474 405 OFFCURVE",
"466 305 OFFCURVE",
"462 235 CURVE SMOOTH",
"461 218 LINE",
"550 213 LINE",
"551 235 LINE SMOOTH",
"558 383 OFFCURVE",
"476 480 OFFCURVE",
"290 480 CURVE SMOOTH"
);
}
);
};
layerId = "B33A6296-7F33-4AA4-95A6-15EAB02AACC1";
paths = (
{
closed = 1;
nodes = (
"341 416 LINE",
"341 29 LINE",
"258 29 LINE",
"258 416 LINE"
);
},
{
closed = 1;
nodes = (
"530 286 LINE",
"550 213 LINE",
"328 214 LINE",
"328 287 LINE"
);
},
{
closed = 1;
nodes = (
"470 484 OFFCURVE",
"558 386 OFFCURVE",
"551 235 CURVE SMOOTH",
"550 213 LINE",
"461 218 LINE",
"462 235 LINE SMOOTH",
"466 295 OFFCURVE",
"472 408 OFFCURVE",
"288 404 CURVE SMOOTH",
"198 402 OFFCURVE",
"171 376 OFFCURVE",
"135 316 CURVE",
"65 352 LINE",
"105 440 OFFCURVE",
"179 476 OFFCURVE",
"288 479 CURVE SMOOTH"
);
},
{
closed = 1;
nodes = (
"538 118 LINE",
"507 46 OFFCURVE",
"454 -10 OFFCURVE",
"278 -10 CURVE SMOOTH",
"125 -10 OFFCURVE",
"48 32 OFFCURVE",
"48 134 CURVE SMOOTH",
"48 303 OFFCURVE",
"258 223 OFFCURVE",
"258 327 CURVE",
"300 327 LINE",
"300 166 OFFCURVE",
"131 237 OFFCURVE",
"131 134 CURVE SMOOTH",
"131 68 OFFCURVE",
"201 63 OFFCURVE",
"276 65 CURVE SMOOTH",
"427 68 OFFCURVE",
"443 91 OFFCURVE",
"468 154 CURVE"
);
}
);
width = 610;
},
{
associatedMasterId = "B33A6296-7F33-4AA4-95A6-15EAB02AACC1";
layerId = "A2D0BA10-7D34-4AF1-BCD2-0BFFF89CF05F";
name = "Regular Mar 1 17, 23:17";
paths = (
{
closed = 1;
nodes = (
"547 396 OFFCURVE",
"478 510 OFFCURVE",
"310 510 CURVE SMOOTH",
"228 510 OFFCURVE",
"148 507 OFFCURVE",
"73 415 CURVE",
"131 363 LINE",
"163 401 OFFCURVE",
"198 434 OFFCURVE",
"270 434 CURVE",
"270 290 LINE",
"183 259 OFFCURVE",
"64 239 OFFCURVE",
"64 135 CURVE SMOOTH",
"64 41 OFFCURVE",
"123 -10 OFFCURVE",
"226 -10 CURVE",
"304 -10 LINE SMOOTH",
"445 -10 OFFCURVE",
"496 39 OFFCURVE",
"538 118 CURVE",
"466 154 LINE",
"451 109 OFFCURVE",
"406 66 OFFCURVE",
"352 66 CURVE",
"352 218 LINE",
"547 218 LINE",
"547 250 LINE SMOOTH"
);
},
{
closed = 1;
nodes = (
"352 434 LINE",
"412 434 OFFCURVE",
"460 365 OFFCURVE",
"463 293 CURVE",
"352 293 LINE"
);
},
{
closed = 1;
nodes = (
"237 66 LINE",
"192 65 OFFCURVE",
"146 73 OFFCURVE",
"146 135 CURVE SMOOTH",
"146 179 OFFCURVE",
"205 196 OFFCURVE",
"270 217 CURVE",
"270 66 LINE"
);
}
);
width = 610;
},
{
associatedMasterId = "B33A6296-7F33-4AA4-95A6-15EAB02AACC1";
background = {
components = (
{
name = a;
transform = "{1, 0, 0, 1, -20, 0}";
}
);
};
layerId = "87F9AC78-46CC-4D7F-8BB0-E093E2ABE27F";
name = "Oct 9 17, 23:22";
paths = (
{
closed = 1;
nodes = (
"547 396 OFFCURVE",
"478 510 OFFCURVE",
"300 510 CURVE SMOOTH",
"212 510 OFFCURVE",
"129 505 OFFCURVE",
"72 382 CURVE",
"142 346 LINE",
"164 404 OFFCURVE",
"198 435 OFFCURVE",
"270 435 CURVE",
"270 290 LINE",
"270 -10 LINE",
"304 -10 LINE SMOOTH",
"445 -10 OFFCURVE",
"496 39 OFFCURVE",
"538 118 CURVE",
"466 154 LINE",
"451 109 OFFCURVE",
"406 66 OFFCURVE",
"352 66 CURVE",
"352 218 LINE",
"547 218 LINE",
"547 250 LINE SMOOTH"
);
},
{
closed = 1;
nodes = (
"352 434 LINE",
"412 434 OFFCURVE",
"460 365 OFFCURVE",
"463 293 CURVE",
"352 293 LINE"
);
},
{
closed = 1;
nodes = (
"132 243 OFFCURVE",
"318 168 OFFCURVE",
"318 344 CURVE",
"271 344 LINE",
"271 235 OFFCURVE",
"49 318 OFFCURVE",
"49 131 CURVE SMOOTH",
"49 42 OFFCURVE",
"116 -10 OFFCURVE",
"224 -10 CURVE SMOOTH",
"327 -10 OFFCURVE",
"398 52 OFFCURVE",
"398 181 CURVE",
"367 181 LINE",
"367 131 OFFCURVE",
"334 65 OFFCURVE",
"224 65 CURVE SMOOTH",
"184 65 OFFCURVE",
"132 72 OFFCURVE",
"132 131 CURVE"
);
}
);
width = 610;
},
{
associatedMasterId = "B33A6296-7F33-4AA4-95A6-15EAB02AACC1";
background = {
components = (
{
name = a;
transform = "{1, 0, 0, 1, -20, 0}";
}
);
};
layerId = "C196F2A2-807F-49DB-809A-B2A39EDCD6C0";
name = "Nov 13 17, 21:51";
paths = (
{
closed = 1;
nodes = (
"547 396 OFFCURVE",
"478 510 OFFCURVE",
"300 510 CURVE SMOOTH",
"212 510 OFFCURVE",
"129 505 OFFCURVE",
"72 382 CURVE",
"142 346 LINE",
"164 404 OFFCURVE",
"198 435 OFFCURVE",
"270 435 CURVE",
"270 290 LINE",
"270 -10 LINE",
"304 -10 LINE SMOOTH",
"445 -10 OFFCURVE",
"496 39 OFFCURVE",
"538 118 CURVE",
"466 154 LINE",
"451 109 OFFCURVE",
"406 66 OFFCURVE",
"352 66 CURVE",
"352 218 LINE",
"547 218 LINE",
"547 250 LINE SMOOTH"
);
},
{
closed = 1;
nodes = (
"352 434 LINE",
"412 434 OFFCURVE",
"460 365 OFFCURVE",
"463 293 CURVE",
"352 293 LINE"
);
},
{
closed = 1;
nodes = (
"132 243 OFFCURVE",
"318 168 OFFCURVE",
"318 344 CURVE",
"271 344 LINE",
"271 235 OFFCURVE",
"49 318 OFFCURVE",
"49 131 CURVE SMOOTH",
"49 42 OFFCURVE",
"116 -10 OFFCURVE",
"224 -10 CURVE SMOOTH",
"327 -10 OFFCURVE",
"398 52 OFFCURVE",
"398 181 CURVE",
"367 181 LINE",
"367 131 OFFCURVE",
"334 65 OFFCURVE",
"224 65 CURVE SMOOTH",
"184 65 OFFCURVE",
"132 72 OFFCURVE",
"132 131 CURVE"
);
}
);
width = 610;
},
{
associatedMasterId = "B33A6296-7F33-4AA4-95A6-15EAB02AACC1";
background = {
components = (
{
name = a;
transform = "{1, 0, 0, 1, -20, 0}";
}
);
};
layerId = "7F46D943-16F7-4B6B-9414-F7A282072C25";
name = "Nov 13 17, 21:51";
paths = (
{
closed = 1;
nodes = (
"547 396 OFFCURVE",
"478 510 OFFCURVE",
"300 510 CURVE SMOOTH",
"212 510 OFFCURVE",
"129 505 OFFCURVE",
"72 382 CURVE",
"142 346 LINE",
"164 404 OFFCURVE",
"198 435 OFFCURVE",
"270 435 CURVE",
"270 290 LINE",
"270 38 LINE",
"224 -10 LINE",
"304 -10 LINE SMOOTH",
"443 -10 OFFCURVE",
"496 39 OFFCURVE",
"538 118 CURVE",
"466 154 LINE",
"451 109 OFFCURVE",
"406 66 OFFCURVE",
"352 66 CURVE",
"352 218 LINE",
"547 218 LINE",
"547 250 LINE SMOOTH"
);
},
{
closed = 1;
nodes = (
"352 434 LINE",
"412 434 OFFCURVE",
"460 365 OFFCURVE",
"463 293 CURVE",
"352 293 LINE"
);
},
{
closed = 1;
nodes = (
"132 243 OFFCURVE",
"318 168 OFFCURVE",
"318 344 CURVE",
"271 344 LINE",
"271 235 OFFCURVE",
"49 318 OFFCURVE",
"49 131 CURVE SMOOTH",
"49 42 OFFCURVE",
"116 -10 OFFCURVE",
"224 -10 CURVE SMOOTH",
"327 -10 OFFCURVE",
"335 31 OFFCURVE",
"335 65 CURVE",
"324 65 OFFCURVE",
"291 65 OFFCURVE",
"224 65 CURVE SMOOTH",
"184 65 OFFCURVE",
"132 72 OFFCURVE",
"132 131 CURVE"
);
}
);
width = 610;
},
{
anchors = (
{
name = bottom;
position = "{285, 0}";
},
{
name = ogonek;
position = "{353, 10}";
},
{
name = top;
position = "{310, 580}";
}
);
associatedMasterId = "B33A6296-7F33-4AA4-95A6-15EAB02AACC1";
background = {
components = (
{
name = s;
transform = "{1, 0, 0, -1, -28, 470}";
}
);
};
layerId = "FA201AC5-CBEA-4B6C-885A-CF5CDF7562D7";
name = "Dec 5 17, 22:56";
paths = (
{
closed = 1;
nodes = (
"131 247 OFFCURVE",
"317 162 OFFCURVE",
"317 324 CURVE",
"270 324 LINE",
"270 222 OFFCURVE",
"48 315 OFFCURVE",
"48 138 CURVE SMOOTH",
"48 40 OFFCURVE",
"115 -10 OFFCURVE",
"221 -10 CURVE SMOOTH",
"258 -10 OFFCURVE",
"285 -4 OFFCURVE",
"310 8 CURVE",
"311 85 LINE",
"290 73 OFFCURVE",
"261 65 OFFCURVE",
"223 65 CURVE SMOOTH",
"183 65 OFFCURVE",
"131 72 OFFCURVE",
"131 131 CURVE"
);
},
{
closed = 1;
nodes = (
"270 -10 LINE",
"353 -10 LINE",
"353 416 LINE",
"270 416 LINE"
);
},
{
closed = 1;
nodes = (
"328 214 LINE",
"550 213 LINE",
"530 286 LINE",
"328 287 LINE"
);
},
{
closed = 1;
nodes = (
"330 -10 LINE",
"451 -10 OFFCURVE",
"507 46 OFFCURVE",
"538 118 CURVE",
"468 154 LINE",
"447 93 OFFCURVE",
"410 65 OFFCURVE",
"330 65 CURVE"
);
},
{
closed = 1;
nodes = (
"187 480 OFFCURVE",
"117 450 OFFCURVE",
"71 352 CURVE",
"141 316 LINE",
"182 384 OFFCURVE",
"200 405 OFFCURVE",
"286 405 CURVE SMOOTH",
"474 405 OFFCURVE",
"466 305 OFFCURVE",
"462 235 CURVE SMOOTH",
"461 218 LINE",
"550 213 LINE",
"551 235 LINE SMOOTH",
"558 383 OFFCURVE",
"476 480 OFFCURVE",
"290 480 CURVE SMOOTH"
);
}
);
width = 610;
}
);
unicode = 00E6;
},
{
glyphname = b;
layers = (
{
components = (
{
alignment = -1;
name = "b-bowl";
},
{
alignment = -1;
name = "b-stem";
}
);
layerId = "B33A6296-7F33-4AA4-95A6-15EAB02AACC1";
width = 610;
},
{
associatedMasterId = "B33A6296-7F33-4AA4-95A6-15EAB02AACC1";
background = {
components = (
{
name = h;
transform = "{1, 0, 0, 1, -32, 0}";
}
);
};
layerId = "CCA4C671-DF4F-40EB-B3A1-21BAF93AF4CD";
name = "1";
paths = (
{
closed = 1;
nodes = (
"133 0 LINE",
"170 59 LINE",
"134 250 LINE",
"162 394 LINE",
"165 700 LINE",
"82 700 LINE",
"82 0 LINE"
);
},
{
closed = 1;
nodes = (
"157 510 OFFCURVE",
"113 370 OFFCURVE",
"113 250 CURVE SMOOTH",
"113 130 OFFCURVE",
"156 -10 OFFCURVE",
"307 -10 CURVE SMOOTH",
"469 -10 OFFCURVE",
"528 126 OFFCURVE",
"528 250 CURVE SMOOTH",
"528 374 OFFCURVE",
"469 510 OFFCURVE",
"307 510 CURVE SMOOTH"
);
},
{
closed = 1;
nodes = (
"393 435 OFFCURVE",
"445 374 OFFCURVE",
"445 250 CURVE SMOOTH",
"445 126 OFFCURVE",
"393 65 OFFCURVE",
"307 65 CURVE SMOOTH",
"217 65 OFFCURVE",
"154 130 OFFCURVE",
"154 250 CURVE SMOOTH",
"154 370 OFFCURVE",
"217 435 OFFCURVE",
"307 435 CURVE SMOOTH"
);
}
);
width = 610;
},
{
associatedMasterId = "B33A6296-7F33-4AA4-95A6-15EAB02AACC1";
layerId = "CF70DD0F-E1F0-490F-81C9-5EDC72684ABA";
name = "2";
paths = (
{
closed = 1;
nodes = (
"133 0 LINE",
"170 59 LINE",
"134 250 LINE",
"162 374 LINE",
"165 700 LINE",
"82 700 LINE",
"82 0 LINE"
);
},
{
closed = 1;
nodes = (
"157 480 OFFCURVE",
"113 340 OFFCURVE",
"113 240 CURVE SMOOTH",
"113 130 OFFCURVE",
"156 -10 OFFCURVE",
"307 -10 CURVE SMOOTH",
"469 -10 OFFCURVE",
"528 124 OFFCURVE",
"528 235 CURVE SMOOTH",
"528 346 OFFCURVE",
"469 480 OFFCURVE",
"307 480 CURVE SMOOTH"
);
},
{
closed = 1;
nodes = (
"393 405 OFFCURVE",
"445 339 OFFCURVE",
"445 235 CURVE SMOOTH",
"445 131 OFFCURVE",
"393 65 OFFCURVE",
"307 65 CURVE SMOOTH",
"217 65 OFFCURVE",
"154 130 OFFCURVE",
"154 240 CURVE SMOOTH",
"154 340 OFFCURVE",
"217 405 OFFCURVE",
"307 405 CURVE SMOOTH"
);
}
);
width = 610;
}
);
unicode = 0062;
},
{
glyphname = c;
layers = (
{
anchors = (
{
name = bottom;
position = "{321, 0}";
},
{
name = ogonek;
position = "{397, 10}";
},
{
name = top;
position = "{310, 300}";
}
);
associatedMasterId = "B33A6296-7F33-4AA4-95A6-15EAB02AACC1";
background = {
components = (
{
name = o;
},
{
name = a;
transform = "{-1, 0, 0, 1, 583, 0}";
}
);
};
guideLines = (
{
position = "{310, 575}";
},
{
position = "{48, -75}";
}
);
layerId = "94A0F385-ECB1-44E8-BFE7-1994066AB4E9";
name = "3";
paths = (
{
closed = 1;
nodes = (
"228 65 OFFCURVE",
"177 126 OFFCURVE",
"177 250 CURVE SMOOTH",
"177 374 OFFCURVE",
"228 435 OFFCURVE",
"316 435 CURVE SMOOTH",
"388 435 OFFCURVE",
"422 396 OFFCURVE",
"443 338 CURVE",
"515 374 LINE",
"485 446 OFFCURVE",
"432 510 OFFCURVE",
"316 510 CURVE SMOOTH",
"158 510 OFFCURVE",
"95 387 OFFCURVE",
"95 250 CURVE SMOOTH",
"95 113 OFFCURVE",
"158 -10 OFFCURVE",
"316 -10 CURVE SMOOTH",
"432 -10 OFFCURVE",
"484 54 OFFCURVE",
"515 126 CURVE",
"443 162 LINE",
"422 104 OFFCURVE",
"388 65 OFFCURVE",
"316 65 CURVE SMOOTH"
);
}
);
width = 610;
},
{
anchors = (
{
name = bottom;
position = "{321, 0}";
},
{
name = ogonek;
position = "{397, 10}";
},
{
name = top;
position = "{310, 580}";
}
);
guideLines = (
{
position = "{48, -75}";
}
);
layerId = "B33A6296-7F33-4AA4-95A6-15EAB02AACC1";
paths = (
{
closed = 1;
nodes = (
"233 65 OFFCURVE",
"173 131 OFFCURVE",
"173 235 CURVE SMOOTH",
"173 339 OFFCURVE",
"233 405 OFFCURVE",
"321 405 CURVE SMOOTH",
"393 405 OFFCURVE",
"427 366 OFFCURVE",
"448 308 CURVE",
"520 344 LINE",
"490 416 OFFCURVE",
"436 480 OFFCURVE",
"321 480 CURVE SMOOTH",
"162 480 OFFCURVE",
"90 353 OFFCURVE",
"90 235 CURVE SMOOTH",
"90 117 OFFCURVE",
"162 -10 OFFCURVE",
"321 -10 CURVE SMOOTH",
"437 -10 OFFCURVE",
"489 54 OFFCURVE",
"520 126 CURVE",
"448 162 LINE",
"427 104 OFFCURVE",
"393 65 OFFCURVE",
"321 65 CURVE SMOOTH"
);
}
);
width = 610;
},
{
anchors = (
{
name = bottom;
position = "{321, 0}";
},
{
name = top;
position = "{310, 300}";
}
);
associatedMasterId = "B33A6296-7F33-4AA4-95A6-15EAB02AACC1";
background = {
components = (
{
name = e;
}
);
};
guideLines = (
{
position = "{310, 575}";
},
{
position = "{48, -75}";
}
);
layerId = "3DF600ED-CE54-44A4-BD50-4EBE375052F5";
name = "2";
paths = (
{
closed = 1;
nodes = (
"218 65 OFFCURVE",
"162 130 OFFCURVE",
"162 250 CURVE SMOOTH",
"162 370 OFFCURVE",
"218 435 OFFCURVE",
"315 435 CURVE SMOOTH",
"404 435 OFFCURVE",
"424 388 OFFCURVE",
"444 337 CURVE",
"514 370 LINE",
"498 418 OFFCURVE",
"449 510 OFFCURVE",
"314 510 CURVE SMOOTH",
"147 510 OFFCURVE",
"79 377 OFFCURVE",
"79 250 CURVE SMOOTH",
"79 123 OFFCURVE",
"147 -10 OFFCURVE",
"314 -10 CURVE SMOOTH",
"451 -10 OFFCURVE",
"498 82 OFFCURVE",
"514 130 CURVE",
"445 162 LINE",
"425 111 OFFCURVE",
"406 65 OFFCURVE",
"315 65 CURVE SMOOTH"
);
}
);
width = 610;
},
{
anchors = (
{
name = bottom;
position = "{321, 0}";
},
{
name = ogonek;
position = "{397, 10}";
},
{
name = top;
position = "{310, 300}";
}
);
associatedMasterId = "B33A6296-7F33-4AA4-95A6-15EAB02AACC1";
background = {
components = (
{
name = o;
},
{
name = a;
transform = "{-1, 0, 0, 1, 583, 0}";
}
);
};
guideLines = (
{
position = "{310, 575}";
},
{
position = "{48, -75}";
}
);
layerId = "F945B13A-C4A8-4288-9282-4F3DB4796790";
name = "1";
paths = (
{
closed = 1;
nodes = (
"222 65 OFFCURVE",
"167 130 OFFCURVE",
"167 250 CURVE SMOOTH",
"167 374 OFFCURVE",
"222 435 OFFCURVE",
"310 435 CURVE SMOOTH",
"389 435 OFFCURVE",
"427 404 OFFCURVE",
"448 346 CURVE",
"518 382 LINE",
"487 454 OFFCURVE",
"428 510 OFFCURVE",
"310 510 CURVE SMOOTH",
"152 510 OFFCURVE",
"85 387 OFFCURVE",
"85 250 CURVE SMOOTH",
"85 128 OFFCURVE",
"147 -10 OFFCURVE",
"310 -10 CURVE SMOOTH",
"429 -10 OFFCURVE",
"487 46 OFFCURVE",
"518 118 CURVE",
"448 154 LINE",
"428 96 OFFCURVE",
"389 65 OFFCURVE",
"310 65 CURVE SMOOTH"
);
}
);
width = 610;
},
{
anchors = (
{
name = bottom;
position = "{321, 0}";
},
{
name = ogonek;
position = "{397, 10}";
},
{
name = top;
position = "{310, 300}";
}
);
associatedMasterId = "B33A6296-7F33-4AA4-95A6-15EAB02AACC1";
background = {
components = (
{
name = o;
},
{
name = a;
transform = "{-1, 0, 0, 1, 583, 0}";
}
);
};
guideLines = (
{
position = "{310, 575}";
},
{
position = "{48, -75}";
}
);
layerId = "7E838909-B982-4819-8FB7-5B2B51B1D3A2";
name = "4";
paths = (
{
closed = 1;
nodes = (
"233 65 OFFCURVE",
"172 126 OFFCURVE",
"172 250 CURVE SMOOTH",
"172 374 OFFCURVE",
"233 435 OFFCURVE",
"321 435 CURVE SMOOTH",
"393 435 OFFCURVE",
"427 396 OFFCURVE",
"448 338 CURVE",
"520 374 LINE",
"490 446 OFFCURVE",
"436 510 OFFCURVE",
"321 510 CURVE SMOOTH",
"162 510 OFFCURVE",
"90 388 OFFCURVE",
"90 250 CURVE SMOOTH",
"90 112 OFFCURVE",
"162 -10 OFFCURVE",
"321 -10 CURVE SMOOTH",
"437 -10 OFFCURVE",
"489 54 OFFCURVE",
"520 126 CURVE",
"448 162 LINE",
"427 104 OFFCURVE",
"393 65 OFFCURVE",
"321 65 CURVE SMOOTH"
);
}
);
width = 610;
},
{
anchors = (
{
name = bottom;
position = "{321, 0}";
},
{
name = ogonek;
position = "{397, 10}";
},
{
name = top;
position = "{310, 580}";
}
);
associatedMasterId = "B33A6296-7F33-4AA4-95A6-15EAB02AACC1";
guideLines = (
{
position = "{48, -75}";
}
);
layerId = "42332A3B-F51C-4AD6-B89C-7852EC69FBDC";
name = "6";
paths = (
{
closed = 1;
nodes = (
"233 65 OFFCURVE",
"173 131 OFFCURVE",
"173 235 CURVE SMOOTH",
"173 339 OFFCURVE",
"233 405 OFFCURVE",
"321 405 CURVE SMOOTH",
"393 405 OFFCURVE",
"427 366 OFFCURVE",
"448 308 CURVE",
"520 344 LINE",
"490 416 OFFCURVE",
"436 480 OFFCURVE",
"321 480 CURVE SMOOTH",
"162 480 OFFCURVE",
"90 353 OFFCURVE",
"90 235 CURVE SMOOTH",
"90 117 OFFCURVE",
"162 -10 OFFCURVE",
"321 -10 CURVE SMOOTH",
"437 -10 OFFCURVE",
"489 54 OFFCURVE",
"520 126 CURVE",
"448 162 LINE",
"427 104 OFFCURVE",
"393 65 OFFCURVE",
"321 65 CURVE SMOOTH"
);
}
);
width = 610;
}
);
unicode = 0063;
},
{
glyphname = eth;
layers = (
{
anchors = (
{
name = _center;
position = "{253, 250}";
}
);
associatedMasterId = "B33A6296-7F33-4AA4-95A6-15EAB02AACC1";
background = {
components = (
{
name = six;
transform = "{-1, 0, 0, 1, 609, 0}";
}
);
};
guideLines = (
{
position = "{427, 235}";
}
);
layerId = "D953850D-F93D-4839-9B82-17CD82025263";
name = "1";
paths = (
{
closed = 1;
nodes = (
"388 589 OFFCURVE",
"449 515 OFFCURVE",
"449 316 CURVE SMOOTH",
"449 214 OFFCURVE",
"437 65 OFFCURVE",
"303 65 CURVE SMOOTH",
"217 65 OFFCURVE",
"165 131 OFFCURVE",
"165 235 CURVE SMOOTH",
"165 339 OFFCURVE",
"217 405 OFFCURVE",
"303 405 CURVE SMOOTH",
"423 405 OFFCURVE",
"453 311 OFFCURVE",
"445 218 CURVE",
"486 218 LINE",
"516 328 OFFCURVE",
"443 480 OFFCURVE",
"303 480 CURVE",
"141 480 OFFCURVE",
"82 346 OFFCURVE",
"82 235 CURVE SMOOTH",
"82 124 OFFCURVE",
"140 -10 OFFCURVE",
"303 -10 CURVE SMOOTH",
"471 -10 OFFCURVE",
"523 129 OFFCURVE",
"523 316 CURVE SMOOTH",
"523 524 OFFCURVE",
"471 613 OFFCURVE",
"366 700 CURVE",
"288 664 LINE"
);
},
{
closed = 1;
nodes = (
"550 600 LINE",
"303 600 LINE",
"303 537 LINE",
"550 537 LINE"
);
}
);
width = 610;
},
{
anchors = (
{
name = _center;
position = "{253, 250}";
}
);
associatedMasterId = "B33A6296-7F33-4AA4-95A6-15EAB02AACC1";
background = {
components = (
{
name = six;
transform = "{-1, 0, 0, 1, 609, 0}";
}
);
};
guideLines = (
{
position = "{427, 235}";
}
);
layerId = "62D93AE0-6893-4CFB-A793-91A62C79059F";
name = "2";
paths = (
{
closed = 1;
nodes = (
"388 589 OFFCURVE",
"449 515 OFFCURVE",
"449 316 CURVE SMOOTH",
"449 214 OFFCURVE",
"437 65 OFFCURVE",
"303 65 CURVE SMOOTH",
"217 65 OFFCURVE",
"165 131 OFFCURVE",
"165 235 CURVE SMOOTH",
"165 339 OFFCURVE",
"217 405 OFFCURVE",
"303 405 CURVE SMOOTH",
"423 405 OFFCURVE",
"453 311 OFFCURVE",
"445 218 CURVE",
"486 218 LINE",
"516 328 OFFCURVE",
"443 480 OFFCURVE",
"303 480 CURVE",
"141 480 OFFCURVE",
"82 346 OFFCURVE",
"82 235 CURVE SMOOTH",
"82 124 OFFCURVE",
"140 -10 OFFCURVE",
"303 -10 CURVE SMOOTH",
"471 -10 OFFCURVE",
"523 129 OFFCURVE",
"523 316 CURVE SMOOTH",
"523 524 OFFCURVE",
"471 613 OFFCURVE",
"366 700 CURVE",
"288 664 LINE"
);
},
{
closed = 1;
nodes = (
"550 600 LINE",
"303 600 LINE",
"303 537 LINE",
"550 537 LINE"
);
}
);
width = 610;
},
{
associatedMasterId = "B33A6296-7F33-4AA4-95A6-15EAB02AACC1";
layerId = "65C1924F-3934-4280-B0EE-D0AD8CFC3BD3";
name = "Dec 6 17, 14:56";
paths = (
{
closed = 1;
nodes = (
"385 581 OFFCURVE",
"449 517 OFFCURVE",
"449 318 CURVE SMOOTH",
"449 216 OFFCURVE",
"440 65 OFFCURVE",
"303 65 CURVE SMOOTH",
"217 65 OFFCURVE",
"165 131 OFFCURVE",
"165 235 CURVE SMOOTH",
"165 339 OFFCURVE",
"217 405 OFFCURVE",
"303 405 CURVE SMOOTH",
"423 405 OFFCURVE",
"453 311 OFFCURVE",
"445 218 CURVE",
"486 218 LINE",
"516 328 OFFCURVE",
"443 480 OFFCURVE",
"303 480 CURVE",
"141 480 OFFCURVE",
"82 346 OFFCURVE",
"82 235 CURVE SMOOTH",
"82 124 OFFCURVE",
"140 -10 OFFCURVE",
"303 -10 CURVE SMOOTH",
"469 -10 OFFCURVE",
"533 122 OFFCURVE",
"533 316 CURVE SMOOTH",
"533 524 OFFCURVE",
"471 607 OFFCURVE",
"356 700 CURVE",
"278 662 LINE"
);
},
{
closed = 1;
nodes = (
"550 610 LINE",
"303 610 LINE",
"303 547 LINE",
"550 547 LINE"
);
}
);
width = 610;
},
{
associatedMasterId = "B33A6296-7F33-4AA4-95A6-15EAB02AACC1";
layerId = "B9B279FE-F35B-43E9-8157-732570570A49";
name = "Regular Dec 23 17, 18:24";
paths = (
{
closed = 1;
nodes = (
"372 591 OFFCURVE",
"452 517 OFFCURVE",
"456 371 CURVE SMOOTH",
"457 349 OFFCURVE",
"449 334 OFFCURVE",
"449 307 CURVE SMOOTH",
"449 216 OFFCURVE",
"438 65 OFFCURVE",
"305 65 CURVE SMOOTH",
"217 65 OFFCURVE",
"165 131 OFFCURVE",
"165 236 CURVE SMOOTH",
"165 339 OFFCURVE",
"215 405 OFFCURVE",
"308 405 CURVE SMOOTH",
"422 405 OFFCURVE",
"454 306 OFFCURVE",
"445 218 CURVE",
"486 218 LINE",
"516 328 OFFCURVE",
"443 480 OFFCURVE",
"303 480 CURVE",
"141 480 OFFCURVE",
"82 346 OFFCURVE",
"82 235 CURVE SMOOTH",
"82 125 OFFCURVE",
"139 -10 OFFCURVE",
"305 -10 CURVE SMOOTH",
"469 -10 OFFCURVE",
"532 121 OFFCURVE",
"532 322 CURVE SMOOTH",
"532 524 OFFCURVE",
"468 610 OFFCURVE",
"356 700 CURVE",
"278 662 LINE"
);
},
{
closed = 1;
nodes = (
"550 610 LINE",
"303 610 LINE",
"303 547 LINE",
"550 547 LINE"
);
}
);
width = 610;
},
{
layerId = "B33A6296-7F33-4AA4-95A6-15EAB02AACC1";
paths = (
{
closed = 1;
nodes = (
"400 561 OFFCURVE",
"472 430 OFFCURVE",
"472 277 CURVE SMOOTH",
"472 277 OFFCURVE",
"460 279 OFFCURVE",
"460 277 CURVE SMOOTH",
"460 137 OFFCURVE",
"403 65 OFFCURVE",
"308 65 CURVE SMOOTH",
"216 65 OFFCURVE",
"166 131 OFFCURVE",
"166 236 CURVE SMOOTH",
"166 339 OFFCURVE",
"215 405 OFFCURVE",
"308 405 CURVE SMOOTH",
"422 405 OFFCURVE",
"466 306 OFFCURVE",
"457 218 CURVE",
"496 218 LINE",
"526 328 OFFCURVE",
"443 480 OFFCURVE",
"303 480 CURVE",
"142 480 OFFCURVE",
"83 345 OFFCURVE",
"83 234 CURVE SMOOTH",
"83 125 OFFCURVE",
"141 -10 OFFCURVE",
"306 -10 CURVE SMOOTH",
"416 -10 OFFCURVE",
"538 48 OFFCURVE",
"538 281 CURVE SMOOTH",
"538 444 OFFCURVE",
"478 595 OFFCURVE",
"306 700 CURVE",
"231 657 LINE"
);
},
{
closed = 1;
nodes = (
"477 675 LINE",
"224 566 LINE",
"247 505 LINE",
"504 616 LINE"
);
}
);
width = 610;
},
{
associatedMasterId = "B33A6296-7F33-4AA4-95A6-15EAB02AACC1";
layerId = "0C7CB418-5FE8-4A8A-8FD2-0AF38752DB19";
name = "Regular Jan 1 18, 18:22";
paths = (
{
closed = 1;
nodes = (
"400 561 OFFCURVE",
"472 430 OFFCURVE",
"472 277 CURVE SMOOTH",
"472 277 OFFCURVE",
"460 279 OFFCURVE",
"460 277 CURVE SMOOTH",
"460 137 OFFCURVE",
"403 65 OFFCURVE",
"308 65 CURVE SMOOTH",
"216 65 OFFCURVE",
"166 131 OFFCURVE",
"166 236 CURVE SMOOTH",
"166 339 OFFCURVE",
"215 405 OFFCURVE",
"308 405 CURVE SMOOTH",
"422 405 OFFCURVE",
"466 306 OFFCURVE",
"457 218 CURVE",
"496 218 LINE",
"526 328 OFFCURVE",
"443 480 OFFCURVE",
"303 480 CURVE",
"142 480 OFFCURVE",
"83 345 OFFCURVE",
"83 234 CURVE SMOOTH",
"83 125 OFFCURVE",
"141 -10 OFFCURVE",
"306 -10 CURVE SMOOTH",
"416 -10 OFFCURVE",
"538 48 OFFCURVE",
"538 281 CURVE SMOOTH",
"538 444 OFFCURVE",
"478 595 OFFCURVE",
"306 700 CURVE",
"231 657 LINE"
);
},
{
closed = 1;
nodes = (
"488 660 LINE",
"366 625 LINE",
"265 597 LINE",
"265 519 LINE",
"395 555 LINE",
"488 581 LINE"
);
}
);
width = 610;
}
);
unicode = 00F0;
},
{
glyphname = e;
layers = (
{
anchors = (
{
name = bottom;
position = "{325, 0}";
},
{
name = ogonek;
position = "{323, 10}";
},
{
name = top;
position = "{310, 580}";
}
);
background = {
components = (
{
name = o;
transform = "{1, 0, 0, 1, 2, 0}";
}
);
};
guideLines = (
{
position = "{48, -75}";
}
);
layerId = "B33A6296-7F33-4AA4-95A6-15EAB02AACC1";
paths = (
{
closed = 1;
nodes = (
"118 214 LINE",
"530 213 LINE",
"510 286 LINE",
"118 287 LINE"
);
},
{
closed = 1;
nodes = (
"440 218 LINE",
"530 213 LINE",
"531 235 LINE SMOOTH",
"537 361 OFFCURVE",
"474 480 OFFCURVE",
"310 480 CURVE SMOOTH",
"142 480 OFFCURVE",
"79 354 OFFCURVE",
"79 236 CURVE SMOOTH",
"79 117 OFFCURVE",
"144 -10 OFFCURVE",
"315 -10 CURVE SMOOTH",
"429 -10 OFFCURVE",
"488 47 OFFCURVE",
"518 118 CURVE",
"448 154 LINE",
"428 93 OFFCURVE",
"385 65 OFFCURVE",
"318 65 CURVE SMOOTH",
"214 65 OFFCURVE",
"162 132 OFFCURVE",
"162 237 CURVE SMOOTH",
"162 339 OFFCURVE",
"212 405 OFFCURVE",
"312 405 CURVE SMOOTH",
"401 405 OFFCURVE",
"456 352 OFFCURVE",
"442 235 CURVE SMOOTH"
);
}
);
width = 610;
},
{
anchors = (
{
name = bottom;
position = "{325, 0}";
},
{
name = ogonek;
position = "{397, 10}";
},
{
name = top;
position = "{308, 300}";
}
);
associatedMasterId = "B33A6296-7F33-4AA4-95A6-15EAB02AACC1";
guideLines = (
{
position = "{48, 575}";
},
{
position = "{48, -75}";
}
);
layerId = "C9011564-8138-41CB-91F6-4AAC2B74148F";
name = "1";
paths = (
{
closed = 1;
nodes = (
"118 218 LINE",
"510 218 LINE",
"510 291 LINE",
"118 291 LINE"
);
},
{
closed = 1;
nodes = (
"447 218 LINE",
"530 218 LINE",
"531 250 LINE",
"531 370 OFFCURVE",
"474 510 OFFCURVE",
"310 510 CURVE SMOOTH",
"142 510 OFFCURVE",
"79 370 OFFCURVE",
"79 250 CURVE SMOOTH",
"79 128 OFFCURVE",
"152 -10 OFFCURVE",
"310 -10 CURVE SMOOTH",
"428 -10 OFFCURVE",
"487 46 OFFCURVE",
"518 118 CURVE",
"448 154 LINE",
"428 96 OFFCURVE",
"389 65 OFFCURVE",
"310 65 CURVE SMOOTH",
"222 65 OFFCURVE",
"162 130 OFFCURVE",
"162 250 CURVE SMOOTH",
"162 370 OFFCURVE",
"213 435 OFFCURVE",
"310 435 CURVE SMOOTH",
"404 435 OFFCURVE",
"456 370 OFFCURVE",
"449 250 CURVE SMOOTH"
);
}
);
width = 610;
},
{
anchors = (
{
name = bottom;
position = "{325, 0}";
},
{
name = ogonek;
position = "{397, 10}";
},
{
name = top;
position = "{308, 300}";
}
);
associatedMasterId = "B33A6296-7F33-4AA4-95A6-15EAB02AACC1";
background = {
components = (
{
name = o;
transform = "{1, 0, 0, 1, 2, 0}";
}
);
};
guideLines = (
{
position = "{48, 575}";
},
{
position = "{48, -75}";
}
);
layerId = "7C98BFCB-C836-45D0-AD67-F9C1D6152861";
name = "2";
paths = (
{
closed = 1;
nodes = (
"118 198 LINE",
"530 198 LINE",
"510 271 LINE",
"118 271 LINE"
);
},
{
closed = 1;
nodes = (
"447 203 LINE",
"530 198 LINE",
"531 220 LINE SMOOTH",
"537 346 OFFCURVE",
"474 480 OFFCURVE",
"310 480 CURVE SMOOTH",
"142 480 OFFCURVE",
"79 347 OFFCURVE",
"79 220 CURVE SMOOTH",
"79 108 OFFCURVE",
"146 -10 OFFCURVE",
"310 -10 CURVE SMOOTH",
"431 -10 OFFCURVE",
"487 46 OFFCURVE",
"518 118 CURVE",
"448 154 LINE",
"428 96 OFFCURVE",
"389 65 OFFCURVE",
"310 65 CURVE SMOOTH",
"222 65 OFFCURVE",
"161 111 OFFCURVE",
"161 220 CURVE SMOOTH",
"161 340 OFFCURVE",
"213 405 OFFCURVE",
"310 405 CURVE SMOOTH",
"404 405 OFFCURVE",
"463 339 OFFCURVE",
"449 220 CURVE SMOOTH"
);
}
);
width = 610;
},
{
anchors = (
{
name = bottom;
position = "{325, 0}";
},
{
name = ogonek;
position = "{323, 10}";
},
{
name = top;
position = "{310, 580}";
}
);
associatedMasterId = "B33A6296-7F33-4AA4-95A6-15EAB02AACC1";
background = {
components = (
{
name = o;
transform = "{1, 0, 0, 1, 2, 0}";
}
);
};
guideLines = (
{
position = "{48, -75}";
}
);
layerId = "F3D1962D-D85E-4524-BB59-186F1F05DB20";
name = "3";
paths = (
{
closed = 1;
nodes = (
"118 214 LINE",
"530 213 LINE",
"510 286 LINE",
"118 287 LINE"
);
},
{
closed = 1;
nodes = (
"440 218 LINE",
"530 213 LINE",
"531 235 LINE SMOOTH",
"537 361 OFFCURVE",
"474 480 OFFCURVE",
"310 480 CURVE SMOOTH",
"142 480 OFFCURVE",
"79 353 OFFCURVE",
"79 235 CURVE SMOOTH",
"79 117 OFFCURVE",
"146 -10 OFFCURVE",
"310 -10 CURVE SMOOTH",
"431 -10 OFFCURVE",
"487 46 OFFCURVE",
"518 118 CURVE",
"448 154 LINE",
"427 93 OFFCURVE",
"390 65 OFFCURVE",
"310 65 CURVE SMOOTH",
"218 65 OFFCURVE",
"162 132 OFFCURVE",
"162 235 CURVE SMOOTH",
"162 339 OFFCURVE",
"212 405 OFFCURVE",
"310 405 CURVE SMOOTH",
"402 405 OFFCURVE",
"456 352 OFFCURVE",
"442 235 CURVE SMOOTH"
);
}
);
width = 610;
}
);
unicode = 0065;
},
{
glyphname = f;
layers = (
{
anchors = (
{
name = top;
position = "{310, 1}";
}
);
background = {
components = (
{
name = t;
transform = "{1, 0, 0, 1, 18, 0}";
}
);
};
layerId = "B33A6296-7F33-4AA4-95A6-15EAB02AACC1";
paths = (
{
closed = 1;
nodes = (
"69 395 LINE SMOOTH",
"479 395 LINE SMOOTH",
"479 470 LINE",
"69 470 LINE"
);
},
{
closed = 1;
nodes = (
"557 591 LINE",
"525 678 OFFCURVE",
"449 710 OFFCURVE",
"375 710 CURVE SMOOTH",
"271 710 OFFCURVE",
"199 645 OFFCURVE",
"199 538 CURVE SMOOTH",
"199 0 LINE",
"282 0 LINE",
"282 527 LINE SMOOTH",
"282 587 OFFCURVE",
"300 635 OFFCURVE",
"373 635 CURVE SMOOTH",
"443 635 OFFCURVE",
"464 604 OFFCURVE",
"487 556 CURVE"
);
}
);
width = 610;
},
{
anchors = (
{
name = bottom;
position = "{310, 501}";
},
{
name = top;
position = "{310, 1}";
}
);
associatedMasterId = "B33A6296-7F33-4AA4-95A6-15EAB02AACC1";
layerId = "A7B95F64-7AC2-428A-93D9-482613057986";
name = "1";
paths = (
{
closed = 1;
nodes = (
"72 425 LINE SMOOTH",
"509 425 LINE SMOOTH",
"509 500 LINE SMOOTH",
"72 500 LINE SMOOTH"
);
},
{
closed = 1;
nodes = (
"538 647 LINE",
"498 681 OFFCURVE",
"445 710 OFFCURVE",
"371 710 CURVE SMOOTH",
"262 710 OFFCURVE",
"206 645 OFFCURVE",
"206 544 CURVE SMOOTH",
"206 0 LINE",
"289 0 LINE",
"289 501 LINE SMOOTH",
"289 596 OFFCURVE",
"295 635 OFFCURVE",
"375 635 CURVE SMOOTH",
"437 635 OFFCURVE",
"465 613 OFFCURVE",
"493 593 CURVE"
);
}
);
width = 610;
},
{
anchors = (
{
name = bottom;
position = "{310, 501}";
},
{
name = top;
position = "{310, 1}";
}
);
associatedMasterId = "B33A6296-7F33-4AA4-95A6-15EAB02AACC1";
background = {
components = (
{
name = s;
transform = "{-1, 0, 0, -1, 683, 700}";
}
);
};
layerId = "5566AF9A-32E9-417F-B772-3C5879D9E677";
name = "2";
paths = (
{
closed = 1;
nodes = (
"72 425 LINE SMOOTH",
"509 425 LINE SMOOTH",
"509 500 LINE SMOOTH",
"72 500 LINE SMOOTH"
);
},
{
closed = 1;
nodes = (
"545 679 OFFCURVE",
"451 710 OFFCURVE",
"387 710 CURVE SMOOTH",
"309 710 OFFCURVE",
"206 670 OFFCURVE",
"206 560 CURVE SMOOTH",
"206 0 LINE",
"289 0 LINE",
"289 560 LINE",
"289 602 OFFCURVE",
"311 635 OFFCURVE",
"387 635 CURVE",
"463 635 OFFCURVE",
"493 588 OFFCURVE",
"510 546 CURVE",
"580 581 LINE"
);
}
);
width = 610;
},
{
anchors = (
{
name = bottom;
position = "{310, 501}";
},
{
name = top;
position = "{310, 1}";
}
);
associatedMasterId = "B33A6296-7F33-4AA4-95A6-15EAB02AACC1";
background = {
components = (
{
name = s;
transform = "{1, 0, 0, 1, 61, 200}";
}
);
};
guideLines = (
{
angle = 270;
position = "{206, 544}";
},
{
angle = 270;
position = "{289, 501}";
}
);
layerId = "BE8969B7-1207-4F36-B4F7-958ED50A9C29";
name = "3";
paths = (
{
closed = 1;
nodes = (
"72 425 LINE SMOOTH",
"479 425 LINE SMOOTH",
"479 500 LINE SMOOTH",
"72 500 LINE"
);
},
{
closed = 1;
nodes = (
"558 581 LINE",
"526 668 OFFCURVE",
"455 710 OFFCURVE",
"381 710 CURVE SMOOTH",
"272 710 OFFCURVE",
"206 645 OFFCURVE",
"206 544 CURVE SMOOTH",
"206 0 LINE",
"289 0 LINE",
"289 501 LINE SMOOTH",
"289 596 OFFCURVE",
"305 635 OFFCURVE",
"385 635 CURVE SMOOTH",
"447 635 OFFCURVE",
"476 585 OFFCURVE",
"488 546 CURVE"
);
}
);
width = 610;
},
{
anchors = (
{
name = bottom;
position = "{310, 501}";
},
{
name = top;
position = "{310, 1}";
}
);
associatedMasterId = "B33A6296-7F33-4AA4-95A6-15EAB02AACC1";
background = {
components = (
{
name = t;
transform = "{1, 0, 0, -1, 33, 700}";
}
);
};
layerId = "98A4A48F-F90E-4974-B646-CAF09F997328";
name = "4";
paths = (
{
closed = 1;
nodes = (
"72 385 LINE SMOOTH",
"479 385 LINE SMOOTH",
"479 460 LINE",
"72 460 LINE"
);
},
{
closed = 1;
nodes = (
"563 581 LINE",
"531 668 OFFCURVE",
"445 710 OFFCURVE",
"371 710 CURVE SMOOTH",
"262 710 OFFCURVE",
"195 645 OFFCURVE",
"195 544 CURVE SMOOTH",
"195 0 LINE",
"278 0 LINE",
"278 527 LINE SMOOTH",
"278 587 OFFCURVE",
"296 635 OFFCURVE",
"369 635 CURVE SMOOTH",
"439 635 OFFCURVE",
"475 594 OFFCURVE",
"493 546 CURVE"
);
}
);
width = 610;
},
{
anchors = (
{
name = bottom;
position = "{310, 501}";
},
{
name = top;
position = "{310, 1}";
}
);
associatedMasterId = "B33A6296-7F33-4AA4-95A6-15EAB02AACC1";
background = {
components = (
{
name = t;
transform = "{1, 0, 0, 1, 18, 0}";
}
);
};
layerId = "84EB4CE5-8244-4140-94D9-A15A45B392BB";
name = "5";
paths = (
{
closed = 1;
nodes = (
"69 395 LINE SMOOTH",
"479 395 LINE SMOOTH",
"479 470 LINE",
"69 470 LINE"
);
},
{
closed = 1;
nodes = (
"557 591 LINE",
"525 678 OFFCURVE",
"449 710 OFFCURVE",
"375 710 CURVE SMOOTH",
"266 710 OFFCURVE",
"199 645 OFFCURVE",
"199 544 CURVE SMOOTH",
"199 0 LINE",
"282 0 LINE",
"282 527 LINE SMOOTH",
"282 587 OFFCURVE",
"300 635 OFFCURVE",
"373 635 CURVE SMOOTH",
"443 635 OFFCURVE",
"469 604 OFFCURVE",
"487 556 CURVE"
);
}
);
width = 610;
},
{
anchors = (
{
name = top;
position = "{310, 1}";
}
);
associatedMasterId = "B33A6296-7F33-4AA4-95A6-15EAB02AACC1";
background = {
components = (
{
name = t;
transform = "{1, 0, 0, 1, 18, 0}";
}
);
};
layerId = "1746F030-4481-47F1-8341-80A4DDCA2D45";
name = "Dec 6 17, 14:52";
paths = (
{
closed = 1;
nodes = (
"557 591 LINE",
"525 678 OFFCURVE",
"449 710 OFFCURVE",
"375 710 CURVE SMOOTH",
"271 710 OFFCURVE",
"199 645 OFFCURVE",
"199 538 CURVE SMOOTH",
"199 0 LINE",
"282 0 LINE",
"282 527 LINE SMOOTH",
"282 561 OFFCURVE",
"282 635 OFFCURVE",
"378 635 CURVE SMOOTH",
"441 635 OFFCURVE",
"464 604 OFFCURVE",
"487 556 CURVE"
);
},
{
closed = 1;
nodes = (
"69 395 LINE SMOOTH",
"479 395 LINE SMOOTH",
"479 470 LINE",
"69 470 LINE"
);
}
);
width = 610;
}
);
unicode = 0066;
},
{
glyphname = g;
layers = (
{
anchors = (
{
name = bottom;
position = "{305, -200}";
},
{
name = center;
position = "{461, 591}";
},
{
name = top;
position = "{297, 300}";
},
{
name = topright;
position = "{591, 500}";
}
);
associatedMasterId = "B33A6296-7F33-4AA4-95A6-15EAB02AACC1";
layerId = "06FF65DC-A17D-460A-BEE5-EEA4D3FF068E";
name = "1";
paths = (
{
closed = 1;
nodes = (
"518 500 LINE",
"454 500 LINE",
"442 449 LINE",
"435 395 LINE",
"447 250 LINE",
"443 129 LINE",
"439 -2 LINE SMOOTH",
"436 -101 OFFCURVE",
"368 -138 OFFCURVE",
"298 -138 CURVE SMOOTH",
"226 -138 OFFCURVE",
"190 -110 OFFCURVE",
"153 -69 CURVE",
"101 -122 LINE",
"145 -172 OFFCURVE",
"211 -210 OFFCURVE",
"305 -210 CURVE SMOOTH",
"419 -210 OFFCURVE",
"519 -138 OFFCURVE",
"519 -2 CURVE SMOOTH"
);
},
{
closed = 1;
nodes = (
"132 510 OFFCURVE",
"73 374 OFFCURVE",
"73 250 CURVE SMOOTH",
"73 126 OFFCURVE",
"132 -10 OFFCURVE",
"294 -10 CURVE SMOOTH",
"445 -10 OFFCURVE",
"488 130 OFFCURVE",
"488 250 CURVE SMOOTH",
"488 370 OFFCURVE",
"444 510 OFFCURVE",
"294 510 CURVE SMOOTH"
);
},
{
closed = 1;
nodes = (
"384 435 OFFCURVE",
"447 370 OFFCURVE",
"447 250 CURVE SMOOTH",
"447 130 OFFCURVE",
"384 65 OFFCURVE",
"294 65 CURVE SMOOTH",
"208 65 OFFCURVE",
"156 126 OFFCURVE",
"156 250 CURVE SMOOTH",
"156 374 OFFCURVE",
"208 435 OFFCURVE",
"294 435 CURVE SMOOTH"
);
}
);
width = 610;
},
{
anchors = (
{
name = bottom;
position = "{305, -200}";
},
{
name = center;
position = "{461, 591}";
},
{
name = top;
position = "{297, 300}";
},
{
name = topright;
position = "{591, 500}";
}
);
associatedMasterId = "B33A6296-7F33-4AA4-95A6-15EAB02AACC1";
background = {
components = (
{
name = e;
transform = "{-1, 0, 0, 1, 615, -200}";
}
);
};
layerId = "D263DB72-5FF9-48B6-8857-77D39C8C53FB";
name = "2";
paths = (
{
closed = 1;
nodes = (
"518 500 LINE",
"454 500 LINE",
"442 449 LINE",
"435 395 LINE",
"447 250 LINE",
"443 129 LINE",
"439 -2 LINE SMOOTH",
"436 -101 OFFCURVE",
"369 -135 OFFCURVE",
"299 -135 CURVE SMOOTH",
"227 -135 OFFCURVE",
"183 -98 OFFCURVE",
"167 -46 CURVE",
"97 -82 LINE",
"131 -172 OFFCURVE",
"211 -210 OFFCURVE",
"305 -210 CURVE SMOOTH",
"419 -210 OFFCURVE",
"519 -138 OFFCURVE",
"519 -2 CURVE SMOOTH"
);
},
{
closed = 1;
nodes = (
"132 510 OFFCURVE",
"73 374 OFFCURVE",
"73 250 CURVE SMOOTH",
"73 126 OFFCURVE",
"132 -10 OFFCURVE",
"294 -10 CURVE SMOOTH",
"445 -10 OFFCURVE",
"488 130 OFFCURVE",
"488 250 CURVE SMOOTH",
"488 370 OFFCURVE",
"444 510 OFFCURVE",
"294 510 CURVE SMOOTH"
);
},
{
closed = 1;
nodes = (
"384 435 OFFCURVE",
"447 370 OFFCURVE",
"447 250 CURVE SMOOTH",
"447 130 OFFCURVE",
"384 65 OFFCURVE",
"294 65 CURVE SMOOTH",
"208 65 OFFCURVE",
"156 126 OFFCURVE",
"156 250 CURVE SMOOTH",
"156 374 OFFCURVE",
"208 435 OFFCURVE",
"294 435 CURVE SMOOTH"
);
}
);
width = 610;
},
{
anchors = (
{
name = bottom;
position = "{305, -200}";
},
{
name = center;
position = "{461, 591}";
},
{
name = top;
position = "{297, 300}";
},
{
name = topright;
position = "{591, 500}";
}
);
associatedMasterId = "B33A6296-7F33-4AA4-95A6-15EAB02AACC1";
background = {
components = (
{
name = q;
transform = "{1, 0, 0, 1, -9, 0}";
}
);
};
layerId = "9CDBCD9F-6F54-4DA9-B6B2-B311C8DB26DC";
name = "3";
paths = (
{
closed = 1;
nodes = (
"518 500 LINE",
"468 500 LINE",
"431 442 LINE",
"447 407 LINE",
"464 250 LINE",
"438 107 LINE",
"437 -2 LINE SMOOTH",
"436 -101 OFFCURVE",
"369 -135 OFFCURVE",
"299 -135 CURVE SMOOTH",
"227 -135 OFFCURVE",
"183 -98 OFFCURVE",
"167 -46 CURVE",
"97 -82 LINE",
"131 -172 OFFCURVE",
"211 -210 OFFCURVE",
"305 -210 CURVE SMOOTH",
"419 -210 OFFCURVE",
"519 -138 OFFCURVE",
"519 -2 CURVE SMOOTH"
);
},
{
closed = 1;
nodes = (
"132 510 OFFCURVE",
"73 374 OFFCURVE",
"73 250 CURVE SMOOTH",
"73 126 OFFCURVE",
"132 -10 OFFCURVE",
"294 -10 CURVE SMOOTH",
"445 -10 OFFCURVE",
"488 130 OFFCURVE",
"488 250 CURVE SMOOTH",
"488 370 OFFCURVE",
"444 510 OFFCURVE",
"294 510 CURVE SMOOTH"
);
},
{
closed = 1;
nodes = (
"384 435 OFFCURVE",
"447 370 OFFCURVE",
"447 250 CURVE SMOOTH",
"447 130 OFFCURVE",
"384 65 OFFCURVE",
"294 65 CURVE SMOOTH",
"208 65 OFFCURVE",
"156 126 OFFCURVE",
"156 250 CURVE SMOOTH",
"156 374 OFFCURVE",
"208 435 OFFCURVE",
"294 435 CURVE SMOOTH"
);
}
);
width = 610;
},
{
anchors = (
{
name = bottom;
position = "{305, -200}";
},
{
name = center;
position = "{461, 591}";
},
{
name = top;
position = "{297, 300}";
},
{
name = topright;
position = "{591, 500}";
}
);
associatedMasterId = "B33A6296-7F33-4AA4-95A6-15EAB02AACC1";
background = {
components = (
{
name = q;
transform = "{1, 0, 0, 1, -9, 0}";
}
);
};
layerId = "190D0307-BA49-441A-98AF-DF01FEBA55D9";
name = "4";
paths = (
{
closed = 1;
nodes = (
"518 500 LINE",
"468 500 LINE",
"431 442 LINE",
"447 407 LINE",
"464 250 LINE",
"437 107 LINE",
"436 -2 LINE SMOOTH",
"435 -101 OFFCURVE",
"369 -135 OFFCURVE",
"299 -135 CURVE SMOOTH",
"227 -135 OFFCURVE",
"183 -98 OFFCURVE",
"167 -46 CURVE",
"97 -82 LINE",
"131 -172 OFFCURVE",
"211 -210 OFFCURVE",
"299 -210 CURVE SMOOTH",
"419 -210 OFFCURVE",
"519 -138 OFFCURVE",
"519 3 CURVE SMOOTH"
);
},
{
closed = 1;
nodes = (
"132 510 OFFCURVE",
"73 377 OFFCURVE",
"73 255 CURVE SMOOTH",
"73 133 OFFCURVE",
"132 0 OFFCURVE",
"294 0 CURVE SMOOTH",
"445 0 OFFCURVE",
"488 137 OFFCURVE",
"488 255 CURVE SMOOTH",
"488 373 OFFCURVE",
"444 510 OFFCURVE",
"294 510 CURVE SMOOTH"
);
},
{
closed = 1;
nodes = (
"384 436 OFFCURVE",
"447 373 OFFCURVE",
"447 255 CURVE SMOOTH",
"447 137 OFFCURVE",
"384 74 OFFCURVE",
"294 74 CURVE SMOOTH",
"208 74 OFFCURVE",
"156 133 OFFCURVE",
"156 255 CURVE SMOOTH",
"156 377 OFFCURVE",
"208 436 OFFCURVE",
"294 436 CURVE SMOOTH"
);
}
);
width = 610;
},
{
anchors = (
{
name = bottom;
position = "{305, -200}";
},
{
name = center;
position = "{461, 591}";
},
{
name = top;
position = "{297, 300}";
},
{
name = topright;
position = "{591, 500}";
}
);
associatedMasterId = "B33A6296-7F33-4AA4-95A6-15EAB02AACC1";
background = {
components = (
{
name = q;
transform = "{1, 0, 0, 1, -9, 0}";
}
);
};
layerId = "533FF08F-677D-4FE7-BC78-C552D194862F";
name = "5";
paths = (
{
closed = 1;
nodes = (
"518 500 LINE",
"468 500 LINE",
"431 442 LINE",
"447 407 LINE",
"464 250 LINE",
"437 107 LINE",
"436 -2 LINE SMOOTH",
"435 -110 OFFCURVE",
"371 -135 OFFCURVE",
"289 -135 CURVE SMOOTH",
"217 -135 OFFCURVE",
"167 -110 OFFCURVE",
"143 -46 CURVE",
"73 -82 LINE",
"110 -178 OFFCURVE",
"201 -210 OFFCURVE",
"289 -210 CURVE SMOOTH",
"425 -210 OFFCURVE",
"519 -148 OFFCURVE",
"519 3 CURVE SMOOTH"
);
},
{
closed = 1;
nodes = (
"132 510 OFFCURVE",
"73 377 OFFCURVE",
"73 255 CURVE SMOOTH",
"73 133 OFFCURVE",
"132 0 OFFCURVE",
"294 0 CURVE SMOOTH",
"445 0 OFFCURVE",
"488 137 OFFCURVE",
"488 255 CURVE SMOOTH",
"488 373 OFFCURVE",
"444 510 OFFCURVE",
"294 510 CURVE SMOOTH"
);
},
{
closed = 1;
nodes = (
"384 436 OFFCURVE",
"447 373 OFFCURVE",
"447 255 CURVE SMOOTH",
"447 137 OFFCURVE",
"384 74 OFFCURVE",
"294 74 CURVE SMOOTH",
"208 74 OFFCURVE",
"156 133 OFFCURVE",
"156 255 CURVE SMOOTH",
"156 377 OFFCURVE",
"208 436 OFFCURVE",
"294 436 CURVE SMOOTH"
);
}
);
width = 610;
},
{
anchors = (
{
name = bottom;
position = "{305, -200}";
},
{
name = center;
position = "{461, 591}";
},
{
name = top;
position = "{297, 300}";
},
{
name = topright;
position = "{591, 500}";
}
);
associatedMasterId = "B33A6296-7F33-4AA4-95A6-15EAB02AACC1";
background = {
components = (
{
name = q;
transform = "{1, 0, 0, 1, -9, 0}";
}
);
};
layerId = "D3A5E920-AD26-4800-A3A9-475BE2B15A06";
name = "5/2";
paths = (
{
closed = 1;
nodes = (
"518 500 LINE",
"468 500 LINE",
"431 442 LINE",
"447 407 LINE",
"464 250 LINE",
"437 107 LINE",
"436 -2 LINE SMOOTH",
"435 -101 OFFCURVE",
"369 -135 OFFCURVE",
"299 -135 CURVE SMOOTH",
"227 -135 OFFCURVE",
"183 -98 OFFCURVE",
"167 -46 CURVE",
"97 -82 LINE",
"131 -172 OFFCURVE",
"211 -210 OFFCURVE",
"299 -210 CURVE SMOOTH",
"419 -210 OFFCURVE",
"519 -138 OFFCURVE",
"519 3 CURVE SMOOTH"
);
},
{
closed = 1;
nodes = (
"132 510 OFFCURVE",
"73 377 OFFCURVE",
"73 255 CURVE SMOOTH",
"73 133 OFFCURVE",
"132 0 OFFCURVE",
"294 0 CURVE SMOOTH",
"445 0 OFFCURVE",
"488 137 OFFCURVE",
"488 255 CURVE SMOOTH",
"488 373 OFFCURVE",
"444 510 OFFCURVE",
"294 510 CURVE SMOOTH"
);
},
{
closed = 1;
nodes = (
"384 436 OFFCURVE",
"447 373 OFFCURVE",
"447 255 CURVE SMOOTH",
"447 137 OFFCURVE",
"384 74 OFFCURVE",
"294 74 CURVE SMOOTH",
"208 74 OFFCURVE",
"156 133 OFFCURVE",
"156 255 CURVE SMOOTH",
"156 377 OFFCURVE",
"208 436 OFFCURVE",
"294 436 CURVE SMOOTH"
);
}
);
width = 610;
},
{
anchors = (
{
name = bottom;
position = "{305, -200}";
},
{
name = center;
position = "{461, 591}";
},
{
name = top;
position = "{297, 300}";
},
{
name = topright;
position = "{591, 500}";
}
);
associatedMasterId = "B33A6296-7F33-4AA4-95A6-15EAB02AACC1";
background = {
paths = (
{
closed = 1;
nodes = (
"518 500 LINE",
"468 500 LINE",
"431 442 LINE",
"447 407 LINE",
"464 250 LINE",
"437 107 LINE",
"436 -2 LINE SMOOTH",
"435 -101 OFFCURVE",
"369 -135 OFFCURVE",
"299 -135 CURVE SMOOTH",
"227 -135 OFFCURVE",
"183 -98 OFFCURVE",
"167 -46 CURVE",
"97 -82 LINE",
"131 -172 OFFCURVE",
"211 -210 OFFCURVE",
"299 -210 CURVE SMOOTH",
"419 -210 OFFCURVE",
"519 -138 OFFCURVE",
"519 3 CURVE SMOOTH"
);
},
{
closed = 1;
nodes = (
"132 510 OFFCURVE",
"73 377 OFFCURVE",
"73 255 CURVE SMOOTH",
"73 133 OFFCURVE",
"132 0 OFFCURVE",
"294 0 CURVE SMOOTH",
"445 0 OFFCURVE",
"488 137 OFFCURVE",
"488 255 CURVE SMOOTH",
"488 373 OFFCURVE",
"444 510 OFFCURVE",
"294 510 CURVE SMOOTH"
);
},
{
closed = 1;
nodes = (
"384 436 OFFCURVE",
"447 373 OFFCURVE",
"447 255 CURVE SMOOTH",
"447 137 OFFCURVE",
"384 74 OFFCURVE",
"294 74 CURVE SMOOTH",
"208 74 OFFCURVE",
"156 133 OFFCURVE",
"156 255 CURVE SMOOTH",
"156 377 OFFCURVE",
"208 436 OFFCURVE",
"294 436 CURVE SMOOTH"
);
}
);
};
components = (
{
name = DotWide;
}
);
layerId = "90A1A786-32F6-42C9-B52E-72D7078E2539";
name = "5/3";
paths = (
{
closed = 1;
nodes = (
"518 500 LINE",
"468 500 LINE",
"431 442 LINE",
"447 407 LINE",
"464 250 LINE",
"437 107 LINE",
"436 -2 LINE SMOOTH",
"435 -110 OFFCURVE",
"371 -135 OFFCURVE",
"289 -135 CURVE SMOOTH",
"217 -135 OFFCURVE",
"177 -110 OFFCURVE",
"153 -46 CURVE",
"83 -82 LINE",
"120 -178 OFFCURVE",
"201 -210 OFFCURVE",
"289 -210 CURVE SMOOTH",
"425 -210 OFFCURVE",
"519 -148 OFFCURVE",
"519 3 CURVE SMOOTH"
);
},
{
closed = 1;
nodes = (
"132 510 OFFCURVE",
"73 377 OFFCURVE",
"73 255 CURVE SMOOTH",
"73 133 OFFCURVE",
"132 0 OFFCURVE",
"294 0 CURVE SMOOTH",
"445 0 OFFCURVE",
"488 137 OFFCURVE",
"488 255 CURVE SMOOTH",
"488 373 OFFCURVE",
"444 510 OFFCURVE",
"294 510 CURVE SMOOTH"
);
},
{
closed = 1;
nodes = (
"384 436 OFFCURVE",
"447 373 OFFCURVE",
"447 255 CURVE SMOOTH",
"447 137 OFFCURVE",
"384 74 OFFCURVE",
"294 74 CURVE SMOOTH",
"208 74 OFFCURVE",
"156 133 OFFCURVE",
"156 255 CURVE SMOOTH",
"156 377 OFFCURVE",
"208 436 OFFCURVE",
"294 436 CURVE SMOOTH"
);
}
);
width = 610;
},
{
anchors = (
{
name = bottom;
position = "{305, -200}";
},
{
name = center;
position = "{461, 591}";
},
{
name = top;
position = "{297, 300}";
},
{
name = topright;
position = "{591, 500}";
}
);
associatedMasterId = "B33A6296-7F33-4AA4-95A6-15EAB02AACC1";
background = {
paths = (
{
closed = 1;
nodes = (
"518 500 LINE",
"468 500 LINE",
"431 442 LINE",
"447 407 LINE",
"464 250 LINE",
"437 107 LINE",
"436 -2 LINE SMOOTH",
"435 -101 OFFCURVE",
"369 -135 OFFCURVE",
"299 -135 CURVE SMOOTH",
"227 -135 OFFCURVE",
"183 -98 OFFCURVE",
"167 -46 CURVE",
"97 -82 LINE",
"131 -172 OFFCURVE",
"211 -210 OFFCURVE",
"299 -210 CURVE SMOOTH",
"419 -210 OFFCURVE",
"519 -138 OFFCURVE",
"519 3 CURVE SMOOTH"
);
},
{
closed = 1;
nodes = (
"132 510 OFFCURVE",
"73 377 OFFCURVE",
"73 255 CURVE SMOOTH",
"73 133 OFFCURVE",
"132 0 OFFCURVE",
"294 0 CURVE SMOOTH",
"445 0 OFFCURVE",
"488 137 OFFCURVE",
"488 255 CURVE SMOOTH",
"488 373 OFFCURVE",
"444 510 OFFCURVE",
"294 510 CURVE SMOOTH"
);
},
{
closed = 1;
nodes = (
"384 436 OFFCURVE",
"447 373 OFFCURVE",
"447 255 CURVE SMOOTH",
"447 137 OFFCURVE",
"384 74 OFFCURVE",
"294 74 CURVE SMOOTH",
"208 74 OFFCURVE",
"156 133 OFFCURVE",
"156 255 CURVE SMOOTH",
"156 377 OFFCURVE",
"208 436 OFFCURVE",
"294 436 CURVE SMOOTH"
);
}
);
};
layerId = "D2EE9867-FDF2-4D5E-B8DA-BF810CDBE178";
name = "6";
paths = (
{
closed = 1;
nodes = (
"518 500 LINE",
"468 500 LINE",
"431 442 LINE",
"447 407 LINE",
"464 250 LINE",
"437 107 LINE",
"436 3 LINE SMOOTH",
"435 -105 OFFCURVE",
"371 -135 OFFCURVE",
"289 -135 CURVE SMOOTH",
"217 -135 OFFCURVE",
"179 -109 OFFCURVE",
"155 -45 CURVE",
"83 -82 LINE",
"120 -178 OFFCURVE",
"201 -210 OFFCURVE",
"289 -210 CURVE SMOOTH",
"425 -210 OFFCURVE",
"519 -143 OFFCURVE",
"519 8 CURVE SMOOTH"
);
},
{
closed = 1;
nodes = (
"132 510 OFFCURVE",
"73 377 OFFCURVE",
"73 255 CURVE SMOOTH",
"73 133 OFFCURVE",
"132 0 OFFCURVE",
"294 0 CURVE SMOOTH",
"445 0 OFFCURVE",
"488 137 OFFCURVE",
"488 255 CURVE SMOOTH",
"488 373 OFFCURVE",
"444 510 OFFCURVE",
"294 510 CURVE SMOOTH"
);
},
{
closed = 1;
nodes = (
"384 436 OFFCURVE",
"447 373 OFFCURVE",
"447 255 CURVE SMOOTH",
"447 137 OFFCURVE",
"384 74 OFFCURVE",
"294 74 CURVE SMOOTH",
"208 74 OFFCURVE",
"156 133 OFFCURVE",
"156 255 CURVE SMOOTH",
"156 377 OFFCURVE",
"208 436 OFFCURVE",
"294 436 CURVE SMOOTH"
);
}
);
width = 610;
},
{
anchors = (
{
name = bottom;
position = "{305, -200}";
},
{
name = center;
position = "{461, 591}";
},
{
name = top;
position = "{297, 300}";
},
{
name = topright;
position = "{591, 500}";
}
);
associatedMasterId = "B33A6296-7F33-4AA4-95A6-15EAB02AACC1";
background = {
components = (
{
name = o;
transform = "{1, 0, 0, 1, -9, -200}";
}
);
};
layerId = "CDE6467C-34A9-476E-9E28-0C23F2221A9A";
name = "7";
paths = (
{
closed = 1;
nodes = (
"518 500 LINE",
"468 500 LINE",
"431 442 LINE",
"447 407 LINE",
"464 250 LINE",
"437 107 LINE",
"436 26 LINE SMOOTH",
"434 -115 OFFCURVE",
"371 -135 OFFCURVE",
"289 -135 CURVE SMOOTH",
"201 -135 OFFCURVE",
"177 -97 OFFCURVE",
"155 -32 CURVE",
"83 -56 LINE",
"108 -154 OFFCURVE",
"171 -210 OFFCURVE",
"289 -210 CURVE SMOOTH",
"429 -210 OFFCURVE",
"519 -139 OFFCURVE",
"519 24 CURVE SMOOTH"
);
},
{
closed = 1;
nodes = (
"132 510 OFFCURVE",
"73 377 OFFCURVE",
"73 255 CURVE SMOOTH",
"73 133 OFFCURVE",
"132 0 OFFCURVE",
"294 0 CURVE SMOOTH",
"445 0 OFFCURVE",
"488 137 OFFCURVE",
"488 255 CURVE SMOOTH",
"488 373 OFFCURVE",
"444 510 OFFCURVE",
"294 510 CURVE SMOOTH"
);
},
{
closed = 1;
nodes = (
"384 436 OFFCURVE",
"447 373 OFFCURVE",
"447 255 CURVE SMOOTH",
"447 137 OFFCURVE",
"384 74 OFFCURVE",
"294 74 CURVE SMOOTH",
"208 74 OFFCURVE",
"156 133 OFFCURVE",
"156 255 CURVE SMOOTH",
"156 377 OFFCURVE",
"208 436 OFFCURVE",
"294 436 CURVE SMOOTH"
);
}
);
width = 610;
},
{
anchors = (
{
name = bottom;
position = "{305, -200}";
},
{
name = center;
position = "{461, 591}";
},
{
name = top;
position = "{297, 300}";
},
{
name = topright;
position = "{591, 500}";
}
);
associatedMasterId = "B33A6296-7F33-4AA4-95A6-15EAB02AACC1";
background = {
paths = (
{
closed = 1;
nodes = (
"73 -143 OFFCURVE",
"167 -210 OFFCURVE",
"303 -210 CURVE SMOOTH",
"391 -210 OFFCURVE",
"472 -178 OFFCURVE",
"509 -82 CURVE",
"437 -45 LINE",
"413 -109 OFFCURVE",
"375 -135 OFFCURVE",
"303 -135 CURVE SMOOTH",
"221 -135 OFFCURVE",
"157 -105 OFFCURVE",
"156 3 CURVE SMOOTH",
"155 107 LINE",
"128 250 LINE",
"145 407 LINE",
"161 442 LINE",
"124 500 LINE",
"74 500 LINE",
"73 8 LINE SMOOTH"
);
},
{
closed = 1;
nodes = (
"148 510 OFFCURVE",
"104 373 OFFCURVE",
"104 255 CURVE SMOOTH",
"104 137 OFFCURVE",
"147 0 OFFCURVE",
"298 0 CURVE SMOOTH",
"460 0 OFFCURVE",
"519 133 OFFCURVE",
"519 255 CURVE SMOOTH",
"519 377 OFFCURVE",
"460 510 OFFCURVE",
"298 510 CURVE SMOOTH"
);
},
{
closed = 1;
nodes = (
"384 436 OFFCURVE",
"436 377 OFFCURVE",
"436 255 CURVE SMOOTH",
"436 133 OFFCURVE",
"384 74 OFFCURVE",
"298 74 CURVE SMOOTH",
"208 74 OFFCURVE",
"145 137 OFFCURVE",
"145 255 CURVE SMOOTH",
"145 373 OFFCURVE",
"208 436 OFFCURVE",
"298 436 CURVE SMOOTH"
);
}
);
};
components = (
{
name = DotWide;
transform = "{1, 0, 0, 1, -94, -516}";
}
);
layerId = "1CA91653-D24D-4950-9F83-0AF7AE7D5CA7";
name = "9";
paths = (
{
closed = 1;
nodes = (
"518 500 LINE",
"468 500 LINE",
"431 442 LINE",
"447 407 LINE",
"464 250 LINE",
"437 107 LINE",
"436 26 LINE SMOOTH",
"434 -115 OFFCURVE",
"371 -135 OFFCURVE",
"289 -135 CURVE SMOOTH",
"213 -135 OFFCURVE",
"184 -107 OFFCURVE",
"160 -45 CURVE",
"88 -82 LINE",
"123 -176 OFFCURVE",
"190 -210 OFFCURVE",
"289 -210 CURVE SMOOTH",
"429 -210 OFFCURVE",
"519 -139 OFFCURVE",
"519 24 CURVE SMOOTH"
);
},
{
closed = 1;
nodes = (
"132 510 OFFCURVE",
"73 377 OFFCURVE",
"73 255 CURVE SMOOTH",
"73 133 OFFCURVE",
"132 0 OFFCURVE",
"294 0 CURVE SMOOTH",
"445 0 OFFCURVE",
"488 137 OFFCURVE",
"488 255 CURVE SMOOTH",
"488 373 OFFCURVE",
"444 510 OFFCURVE",
"294 510 CURVE SMOOTH"
);
},
{
closed = 1;
nodes = (
"384 436 OFFCURVE",
"447 373 OFFCURVE",
"447 255 CURVE SMOOTH",
"447 137 OFFCURVE",
"384 74 OFFCURVE",
"294 74 CURVE SMOOTH",
"208 74 OFFCURVE",
"156 133 OFFCURVE",
"156 255 CURVE SMOOTH",
"156 377 OFFCURVE",
"208 436 OFFCURVE",
"294 436 CURVE SMOOTH"
);
}
);
width = 610;
},
{
anchors = (
{
name = bottom;
position = "{305, -200}";
},
{
name = center;
position = "{461, 591}";
},
{
name = top;
position = "{297, 580}";
},
{
name = topright;
position = "{591, 500}";
}
);
layerId = "B33A6296-7F33-4AA4-95A6-15EAB02AACC1";
paths = (
{
closed = 1;
nodes = (
"518 470 LINE",
"468 470 LINE",
"431 412 LINE",
"466 240 LINE",
"437 107 LINE",
"436 -4 LINE SMOOTH",
"435 -64 OFFCURVE",
"435 -165 OFFCURVE",
"292 -165 CURVE SMOOTH",
"213 -165 OFFCURVE",
"180 -134 OFFCURVE",
"156 -72 CURVE",
"87 -109 LINE",
"122 -203 OFFCURVE",
"190 -240 OFFCURVE",
"291 -240 CURVE SMOOTH",
"430 -240 OFFCURVE",
"519 -169 OFFCURVE",
"519 -6 CURVE SMOOTH"
);
},
{
closed = 1;
nodes = (
"134 480 OFFCURVE",
"73 346 OFFCURVE",
"73 235 CURVE SMOOTH",
"73 124 OFFCURVE",
"134 -10 OFFCURVE",
"289 -10 CURVE SMOOTH",
"447 -10 OFFCURVE",
"488 131 OFFCURVE",
"488 236 CURVE SMOOTH",
"488 340 OFFCURVE",
"447 480 OFFCURVE",
"289 480 CURVE SMOOTH"
);
},
{
closed = 1;
nodes = (
"384 405 OFFCURVE",
"447 340 OFFCURVE",
"447 236 CURVE SMOOTH",
"447 132 OFFCURVE",
"384 65 OFFCURVE",
"296 65 CURVE SMOOTH",
"208 65 OFFCURVE",
"156 131 OFFCURVE",
"156 235 CURVE SMOOTH",
"156 339 OFFCURVE",
"207 405 OFFCURVE",
"296 405 CURVE SMOOTH"
);
}
);
width = 610;
},
{
anchors = (
{
name = bottom;
position = "{305, -200}";
},
{
name = center;
position = "{461, 591}";
},
{
name = top;
position = "{297, 300}";
},
{
name = topright;
position = "{591, 500}";
}
);
associatedMasterId = "B33A6296-7F33-4AA4-95A6-15EAB02AACC1";
layerId = "4F5A2260-28B3-40AB-AC66-5115F57F25C3";
name = "10";
paths = (
{
closed = 1;
nodes = (
"518 470 LINE",
"468 470 LINE",
"431 412 LINE",
"447 377 LINE",
"464 250 LINE",
"437 107 LINE",
"436 6 LINE SMOOTH",
"435 -135 OFFCURVE",
"371 -155 OFFCURVE",
"289 -155 CURVE SMOOTH",
"213 -155 OFFCURVE",
"180 -124 OFFCURVE",
"156 -62 CURVE",
"87 -99 LINE",
"122 -193 OFFCURVE",
"190 -230 OFFCURVE",
"289 -230 CURVE SMOOTH",
"429 -230 OFFCURVE",
"519 -159 OFFCURVE",
"519 4 CURVE SMOOTH"
);
},
{
closed = 1;
nodes = (
"132 480 OFFCURVE",
"73 347 OFFCURVE",
"73 235 CURVE SMOOTH",
"73 123 OFFCURVE",
"132 -10 OFFCURVE",
"294 -10 CURVE SMOOTH",
"445 -10 OFFCURVE",
"488 127 OFFCURVE",
"488 235 CURVE SMOOTH",
"488 343 OFFCURVE",
"444 480 OFFCURVE",
"294 480 CURVE SMOOTH"
);
},
{
closed = 1;
nodes = (
"384 406 OFFCURVE",
"447 343 OFFCURVE",
"447 235 CURVE SMOOTH",
"447 127 OFFCURVE",
"384 64 OFFCURVE",
"294 64 CURVE SMOOTH",
"208 64 OFFCURVE",
"156 123 OFFCURVE",
"156 235 CURVE SMOOTH",
"156 347 OFFCURVE",
"208 406 OFFCURVE",
"294 406 CURVE SMOOTH"
);
}
);
width = 610;
},
{
anchors = (
{
name = bottom;
position = "{305, -200}";
},
{
name = center;
position = "{461, 591}";
},
{
name = top;
position = "{297, 580}";
},
{
name = topright;
position = "{591, 500}";
}
);
associatedMasterId = "B33A6296-7F33-4AA4-95A6-15EAB02AACC1";
layerId = "CAF51AF5-7570-4478-AD5A-E052BE3E257E";
name = "11";
paths = (
{
closed = 1;
nodes = (
"518 470 LINE",
"468 470 LINE",
"431 412 LINE",
"466 240 LINE",
"437 107 LINE",
"436 6 LINE SMOOTH",
"435 -135 OFFCURVE",
"371 -155 OFFCURVE",
"289 -155 CURVE SMOOTH",
"213 -155 OFFCURVE",
"180 -124 OFFCURVE",
"156 -62 CURVE",
"87 -99 LINE",
"122 -193 OFFCURVE",
"190 -230 OFFCURVE",
"289 -230 CURVE SMOOTH",
"429 -230 OFFCURVE",
"519 -159 OFFCURVE",
"519 4 CURVE SMOOTH"
);
},
{
closed = 1;
nodes = (
"132 480 OFFCURVE",
"73 346 OFFCURVE",
"73 235 CURVE SMOOTH",
"73 124 OFFCURVE",
"132 -10 OFFCURVE",
"294 -10 CURVE SMOOTH",
"445 -10 OFFCURVE",
"488 130 OFFCURVE",
"488 240 CURVE SMOOTH",
"488 340 OFFCURVE",
"444 480 OFFCURVE",
"294 480 CURVE SMOOTH"
);
},
{
closed = 1;
nodes = (
"384 405 OFFCURVE",
"447 340 OFFCURVE",
"447 240 CURVE SMOOTH",
"447 130 OFFCURVE",
"384 65 OFFCURVE",
"294 65 CURVE SMOOTH",
"208 65 OFFCURVE",
"156 131 OFFCURVE",
"156 235 CURVE SMOOTH",
"156 339 OFFCURVE",
"208 405 OFFCURVE",
"294 405 CURVE SMOOTH"
);
}
);
width = 610;
}
);
unicode = 0067;
},
{
glyphname = h;
layers = (
{
anchors = (
{
name = bottom;
position = "{130, 0}";
},
{
name = center;
position = "{130, 580}";
},
{
name = top;
position = "{325, 580}";
}
);
layerId = "B33A6296-7F33-4AA4-95A6-15EAB02AACC1";
paths = (
{
closed = 1;
nodes = (
"103 0 LINE",
"186 0 LINE",
"186 333 LINE",
"183 363 LINE",
"186 700 LINE",
"103 700 LINE"
);
},
{
closed = 1;
nodes = (
"506 0 LINE",
"507 286 LINE SMOOTH",
"507 401 OFFCURVE",
"437 480 OFFCURVE",
"331 480 CURVE SMOOTH",
"228 480 OFFCURVE",
"145 405 OFFCURVE",
"145 213 CURVE",
"186 213 LINE",
"186 285 OFFCURVE",
"194 405 OFFCURVE",
"316 405 CURVE SMOOTH",
"424 405 OFFCURVE",
"424 310 OFFCURVE",
"424 286 CURVE SMOOTH",
"424 264 LINE",
"423 0 LINE"
);
}
);
width = 610;
},
{
anchors = (
{
name = bottom;
position = "{130, 0}";
},
{
name = center;
position = "{130, 250}";
},
{
name = top;
position = "{128, 500}";
}
);
associatedMasterId = "B33A6296-7F33-4AA4-95A6-15EAB02AACC1";
background = {
paths = (
{
closed = 1;
nodes = (
"95 0 LINE",
"178 0 LINE"
);
},
{
closed = 1;
nodes = (
"95 0 LINE",
"178 0 LINE",
"178 363 LINE",
"181 407 LINE",
"159 500 LINE",
"95 500 LINE"
);
},
{
closed = 1;
nodes = (
"516 0 LINE",
"516 266 LINE SMOOTH",
"516 442 OFFCURVE",
"437 510 OFFCURVE",
"323 510 CURVE SMOOTH",
"193 510 OFFCURVE",
"137 413 OFFCURVE",
"137 255 CURVE",
"178 255 LINE",
"178 325 OFFCURVE",
"191 435 OFFCURVE",
"321 435 CURVE SMOOTH",
"378 435 OFFCURVE",
"433 410 OFFCURVE",
"433 266 CURVE SMOOTH",
"433 0 LINE"
);
}
);
};
layerId = "6317B4E3-7B32-4787-8EDD-2DF72B9DD52C";
name = "1";
paths = (
{
closed = 1;
nodes = (
"95 0 LINE",
"178 0 LINE",
"178 363 LINE",
"174 392 LINE",
"178 700 LINE",
"95 700 LINE"
);
},
{
closed = 1;
nodes = (
"517 0 LINE",
"517 266 LINE SMOOTH",
"517 443 OFFCURVE",
"439 510 OFFCURVE",
"319 510 CURVE SMOOTH",
"199 510 OFFCURVE",
"137 413 OFFCURVE",
"137 255 CURVE",
"178 255 LINE",
"178 325 OFFCURVE",
"197 435 OFFCURVE",
"317 435 CURVE SMOOTH",
"374 435 OFFCURVE",
"434 414 OFFCURVE",
"434 266 CURVE SMOOTH",
"434 0 LINE"
);
}
);
width = 610;
},
{
anchors = (
{
name = bottom;
position = "{130, 0}";
},
{
name = center;
position = "{130, 250}";
},
{
name = top;
position = "{128, 500}";
}
);
associatedMasterId = "B33A6296-7F33-4AA4-95A6-15EAB02AACC1";
background = {
components = (
{
name = n;
transform = "{1, 0, 0, 1, -10, 0}";
}
);
};
layerId = "C0D508B4-9642-48FD-A995-A7085050BAA5";
name = "2";
paths = (
{
closed = 1;
nodes = (
"95 0 LINE",
"178 0 LINE",
"178 363 LINE",
"176 392 LINE",
"176 700 LINE",
"95 700 LINE"
);
},
{
closed = 1;
nodes = (
"496 0 LINE",
"496 336 LINE SMOOTH",
"496 402 OFFCURVE",
"468 510 OFFCURVE",
"314 510 CURVE SMOOTH",
"211 510 OFFCURVE",
"137 435 OFFCURVE",
"137 243 CURVE",
"178 243 LINE",
"178 311 OFFCURVE",
"186 435 OFFCURVE",
"318 435 CURVE SMOOTH",
"389 435 OFFCURVE",
"413 391 OFFCURVE",
"413 316 CURVE SMOOTH",
"413 0 LINE"
);
}
);
width = 610;
},
{
anchors = (
{
name = bottom;
position = "{130, 0}";
},
{
name = center;
position = "{130, 250}";
},
{
name = top;
position = "{128, 500}";
}
);
associatedMasterId = "B33A6296-7F33-4AA4-95A6-15EAB02AACC1";
components = (
{
name = DotWide;
transform = "{1, 0, 0, 1, 143, 38}";
}
);
layerId = "21FB7946-EE8C-4C0C-A005-AB94365DB189";
name = "3";
paths = (
{
closed = 1;
nodes = (
"103 0 LINE",
"186 0 LINE",
"186 333 LINE",
"183 363 LINE",
"186 700 LINE",
"103 700 LINE"
);
},
{
closed = 1;
nodes = (
"506 0 LINE",
"507 286 LINE SMOOTH",
"507 352 OFFCURVE",
"478 480 OFFCURVE",
"325 480 CURVE SMOOTH",
"231 480 OFFCURVE",
"145 405 OFFCURVE",
"145 213 CURVE",
"186 213 LINE",
"186 281 OFFCURVE",
"194 405 OFFCURVE",
"313 405 CURVE SMOOTH",
"407 405 OFFCURVE",
"424 346 OFFCURVE",
"424 286 CURVE SMOOTH",
"424 264 LINE",
"423 0 LINE"
);
}
);
width = 610;
},
{
anchors = (
{
name = bottom;
position = "{130, 0}";
},
{
name = center;
position = "{130, 580}";
},
{
name = top;
position = "{325, 580}";
}
);
associatedMasterId = "B33A6296-7F33-4AA4-95A6-15EAB02AACC1";
layerId = "F7197C7F-62C5-43EF-9355-6FA6A290AFCA";
name = "4";
paths = (
{
closed = 1;
nodes = (
"103 0 LINE",
"186 0 LINE",
"186 333 LINE",
"183 363 LINE",
"186 700 LINE",
"103 700 LINE"
);
},
{
closed = 1;
nodes = (
"506 0 LINE",
"507 286 LINE SMOOTH",
"507 352 OFFCURVE",
"478 480 OFFCURVE",
"325 480 CURVE SMOOTH",
"231 480 OFFCURVE",
"145 405 OFFCURVE",
"145 213 CURVE",
"186 213 LINE",
"186 281 OFFCURVE",
"194 405 OFFCURVE",
"313 405 CURVE SMOOTH",
"407 405 OFFCURVE",
"424 341 OFFCURVE",
"424 286 CURVE SMOOTH",
"424 264 LINE",
"423 0 LINE"
);
}
);
width = 610;
}
);
unicode = 0068;
},
{
glyphname = i;
layers = (
{
components = (
{
name = idotless;
},
{
name = dotaccentcomb;
transform = "{1, 0, 0, 1, -5, 50}";
}
);
layerId = "B33A6296-7F33-4AA4-95A6-15EAB02AACC1";
width = 610;
},
{
associatedMasterId = "B33A6296-7F33-4AA4-95A6-15EAB02AACC1";
components = (
{
name = idotless;
}
);
layerId = "DFE0AB2B-A6F1-4938-B97A-12A3B08A0772";
name = "Regular Dec 22 16, 22:28";
paths = (
{
closed = 1;
nodes = (
"326 592 OFFCURVE",
"352 619 OFFCURVE",
"352 651 CURVE SMOOTH",
"352 683 OFFCURVE",
"326 710 OFFCURVE",
"294 710 CURVE SMOOTH",
"261 710 OFFCURVE",
"235 683 OFFCURVE",
"235 651 CURVE SMOOTH",
"235 619 OFFCURVE",
"261 592 OFFCURVE",
"294 592 CURVE SMOOTH"
);
}
);
width = 610;
}
);
unicode = 0069;
},
{
glyphname = idotless;
layers = (
{
anchors = (
{
name = bottom;
position = "{310, 0}";
},
{
name = ogonek;
position = "{369, 10}";
},
{
name = top;
position = "{300, 580}";
}
);
layerId = "B33A6296-7F33-4AA4-95A6-15EAB02AACC1";
paths = (
{
closed = 1;
nodes = (
"263 0 LINE",
"346 0 LINE",
"346 470 LINE SMOOTH",
"263 470 LINE SMOOTH"
);
},
{
closed = 1;
nodes = (
"84 0 LINE",
"526 0 LINE",
"526 75 LINE SMOOTH",
"84 75 LINE"
);
},
{
closed = 1;
nodes = (
"104 395 LINE SMOOTH",
"316 395 LINE SMOOTH",
"316 470 LINE SMOOTH",
"104 470 LINE SMOOTH"
);
}
);
width = 610;
}
);
unicode = 0131;
},
{
color = 10;
glyphname = ij;
layers = (
{
layerId = "B33A6296-7F33-4AA4-95A6-15EAB02AACC1";
paths = (
{
closed = 1;
nodes = (
"113 0 LINE",
"195 0 LINE",
"193 470 LINE SMOOTH",
"112 470 LINE SMOOTH"
);
},
{
closed = 1;
nodes = (
"211 584 LINE",
"211 700 LINE",
"95 700 LINE",
"95 584 LINE"
);
},
{
closed = 1;
nodes = (
"150 470 LINE",
"150 395 LINE",
"474 395 LINE",
"429 440 LINE",
"429 -50 LINE SMOOTH",
"429 -120 OFFCURVE",
"394 -165 OFFCURVE",
"313 -165 CURVE SMOOTH",
"262 -165 OFFCURVE",
"203 -147 OFFCURVE",
"177 -76 CURVE",
"107 -112 LINE",
"138 -198 OFFCURVE",
"222 -240 OFFCURVE",
"314 -240 CURVE SMOOTH",
"434 -240 OFFCURVE",
"512 -168 OFFCURVE",
"512 -48 CURVE SMOOTH",
"512 470 LINE"
);
},
{
closed = 1;
nodes = (
"511 584 LINE",
"511 700 LINE",
"395 700 LINE",
"395 584 LINE"
);
}
);
width = 610;
},
{
anchors = (
{
name = bottom;
position = "{319, 0}";
},
{
name = top;
position = "{319, 500}";
}
);
associatedMasterId = "B33A6296-7F33-4AA4-95A6-15EAB02AACC1";
layerId = "81040CC1-AC4D-4A06-A87B-D336F6BE9279";
name = "Regular Dec 30 17, 18:02";
paths = (
{
closed = 1;
nodes = (
"113 0 LINE",
"195 0 LINE",
"193 470 LINE SMOOTH",
"112 470 LINE SMOOTH"
);
},
{
closed = 1;
nodes = (
"132 -146 LINE",
"172 -180 OFFCURVE",
"231 -206 OFFCURVE",
"294 -209 CURVE SMOOTH",
"414 -214 OFFCURVE",
"512 -149 OFFCURVE",
"512 -17 CURVE SMOOTH",
"512 470 LINE",
"430 470 LINE",
"430 10 LINE SMOOTH",
"430 -101 OFFCURVE",
"390 -138 OFFCURVE",
"291 -134 CURVE SMOOTH",
"239 -132 OFFCURVE",
"211 -111 OFFCURVE",
"183 -90 CURVE"
);
},
{
closed = 1;
nodes = (
"482 395 LINE SMOOTH",
"482 470 LINE SMOOTH",
"123 470 LINE SMOOTH",
"123 395 LINE SMOOTH"
);
},
{
closed = 1;
nodes = (
"211 584 LINE",
"211 700 LINE",
"95 700 LINE",
"95 584 LINE"
);
},
{
closed = 1;
nodes = (
"516 583 LINE",
"516 699 LINE",
"400 699 LINE",
"400 583 LINE"
);
}
);
width = 610;
},
{
anchors = (
{
name = bottom;
position = "{319, 0}";
},
{
name = top;
position = "{319, 500}";
}
);
associatedMasterId = "B33A6296-7F33-4AA4-95A6-15EAB02AACC1";
layerId = "5C44FDEB-A8C6-4B62-9D58-67A6E311CC66";
name = "Regular Dec 30 17, 18:04";
paths = (
{
closed = 1;
nodes = (
"113 0 LINE",
"195 0 LINE",
"193 470 LINE SMOOTH",
"112 470 LINE SMOOTH"
);
},
{
closed = 1;
nodes = (
"211 584 LINE",
"211 700 LINE",
"95 700 LINE",
"95 584 LINE"
);
},
{
closed = 1;
nodes = (
"150 470 LINE",
"150 395 LINE",
"474 395 LINE",
"429 440 LINE",
"429 -50 LINE SMOOTH",
"429 -120 OFFCURVE",
"394 -165 OFFCURVE",
"313 -165 CURVE SMOOTH",
"262 -165 OFFCURVE",
"203 -147 OFFCURVE",
"177 -76 CURVE",
"107 -112 LINE",
"138 -198 OFFCURVE",
"222 -240 OFFCURVE",
"314 -240 CURVE SMOOTH",
"434 -240 OFFCURVE",
"512 -168 OFFCURVE",
"512 -48 CURVE SMOOTH",
"512 470 LINE"
);
},
{
closed = 1;
nodes = (
"511 584 LINE",
"511 700 LINE",
"395 700 LINE",
"395 584 LINE"
);
}
);
width = 610;
}
);
unicode = 0133;
},
{
glyphname = j;
layers = (
{
anchors = (
{
name = bottom;
position = "{300, 0}";
},
{
name = top;
position = "{300, 500}";
}
);
associatedMasterId = "B33A6296-7F33-4AA4-95A6-15EAB02AACC1";
layerId = "EAC59616-39A8-4AA6-9B58-65A1CE0FE1CE";
name = "1";
paths = (
{
closed = 1;
nodes = (
"458 425 LINE SMOOTH",
"458 500 LINE SMOOTH",
"136 500 LINE SMOOTH",
"136 425 LINE SMOOTH"
);
},
{
closed = 1;
nodes = (
"476 592 OFFCURVE",
"502 619 OFFCURVE",
"502 651 CURVE SMOOTH",
"502 683 OFFCURVE",
"476 710 OFFCURVE",
"444 710 CURVE SMOOTH",
"411 710 OFFCURVE",
"385 683 OFFCURVE",
"385 651 CURVE SMOOTH",
"385 619 OFFCURVE",
"411 592 OFFCURVE",
"444 592 CURVE SMOOTH"
);
},
{
closed = 1;
nodes = (
"108 -146 LINE",
"148 -180 OFFCURVE",
"207 -206 OFFCURVE",
"270 -209 CURVE SMOOTH",
"390 -215 OFFCURVE",
"488 -149 OFFCURVE",
"488 -17 CURVE SMOOTH",
"488 500 LINE",
"406 500 LINE",
"406 10 LINE SMOOTH",
"406 -101 OFFCURVE",
"366 -138 OFFCURVE",
"267 -134 CURVE SMOOTH",
"215 -132 OFFCURVE",
"187 -111 OFFCURVE",
"159 -90 CURVE"
);
}
);
width = 610;
},
{
anchors = (
{
name = bottom;
position = "{300, 0}";
},
{
name = top;
position = "{300, 500}";
}
);
associatedMasterId = "B33A6296-7F33-4AA4-95A6-15EAB02AACC1";
background = {
components = (
{
name = s;
transform = "{1, 0, 0, 1, -19, -200}";
}
);
};
layerId = "5F5122B5-725B-49A5-ACB6-34893B6BE957";
name = "2";
paths = (
{
closed = 1;
nodes = (
"458 425 LINE SMOOTH",
"458 500 LINE SMOOTH",
"136 500 LINE SMOOTH",
"136 425 LINE SMOOTH"
);
},
{
closed = 1;
nodes = (
"83 -82 LINE",
"113 -170 OFFCURVE",
"207 -206 OFFCURVE",
"270 -209 CURVE SMOOTH",
"390 -215 OFFCURVE",
"488 -149 OFFCURVE",
"488 -17 CURVE SMOOTH",
"488 500 LINE",
"405 500 LINE",
"405 10 LINE SMOOTH",
"405 -101 OFFCURVE",
"366 -138 OFFCURVE",
"267 -134 CURVE SMOOTH",
"215 -132 OFFCURVE",
"171 -101 OFFCURVE",
"153 -46 CURVE"
);
},
{
closed = 1;
nodes = (
"496 604 LINE",
"496 700 LINE",
"400 700 LINE",
"400 604 LINE"
);
}
);
width = 610;
},
{
anchors = (
{
name = bottom;
position = "{300, 0}";
},
{
name = top;
position = "{300, 500}";
}
);
associatedMasterId = "B33A6296-7F33-4AA4-95A6-15EAB02AACC1";
background = {
components = (
{
name = a;
transform = "{1, 0, 0, -1, 24, 300}";
}
);
};
layerId = "A08D3525-8C04-4B50-AEA8-AC5EC024DD28";
name = "3";
paths = (
{
closed = 1;
nodes = (
"136 500 LINE",
"136 425 LINE",
"450 425 LINE",
"405 470 LINE",
"405 -41 LINE SMOOTH",
"405 -101 OFFCURVE",
"366 -135 OFFCURVE",
"304 -135 CURVE SMOOTH",
"240 -135 OFFCURVE",
"201 -104 OFFCURVE",
"180 -46 CURVE",
"110 -82 LINE",
"148 -168 OFFCURVE",
"210 -210 OFFCURVE",
"307 -210 CURVE SMOOTH",
"409 -210 OFFCURVE",
"488 -149 OFFCURVE",
"488 -39 CURVE SMOOTH",
"488 500 LINE"
);
},
{
closed = 1;
nodes = (
"496 604 LINE",
"496 700 LINE",
"400 700 LINE",
"400 604 LINE"
);
}
);
width = 610;
},
{
anchors = (
{
name = bottom;
position = "{300, 0}";
},
{
name = top;
position = "{300, 500}";
}
);
associatedMasterId = "B33A6296-7F33-4AA4-95A6-15EAB02AACC1";
background = {
components = (
{
name = s;
transform = "{1, 0, 0, 1, -19, -200}";
}
);
guideLines = (
{
angle = 270;
position = "{488, 54}";
}
);
};
layerId = "10C6ACC3-D176-4F6F-958F-A6D1F8CD5392";
name = "4";
paths = (
{
closed = 1;
nodes = (
"136 500 LINE",
"136 425 LINE",
"450 425 LINE",
"405 470 LINE",
"405 -20 LINE SMOOTH",
"405 -90 OFFCURVE",
"366 -135 OFFCURVE",
"298 -135 CURVE SMOOTH",
"240 -135 OFFCURVE",
"182 -122 OFFCURVE",
"153 -46 CURVE",
"83 -82 LINE",
"116 -168 OFFCURVE",
"197 -210 OFFCURVE",
"307 -210 CURVE SMOOTH",
"409 -210 OFFCURVE",
"488 -138 OFFCURVE",
"488 -18 CURVE SMOOTH",
"488 500 LINE"
);
},
{
closed = 1;
nodes = (
"496 604 LINE",
"496 700 LINE",
"400 700 LINE",
"400 604 LINE"
);
}
);
width = 610;
},
{
anchors = (
{
name = bottom;
position = "{300, 0}";
},
{
name = center;
position = "{430, 591}";
},
{
name = top;
position = "{300, 500}";
},
{
name = topright;
position = "{560, 500}";
}
);
associatedMasterId = "B33A6296-7F33-4AA4-95A6-15EAB02AACC1";
layerId = "27A5F287-8BE2-4B47-90EC-1B68B7408B90";
name = "6";
paths = (
{
closed = 1;
nodes = (
"136 500 LINE",
"136 425 LINE",
"450 425 LINE",
"405 470 LINE",
"405 -20 LINE",
"488 -18 LINE",
"488 500 LINE"
);
},
{
closed = 1;
nodes = (
"496 604 LINE",
"496 700 LINE",
"400 700 LINE",
"400 604 LINE"
);
},
{
closed = 1;
nodes = (
"487 500 LINE",
"437 500 LINE",
"405 470 LINE",
"406 107 LINE",
"405 -2 LINE SMOOTH",
"404 -101 OFFCURVE",
"338 -135 OFFCURVE",
"268 -135 CURVE SMOOTH",
"196 -135 OFFCURVE",
"152 -98 OFFCURVE",
"136 -46 CURVE",
"66 -82 LINE",
"100 -172 OFFCURVE",
"180 -210 OFFCURVE",
"268 -210 CURVE SMOOTH",
"388 -210 OFFCURVE",
"488 -138 OFFCURVE",
"488 3 CURVE SMOOTH"
);
}
);
width = 610;
},
{
components = (
{
name = jdotless;
},
{
name = dotaccentcomb;
transform = "{1, 0, 0, 1, 125, 50}";
}
);
layerId = "B33A6296-7F33-4AA4-95A6-15EAB02AACC1";
width = 610;
},
{
anchors = (
{
name = bottom;
position = "{300, 0}";
},
{
name = top;
position = "{300, 500}";
}
);
associatedMasterId = "B33A6296-7F33-4AA4-95A6-15EAB02AACC1";
components = (
{
name = DotWide;
transform = "{1, 0, 0, 1, 162, -75}";
}
);
layerId = "C946215A-45F0-4C0C-A834-7EC8E4B2CF8B";
name = "7";
paths = (
{
closed = 1;
nodes = (
"136 500 LINE",
"136 425 LINE",
"450 425 LINE",
"405 470 LINE",
"405 -20 LINE SMOOTH",
"405 -90 OFFCURVE",
"366 -135 OFFCURVE",
"298 -135 CURVE SMOOTH",
"240 -135 OFFCURVE",
"182 -122 OFFCURVE",
"153 -46 CURVE",
"83 -82 LINE",
"115 -169 OFFCURVE",
"196 -210 OFFCURVE",
"295 -210 CURVE SMOOTH",
"408 -210 OFFCURVE",
"488 -138 OFFCURVE",
"488 -18 CURVE SMOOTH",
"488 500 LINE"
);
},
{
closed = 1;
nodes = (
"496 604 LINE",
"496 700 LINE",
"400 700 LINE",
"400 604 LINE"
);
}
);
width = 610;
},
{
anchors = (
{
name = bottom;
position = "{300, 0}";
},
{
name = top;
position = "{300, 580}";
}
);
associatedMasterId = "B33A6296-7F33-4AA4-95A6-15EAB02AACC1";
layerId = "F2695F22-60F1-47A9-BD02-2B22B6246C93";
name = "8";
paths = (
{
closed = 1;
nodes = (
"136 470 LINE",
"136 395 LINE",
"450 395 LINE",
"405 440 LINE",
"405 -50 LINE SMOOTH",
"405 -120 OFFCURVE",
"366 -165 OFFCURVE",
"298 -165 CURVE SMOOTH",
"240 -165 OFFCURVE",
"182 -152 OFFCURVE",
"153 -76 CURVE",
"83 -112 LINE",
"115 -199 OFFCURVE",
"196 -240 OFFCURVE",
"295 -240 CURVE SMOOTH",
"408 -240 OFFCURVE",
"488 -168 OFFCURVE",
"488 -48 CURVE SMOOTH",
"488 470 LINE"
);
},
{
closed = 1;
nodes = (
"497 584 LINE",
"497 700 LINE",
"381 700 LINE",
"381 584 LINE"
);
}
);
width = 610;
}
);
unicode = 006A;
},
{
glyphname = jdotless;
layers = (
{
anchors = (
{
name = bottom;
position = "{307, 0}";
},
{
name = top;
position = "{430, 580}";
}
);
layerId = "B33A6296-7F33-4AA4-95A6-15EAB02AACC1";
paths = (
{
closed = 1;
nodes = (
"133 470 LINE",
"133 395 LINE",
"457 395 LINE",
"412 440 LINE",
"412 -50 LINE SMOOTH",
"412 -120 OFFCURVE",
"377 -165 OFFCURVE",
"296 -165 CURVE SMOOTH",
"245 -165 OFFCURVE",
"186 -147 OFFCURVE",
"160 -76 CURVE",
"90 -112 LINE",
"121 -198 OFFCURVE",
"205 -240 OFFCURVE",
"297 -240 CURVE SMOOTH",
"417 -240 OFFCURVE",
"495 -168 OFFCURVE",
"495 -48 CURVE SMOOTH",
"495 470 LINE"
);
}
);
width = 610;
}
);
unicode = 0237;
},
{
glyphname = k;
layers = (
{
anchors = (
{
name = bottom;
position = "{285, 0}";
},
{
name = top;
position = "{305, 580}";
}
);
background = {
components = (
{
name = h;
transform = "{1, 0, 0, 1, -9, 0}";
}
);
};
layerId = "B33A6296-7F33-4AA4-95A6-15EAB02AACC1";
paths = (
{
closed = 1;
nodes = (
"519 0 LINE",
"285 330 LINE",
"291 270 LINE",
"481 470 LINE",
"377 470 LINE",
"151 215 LINE",
"174 204 LINE",
"174 700 LINE",
"91 700 LINE",
"91 0 LINE",
"174 0 LINE",
"174 183 LINE",
"144 104 LINE",
"269 246 LINE",
"235 270 LINE",
"422 0 LINE"
);
}
);
width = 610;
},
{
anchors = (
{
name = bottom;
position = "{285, 0}";
},
{
name = top;
position = "{305, 500}";
}
);
associatedMasterId = "B33A6296-7F33-4AA4-95A6-15EAB02AACC1";
layerId = "B31E0D09-49B6-4612-925E-3D325B591CE5";
name = "1";
paths = (
{
closed = 1;
nodes = (
"96 0 LINE",
"178 0 LINE",
"177 710 LINE",
"95 710 LINE"
);
},
{
closed = 1;
nodes = (
"134 188 LINE",
"138 73 LINE",
"495 500 LINE",
"395 500 LINE"
);
},
{
closed = 1;
nodes = (
"515 0 LINE",
"300 333 LINE",
"256 269 LINE SMOOTH",
"420 0 LINE"
);
}
);
width = 610;
},
{
anchors = (
{
name = bottom;
position = "{285, 0}";
},
{
name = top;
position = "{305, 500}";
}
);
associatedMasterId = "B33A6296-7F33-4AA4-95A6-15EAB02AACC1";
layerId = "29F013C1-3414-4F61-B220-4381F80CE0EF";
name = "2";
paths = (
{
closed = 1;
nodes = (
"96 0 LINE",
"179 0 LINE",
"178 700 LINE",
"95 700 LINE"
);
},
{
closed = 1;
nodes = (
"101 180 LINE",
"159 126 LINE",
"501 500 LINE",
"395 500 LINE"
);
},
{
closed = 1;
nodes = (
"535 0 LINE",
"303 364 LINE",
"244 307 LINE SMOOTH",
"438 0 LINE"
);
}
);
width = 610;
},
{
anchors = (
{
name = bottom;
position = "{285, 0}";
},
{
name = top;
position = "{305, 500}";
}
);
associatedMasterId = "B33A6296-7F33-4AA4-95A6-15EAB02AACC1";
background = {
components = (
{
name = h;
transform = "{1, 0, 0, 1, -9, 0}";
}
);
};
layerId = "143F0962-6D93-458F-8E28-8EEFFBEE762D";
name = "3";
paths = (
{
closed = 1;
nodes = (
"96 0 LINE",
"179 0 LINE",
"178 230 LINE",
"179 700 LINE",
"96 700 LINE"
);
},
{
closed = 1;
nodes = (
"101 180 LINE",
"158 126 LINE",
"490 500 LINE",
"385 500 LINE"
);
},
{
closed = 1;
nodes = (
"535 0 LINE",
"303 364 LINE",
"244 307 LINE SMOOTH",
"438 0 LINE"
);
}
);
width = 610;
},
{
anchors = (
{
name = bottom;
position = "{285, 0}";
},
{
name = top;
position = "{305, 500}";
}
);
associatedMasterId = "B33A6296-7F33-4AA4-95A6-15EAB02AACC1";
background = {
components = (
{
name = h;
transform = "{1, 0, 0, 1, -9, 0}";
}
);
};
layerId = "D37C7505-A5FB-497B-A3B7-BADF1F882003";
name = "4";
paths = (
{
closed = 1;
nodes = (
"91 0 LINE",
"174 0 LINE",
"174 700 LINE",
"91 700 LINE"
);
},
{
closed = 1;
nodes = (
"105 168 LINE",
"163 126 LINE",
"494 500 LINE",
"389 500 LINE"
);
},
{
closed = 1;
nodes = (
"519 0 LINE",
"300 308 LINE",
"228 275 LINE SMOOTH",
"422 0 LINE"
);
}
);
width = 610;
}
);
unicode = 006B;
},
{
glyphname = l;
layers = (
{
anchors = (
{
name = bottom;
position = "{305, 0}";
},
{
name = center;
position = "{305, 388}";
},
{
name = top;
position = "{305, 759}";
},
{
name = topright;
position = "{590, 500}";
}
);
layerId = "B33A6296-7F33-4AA4-95A6-15EAB02AACC1";
paths = (
{
closed = 1;
nodes = (
"264 0 LINE",
"346 0 LINE",
"345 700 LINE",
"263 700 LINE"
);
},
{
closed = 1;
nodes = (
"94 0 LINE",
"516 0 LINE",
"516 75 LINE",
"94 75 LINE"
);
},
{
closed = 1;
nodes = (
"124 625 LINE",
"346 625 LINE",
"346 700 LINE",
"124 700 LINE"
);
}
);
width = 610;
}
);
unicode = 006C;
},
{
glyphname = m;
layers = (
{
anchors = (
{
name = bottom;
position = "{312, 0}";
},
{
name = top;
position = "{300, 580}";
}
);
background = {
components = (
{
name = n;
transform = "{1, 0, 0, 1, -62, 0}";
}
);
};
layerId = "B33A6296-7F33-4AA4-95A6-15EAB02AACC1";
paths = (
{
closed = 1;
nodes = (
"41 0 LINE",
"125 0 LINE",
"123 367 LINE",
"131 411 LINE",
"94 470 LINE",
"42 470 LINE"
);
},
{
closed = 1;
nodes = (
"346 0 LINE",
"346 259 LINE SMOOTH",
"346 309 OFFCURVE",
"346 480 OFFCURVE",
"217 480 CURVE SMOOTH",
"110 480 OFFCURVE",
"89 364 OFFCURVE",
"89 287 CURVE",
"123 216 LINE",
"123 357 OFFCURVE",
"158 408 OFFCURVE",
"204 408 CURVE SMOOTH",
"258 408 OFFCURVE",
"263 339 OFFCURVE",
"263 272 CURVE SMOOTH",
"265 0 LINE"
);
},
{
closed = 1;
nodes = (
"569 -3 LINE",
"569 269 LINE SMOOTH",
"569 330 OFFCURVE",
"573 480 OFFCURVE",
"442 480 CURVE SMOOTH",
"334 480 OFFCURVE",
"301 360 OFFCURVE",
"301 284 CURVE",
"346 213 LINE",
"346 354 OFFCURVE",
"381 405 OFFCURVE",
"427 405 CURVE SMOOTH",
"486 405 OFFCURVE",
"486 323 OFFCURVE",
"486 269 CURVE SMOOTH",
"486 -3 LINE"
);
}
);
width = 610;
},
{
anchors = (
{
name = bottom;
position = "{312, 0}";
},
{
name = top;
position = "{300, 300}";
}
);
associatedMasterId = "B33A6296-7F33-4AA4-95A6-15EAB02AACC1";
layerId = "1378F247-FF57-4CBB-8955-EFE7A316BDCA";
name = "1";
paths = (
{
closed = 1;
nodes = (
"43 0 LINE",
"126 0 LINE",
"126 395 LINE",
"122 436 LINE",
"107 500 LINE",
"43 500 LINE"
);
},
{
closed = 1;
nodes = (
"346 0 LINE",
"346 299 LINE SMOOTH",
"346 422 OFFCURVE",
"333 510 OFFCURVE",
"222 510 CURVE SMOOTH",
"127 510 OFFCURVE",
"89 391 OFFCURVE",
"89 314 CURVE",
"126 314 LINE",
"126 384 OFFCURVE",
"172 435 OFFCURVE",
"214 435 CURVE SMOOTH",
"258 435 OFFCURVE",
"263 406 OFFCURVE",
"263 299 CURVE SMOOTH",
"263 0 LINE"
);
},
{
closed = 1;
nodes = (
"566 0 LINE",
"566 299 LINE SMOOTH",
"566 422 OFFCURVE",
"553 510 OFFCURVE",
"442 510 CURVE SMOOTH",
"347 510 OFFCURVE",
"309 391 OFFCURVE",
"309 314 CURVE",
"346 314 LINE",
"346 384 OFFCURVE",
"392 435 OFFCURVE",
"434 435 CURVE SMOOTH",
"478 435 OFFCURVE",
"483 406 OFFCURVE",
"483 299 CURVE SMOOTH",
"483 0 LINE"
);
}
);
width = 610;
},
{
anchors = (
{
name = bottom;
position = "{312, 0}";
},
{
name = top;
position = "{300, 300}";
}
);
associatedMasterId = "B33A6296-7F33-4AA4-95A6-15EAB02AACC1";
background = {
anchors = (
{
name = bottom;
position = "{267, 0}";
},
{
name = center;
position = "{82, 250}";
},
{
name = top;
position = "{266, 300}";
}
);
hints = (
{
horizontal = 1;
place = "{82.445, 0}";
type = Stem;
}
);
paths = (
{
closed = 1;
nodes = (
"43 0 LINE",
"126 0 LINE"
);
},
{
closed = 1;
nodes = (
"43 0 LINE",
"126 0 LINE",
"126 363 LINE",
"129 407 LINE",
"107 500 LINE",
"43 500 LINE"
);
},
{
closed = 1;
nodes = (
"464 0 LINE",
"464 266 LINE SMOOTH",
"464 442 OFFCURVE",
"385 510 OFFCURVE",
"271 510 CURVE SMOOTH",
"141 510 OFFCURVE",
"85 413 OFFCURVE",
"85 255 CURVE",
"126 255 LINE",
"126 325 OFFCURVE",
"139 435 OFFCURVE",
"269 435 CURVE SMOOTH",
"326 435 OFFCURVE",
"381 410 OFFCURVE",
"381 266 CURVE SMOOTH",
"381 0 LINE"
);
}
);
};
layerId = "DDADB69E-54D6-4F29-A175-61B8FF665C80";
name = "2";
paths = (
{
closed = 1;
nodes = (
"43 0 LINE",
"126 0 LINE",
"126 395 LINE",
"122 436 LINE",
"107 500 LINE",
"43 500 LINE"
);
},
{
closed = 1;
nodes = (
"346 0 LINE",
"346 240 LINE SMOOTH",
"346 363 OFFCURVE",
"333 510 OFFCURVE",
"222 510 CURVE SMOOTH",
"107 510 OFFCURVE",
"85 332 OFFCURVE",
"85 255 CURVE",
"126 255 LINE",
"126 325 OFFCURVE",
"152 435 OFFCURVE",
"214 435 CURVE SMOOTH",
"258 435 OFFCURVE",
"263 347 OFFCURVE",
"263 240 CURVE SMOOTH",
"263 0 LINE"
);
},
{
closed = 1;
nodes = (
"566 0 LINE",
"566 299 LINE SMOOTH",
"566 422 OFFCURVE",
"553 510 OFFCURVE",
"442 510 CURVE SMOOTH",
"327 510 OFFCURVE",
"305 332 OFFCURVE",
"305 255 CURVE",
"346 255 LINE",
"346 325 OFFCURVE",
"372 435 OFFCURVE",
"434 435 CURVE SMOOTH",
"478 435 OFFCURVE",
"483 406 OFFCURVE",
"483 299 CURVE SMOOTH",
"483 0 LINE"
);
}
);
width = 610;
},
{
anchors = (
{
name = bottom;
position = "{312, 0}";
},
{
name = top;
position = "{300, 300}";
}
);
associatedMasterId = "B33A6296-7F33-4AA4-95A6-15EAB02AACC1";
background = {
components = (
{
name = n;
transform = "{1, 0, 0, 1, -60, 0}";
}
);
};
layerId = "072CB827-0083-4DFB-963B-64BC813329F8";
name = "3";
paths = (
{
closed = 1;
nodes = (
"43 0 LINE",
"123 0 LINE",
"124 363 LINE",
"131 441 LINE",
"94 500 LINE",
"43 500 LINE"
);
},
{
closed = 1;
nodes = (
"346 0 LINE",
"346 299 LINE SMOOTH",
"346 422 OFFCURVE",
"333 510 OFFCURVE",
"222 510 CURVE SMOOTH",
"127 510 OFFCURVE",
"89 391 OFFCURVE",
"89 314 CURVE",
"124 255 LINE",
"124 325 OFFCURVE",
"172 435 OFFCURVE",
"214 435 CURVE SMOOTH",
"258 435 OFFCURVE",
"263 406 OFFCURVE",
"263 299 CURVE SMOOTH",
"263 0 LINE"
);
},
{
closed = 1;
nodes = (
"566 0 LINE",
"566 299 LINE SMOOTH",
"566 422 OFFCURVE",
"553 510 OFFCURVE",
"442 510 CURVE SMOOTH",
"347 510 OFFCURVE",
"309 391 OFFCURVE",
"309 314 CURVE",
"346 314 LINE",
"346 384 OFFCURVE",
"392 435 OFFCURVE",
"434 435 CURVE SMOOTH",
"478 435 OFFCURVE",
"483 406 OFFCURVE",
"483 299 CURVE SMOOTH",
"483 0 LINE"
);
}
);
width = 610;
},
{
anchors = (
{
name = bottom;
position = "{312, 0}";
},
{
name = top;
position = "{300, 300}";
}
);
associatedMasterId = "B33A6296-7F33-4AA4-95A6-15EAB02AACC1";
background = {
components = (
{
name = n;
transform = "{1, 0, 0, 1, -62, 0}";
}
);
};
layerId = "DB4B0467-081D-4039-936C-1EB80856106A";
name = "4";
paths = (
{
closed = 1;
nodes = (
"43 0 LINE",
"123 0 LINE",
"123 394 LINE",
"131 441 LINE",
"94 500 LINE",
"43 500 LINE"
);
},
{
closed = 1;
nodes = (
"346 0 LINE",
"346 286 LINE SMOOTH",
"346 409 OFFCURVE",
"333 510 OFFCURVE",
"222 510 CURVE SMOOTH",
"127 510 OFFCURVE",
"89 391 OFFCURVE",
"89 314 CURVE",
"123 243 LINE",
"123 384 OFFCURVE",
"172 435 OFFCURVE",
"214 435 CURVE SMOOTH",
"258 435 OFFCURVE",
"262 406 OFFCURVE",
"263 299 CURVE SMOOTH",
"265 0 LINE"
);
},
{
closed = 1;
nodes = (
"569 -3 LINE",
"569 288 LINE SMOOTH",
"569 411 OFFCURVE",
"556 507 OFFCURVE",
"445 507 CURVE SMOOTH",
"350 507 OFFCURVE",
"312 388 OFFCURVE",
"312 311 CURVE",
"346 240 LINE",
"346 381 OFFCURVE",
"395 432 OFFCURVE",
"437 432 CURVE SMOOTH",
"481 432 OFFCURVE",
"486 403 OFFCURVE",
"486 296 CURVE SMOOTH",
"486 -3 LINE"
);
}
);
width = 610;
},
{
anchors = (
{
name = bottom;
position = "{312, 0}";
},
{
name = top;
position = "{300, 300}";
}
);
associatedMasterId = "B33A6296-7F33-4AA4-95A6-15EAB02AACC1";
background = {
components = (
{
name = n;
transform = "{1, 0, 0, 1, -62, 0}";
}
);
};
layerId = "914E566B-097D-4968-BFA4-265FDFDC09CE";
name = "5";
paths = (
{
closed = 1;
nodes = (
"43 0 LINE",
"123 0 LINE",
"123 394 LINE",
"131 441 LINE",
"94 500 LINE",
"43 500 LINE"
);
},
{
closed = 1;
nodes = (
"346 0 LINE",
"346 286 LINE SMOOTH",
"346 409 OFFCURVE",
"320 510 OFFCURVE",
"209 510 CURVE SMOOTH",
"114 510 OFFCURVE",
"89 391 OFFCURVE",
"89 314 CURVE",
"123 243 LINE",
"123 384 OFFCURVE",
"159 435 OFFCURVE",
"201 435 CURVE SMOOTH",
"245 435 OFFCURVE",
"262 406 OFFCURVE",
"263 299 CURVE SMOOTH",
"265 0 LINE"
);
},
{
closed = 1;
nodes = (
"569 -3 LINE",
"569 288 LINE SMOOTH",
"569 411 OFFCURVE",
"543 507 OFFCURVE",
"432 507 CURVE SMOOTH",
"337 507 OFFCURVE",
"312 388 OFFCURVE",
"312 311 CURVE",
"346 240 LINE",
"346 381 OFFCURVE",
"382 432 OFFCURVE",
"424 432 CURVE SMOOTH",
"468 432 OFFCURVE",
"486 403 OFFCURVE",
"486 296 CURVE SMOOTH",
"486 -3 LINE"
);
}
);
width = 610;
},
{
anchors = (
{
name = bottom;
position = "{312, 0}";
},
{
name = top;
position = "{300, 300}";
}
);
associatedMasterId = "B33A6296-7F33-4AA4-95A6-15EAB02AACC1";
background = {
components = (
{
name = n;
transform = "{1, 0, 0, 1, -62, 0}";
}
);
};
layerId = "7D831953-3A3C-4599-80F6-DAA662612FDB";
name = "6";
paths = (
{
closed = 1;
nodes = (
"43 0 LINE",
"123 0 LINE",
"123 394 LINE",
"131 441 LINE",
"94 500 LINE",
"43 500 LINE"
);
},
{
closed = 1;
nodes = (
"346 0 LINE",
"346 286 LINE SMOOTH",
"346 409 OFFCURVE",
"320 510 OFFCURVE",
"209 510 CURVE SMOOTH",
"114 510 OFFCURVE",
"89 391 OFFCURVE",
"89 314 CURVE",
"123 243 LINE",
"123 384 OFFCURVE",
"159 435 OFFCURVE",
"201 435 CURVE SMOOTH",
"245 435 OFFCURVE",
"262 406 OFFCURVE",
"263 299 CURVE SMOOTH",
"265 0 LINE"
);
},
{
closed = 1;
nodes = (
"569 -3 LINE",
"569 301 LINE SMOOTH",
"569 424 OFFCURVE",
"552 507 OFFCURVE",
"437 507 CURVE SMOOTH",
"342 507 OFFCURVE",
"301 388 OFFCURVE",
"301 311 CURVE",
"346 240 LINE",
"346 381 OFFCURVE",
"384 432 OFFCURVE",
"426 432 CURVE SMOOTH",
"470 432 OFFCURVE",
"486 403 OFFCURVE",
"486 296 CURVE SMOOTH",
"486 -3 LINE"
);
}
);
width = 610;
},
{
anchors = (
{
name = bottom;
position = "{312, 0}";
},
{
name = top;
position = "{300, 580}";
}
);
associatedMasterId = "B33A6296-7F33-4AA4-95A6-15EAB02AACC1";
background = {
components = (
{
name = n;
transform = "{1, 0, 0, 1, -62, 0}";
}
);
};
layerId = "5F446305-B31F-4901-9BFF-B2A1F7CEAB31";
name = "7";
paths = (
{
closed = 1;
nodes = (
"43 0 LINE",
"123 0 LINE",
"123 367 LINE",
"131 411 LINE",
"94 470 LINE",
"43 470 LINE"
);
},
{
closed = 1;
nodes = (
"346 0 LINE",
"346 259 LINE SMOOTH",
"346 382 OFFCURVE",
"320 480 OFFCURVE",
"209 480 CURVE SMOOTH",
"114 480 OFFCURVE",
"89 364 OFFCURVE",
"89 287 CURVE",
"123 216 LINE",
"123 357 OFFCURVE",
"159 408 OFFCURVE",
"201 408 CURVE SMOOTH",
"245 408 OFFCURVE",
"262 379 OFFCURVE",
"263 272 CURVE SMOOTH",
"265 0 LINE"
);
},
{
closed = 1;
nodes = (
"569 -3 LINE",
"569 261 LINE SMOOTH",
"569 384 OFFCURVE",
"546 480 OFFCURVE",
"434 480 CURVE SMOOTH",
"339 480 OFFCURVE",
"301 361 OFFCURVE",
"301 284 CURVE",
"346 213 LINE",
"346 354 OFFCURVE",
"382 405 OFFCURVE",
"424 405 CURVE SMOOTH",
"468 405 OFFCURVE",
"486 376 OFFCURVE",
"486 269 CURVE SMOOTH",
"486 -3 LINE"
);
}
);
width = 610;
}
);
unicode = 006D;
},
{
glyphname = n;
layers = (
{
anchors = (
{
name = bottom;
position = "{325, 0}";
},
{
name = center;
position = "{140, 250}";
},
{
name = top;
position = "{324, 300}";
}
);
associatedMasterId = "B33A6296-7F33-4AA4-95A6-15EAB02AACC1";
background = {
paths = (
{
closed = 1;
nodes = (
"462 -10 OFFCURVE",
"526 116 OFFCURVE",
"526 250 CURVE SMOOTH",
"526 384 OFFCURVE",
"462 510 OFFCURVE",
"305 510 CURVE SMOOTH",
"148 510 OFFCURVE",
"84 384 OFFCURVE",
"84 250 CURVE SMOOTH",
"84 116 OFFCURVE",
"148 -10 OFFCURVE",
"305 -10 CURVE SMOOTH"
);
},
{
closed = 1;
nodes = (
"215 65 OFFCURVE",
"167 130 OFFCURVE",
"167 250 CURVE SMOOTH",
"167 370 OFFCURVE",
"215 435 OFFCURVE",
"305 435 CURVE SMOOTH",
"395 435 OFFCURVE",
"443 370 OFFCURVE",
"443 250 CURVE SMOOTH",
"443 130 OFFCURVE",
"395 65 OFFCURVE",
"305 65 CURVE SMOOTH"
);
}
);
};
hints = (
{
horizontal = 1;
place = "{82.445, 0}";
type = Stem;
}
);
layerId = "08497D1A-F48A-4F5D-9491-F864E2DD2A29";
name = "1";
paths = (
{
closed = 1;
nodes = (
"82 0 LINE",
"165 0 LINE"
);
},
{
closed = 1;
nodes = (
"82 0 LINE",
"165 0 LINE",
"165 363 LINE",
"168 407 LINE",
"146 500 LINE",
"82 500 LINE"
);
},
{
closed = 1;
nodes = (
"526 0 LINE",
"526 266 LINE SMOOTH",
"526 439 OFFCURVE",
"426 510 OFFCURVE",
"316 510 CURVE SMOOTH",
"186 510 OFFCURVE",
"124 413 OFFCURVE",
"124 255 CURVE",
"165 255 LINE",
"165 325 OFFCURVE",
"184 435 OFFCURVE",
"314 435 CURVE SMOOTH",
"367 435 OFFCURVE",
"443 410 OFFCURVE",
"443 266 CURVE SMOOTH",
"443 0 LINE"
);
}
);
width = 610;
},
{
anchors = (
{
name = bottom;
position = "{325, 0}";
},
{
name = center;
position = "{140, 250}";
},
{
name = top;
position = "{324, 300}";
}
);
associatedMasterId = "B33A6296-7F33-4AA4-95A6-15EAB02AACC1";
background = {
paths = (
{
closed = 1;
nodes = (
"462 -10 OFFCURVE",
"526 116 OFFCURVE",
"526 250 CURVE SMOOTH",
"526 384 OFFCURVE",
"462 510 OFFCURVE",
"305 510 CURVE SMOOTH",
"148 510 OFFCURVE",
"84 384 OFFCURVE",
"84 250 CURVE SMOOTH",
"84 116 OFFCURVE",
"148 -10 OFFCURVE",
"305 -10 CURVE SMOOTH"
);
},
{
closed = 1;
nodes = (
"215 65 OFFCURVE",
"167 130 OFFCURVE",
"167 250 CURVE SMOOTH",
"167 370 OFFCURVE",
"215 435 OFFCURVE",
"305 435 CURVE SMOOTH",
"395 435 OFFCURVE",
"443 370 OFFCURVE",
"443 250 CURVE SMOOTH",
"443 130 OFFCURVE",
"395 65 OFFCURVE",
"305 65 CURVE SMOOTH"
);
}
);
};
hints = (
{
horizontal = 1;
place = "{82.445, 0}";
type = Stem;
}
);
layerId = "1821254F-8E19-4B77-9FE3-8F9408ACD338";
name = "2";
paths = (
{
closed = 1;
nodes = (
"101 0 LINE",
"184 0 LINE"
);
},
{
closed = 1;
nodes = (
"101 0 LINE",
"184 0 LINE",
"184 363 LINE",
"187 407 LINE",
"165 500 LINE",
"101 500 LINE"
);
},
{
closed = 1;
nodes = (
"522 0 LINE",
"522 266 LINE SMOOTH",
"522 442 OFFCURVE",
"443 510 OFFCURVE",
"329 510 CURVE SMOOTH",
"199 510 OFFCURVE",
"143 413 OFFCURVE",
"143 255 CURVE",
"184 255 LINE",
"184 325 OFFCURVE",
"197 435 OFFCURVE",
"327 435 CURVE SMOOTH",
"384 435 OFFCURVE",
"439 410 OFFCURVE",
"439 266 CURVE SMOOTH",
"439 0 LINE"
);
}
);
width = 610;
},
{
anchors = (
{
name = bottom;
position = "{325, 0}";
},
{
name = center;
position = "{140, 250}";
},
{
name = top;
position = "{324, 300}";
}
);
associatedMasterId = "B33A6296-7F33-4AA4-95A6-15EAB02AACC1";
background = {
paths = (
{
closed = 1;
nodes = (
"439 -10 OFFCURVE",
"503 116 OFFCURVE",
"503 250 CURVE SMOOTH",
"503 384 OFFCURVE",
"439 510 OFFCURVE",
"282 510 CURVE SMOOTH",
"125 510 OFFCURVE",
"61 384 OFFCURVE",
"61 250 CURVE SMOOTH",
"61 116 OFFCURVE",
"125 -10 OFFCURVE",
"282 -10 CURVE SMOOTH"
);
},
{
closed = 1;
nodes = (
"192 65 OFFCURVE",
"144 130 OFFCURVE",
"144 250 CURVE SMOOTH",
"144 370 OFFCURVE",
"192 435 OFFCURVE",
"282 435 CURVE SMOOTH",
"372 435 OFFCURVE",
"420 370 OFFCURVE",
"420 250 CURVE SMOOTH",
"420 130 OFFCURVE",
"372 65 OFFCURVE",
"282 65 CURVE SMOOTH"
);
}
);
};
hints = (
{
horizontal = 1;
place = "{82.445, 0}";
type = Stem;
}
);
layerId = "F31AA309-0365-4E4C-A1EA-7D227EECC570";
name = "3";
paths = (
{
closed = 1;
nodes = (
"103 0 LINE",
"186 0 LINE"
);
},
{
closed = 1;
nodes = (
"103 0 LINE",
"186 0 LINE",
"186 363 LINE",
"189 407 LINE",
"167 500 LINE",
"103 500 LINE"
);
},
{
closed = 1;
nodes = (
"504 0 LINE",
"504 266 LINE SMOOTH",
"504 412 OFFCURVE",
"443 510 OFFCURVE",
"313 510 CURVE SMOOTH",
"216 510 OFFCURVE",
"145 449 OFFCURVE",
"145 255 CURVE",
"186 255 LINE",
"186 363 OFFCURVE",
"226 435 OFFCURVE",
"311 435 CURVE SMOOTH",
"377 435 OFFCURVE",
"421 381 OFFCURVE",
"421 266 CURVE SMOOTH",
"421 0 LINE"
);
}
);
width = 610;
},
{
anchors = (
{
name = bottom;
position = "{325, 0}";
},
{
name = center;
position = "{140, 250}";
},
{
name = top;
position = "{324, 300}";
}
);
associatedMasterId = "B33A6296-7F33-4AA4-95A6-15EAB02AACC1";
background = {
components = (
{
name = a;
transform = "{-1, 0, 0, -1, 584, 500}";
}
);
};
hints = (
{
horizontal = 1;
place = "{82.445, 0}";
type = Stem;
}
);
layerId = "964CD981-A2AC-49B5-8F6C-60A0F5434447";
name = "4";
paths = (
{
closed = 1;
nodes = (
"104 0 LINE",
"187 0 LINE"
);
},
{
closed = 1;
nodes = (
"104 0 LINE",
"187 0 LINE",
"187 363 LINE",
"190 407 LINE",
"155 500 LINE",
"104 500 LINE"
);
},
{
closed = 1;
nodes = (
"504 0 LINE",
"504 266 LINE SMOOTH",
"504 420 OFFCURVE",
"445 510 OFFCURVE",
"315 510 CURVE SMOOTH",
"217 510 OFFCURVE",
"146 449 OFFCURVE",
"146 255 CURVE",
"187 255 LINE",
"187 363 OFFCURVE",
"227 435 OFFCURVE",
"313 435 CURVE SMOOTH",
"381 435 OFFCURVE",
"421 387 OFFCURVE",
"421 266 CURVE SMOOTH",
"421 0 LINE"
);
}
);
width = 610;
},
{
anchors = (
{
name = bottom;
position = "{308, 0}";
},
{
name = center;
position = "{140, 250}";
},
{
name = top;
position = "{324, 300}";
}
);
associatedMasterId = "B33A6296-7F33-4AA4-95A6-15EAB02AACC1";
background = {
components = (
{
name = a;
transform = "{1, 0, 0, 1, 17, 0}";
}
);
};
hints = (
{
horizontal = 1;
place = "{82.445, 0}";
type = Stem;
}
);
layerId = "2F86C10E-EEE0-4377-A750-39D190DF3478";
name = "5";
paths = (
{
closed = 1;
nodes = (
"105 0 LINE",
"184 0 LINE"
);
},
{
closed = 1;
nodes = (
"105 0 LINE",
"184 0 LINE",
"185 363 LINE",
"191 444 LINE",
"156 500 LINE",
"105 500 LINE"
);
},
{
closed = 1;
nodes = (
"505 0 LINE",
"505 256 LINE SMOOTH",
"505 413 OFFCURVE",
"471 510 OFFCURVE",
"317 510 CURVE SMOOTH",
"221 510 OFFCURVE",
"144 447 OFFCURVE",
"144 255 CURVE",
"185 255 LINE",
"185 363 OFFCURVE",
"200 435 OFFCURVE",
"315 435 CURVE SMOOTH",
"407 435 OFFCURVE",
"422 376 OFFCURVE",
"422 256 CURVE SMOOTH",
"422 0 LINE"
);
}
);
width = 610;
},
{
anchors = (
{
name = bottom;
position = "{308, 0}";
},
{
name = center;
position = "{140, 250}";
},
{
name = top;
position = "{324, 300}";
}
);
associatedMasterId = "B33A6296-7F33-4AA4-95A6-15EAB02AACC1";
background = {
components = (
{
name = a;
transform = "{1, 0, 0, 1, 25, 0}";
}
);
};
hints = (
{
horizontal = 1;
place = "{82.445, 0}";
type = Stem;
}
);
layerId = "E0DB14A7-2FF2-4EBB-8016-1E88B43BAF88";
name = "7";
paths = (
{
closed = 1;
nodes = (
"105 0 LINE",
"184 0 LINE"
);
},
{
closed = 1;
nodes = (
"105 0 LINE",
"184 0 LINE",
"185 394 LINE",
"179 395 LINE",
"178 500 LINE",
"105 500 LINE"
);
},
{
closed = 1;
nodes = (
"505 0 LINE",
"505 336 LINE SMOOTH",
"505 402 OFFCURVE",
"478 510 OFFCURVE",
"324 510 CURVE SMOOTH",
"221 510 OFFCURVE",
"144 435 OFFCURVE",
"144 243 CURVE",
"185 243 LINE",
"185 311 OFFCURVE",
"196 435 OFFCURVE",
"328 435 CURVE SMOOTH",
"399 435 OFFCURVE",
"422 391 OFFCURVE",
"422 316 CURVE SMOOTH",
"422 0 LINE"
);
}
);
width = 610;
},
{
anchors = (
{
name = bottom;
position = "{308, 0}";
},
{
name = center;
position = "{140, 250}";
},
{
name = top;
position = "{324, 300}";
}
);
associatedMasterId = "B33A6296-7F33-4AA4-95A6-15EAB02AACC1";
background = {
components = (
{
name = a;
transform = "{1, 0, 0, 1, 25, 0}";
}
);
};
hints = (
{
horizontal = 1;
place = "{82.445, 0}";
type = Stem;
}
);
layerId = "7BC0BF13-95D6-4DBD-8A49-4592908086B7";
name = "8";
paths = (
{
closed = 1;
nodes = (
"105 0 LINE",
"184 0 LINE"
);
},
{
closed = 1;
nodes = (
"105 0 LINE",
"184 0 LINE",
"185 394 LINE",
"193 441 LINE",
"156 500 LINE",
"105 500 LINE"
);
},
{
closed = 1;
nodes = (
"505 0 LINE",
"505 336 LINE SMOOTH",
"505 402 OFFCURVE",
"478 510 OFFCURVE",
"324 510 CURVE SMOOTH",
"221 510 OFFCURVE",
"144 435 OFFCURVE",
"144 243 CURVE",
"185 243 LINE",
"185 311 OFFCURVE",
"196 435 OFFCURVE",
"328 435 CURVE SMOOTH",
"399 435 OFFCURVE",
"422 391 OFFCURVE",
"422 316 CURVE SMOOTH",
"422 0 LINE"
);
}
);
width = 610;
},
{
anchors = (
{
name = bottom;
position = "{308, 0}";
},
{
name = center;
position = "{140, 250}";
},
{
name = top;
position = "{324, 300}";
}
);
associatedMasterId = "B33A6296-7F33-4AA4-95A6-15EAB02AACC1";
background = {
components = (
{
name = a;
transform = "{1, 0, 0, 1, 25, 0}";
}
);
};
components = (
{
name = DotWide;
transform = "{1, 0, 0, 1, 180, 24}";
}
);
hints = (
{
horizontal = 1;
place = "{82.445, 0}";
type = Stem;
}
);
layerId = "D8B8DD69-6DB1-42E3-8B60-A21D79D0014D";
name = "8_1";
paths = (
{
closed = 1;
nodes = (
"105 0 LINE",
"184 0 LINE"
);
},
{
closed = 1;
nodes = (
"105 0 LINE",
"184 0 LINE",
"185 394 LINE",
"193 441 LINE",
"156 500 LINE",
"105 500 LINE"
);
},
{
closed = 1;
nodes = (
"505 0 LINE",
"506 312 LINE SMOOTH",
"506 378 OFFCURVE",
"485 510 OFFCURVE",
"312 510 CURVE SMOOTH",
"218 510 OFFCURVE",
"144 435 OFFCURVE",
"144 243 CURVE",
"185 243 LINE",
"185 311 OFFCURVE",
"193 435 OFFCURVE",
"312 435 CURVE SMOOTH",
"406 435 OFFCURVE",
"423 371 OFFCURVE",
"423 316 CURVE SMOOTH",
"423 294 LINE",
"422 0 LINE"
);
}
);
width = 610;
},
{
anchors = (
{
name = bottom;
position = "{308, 0}";
},
{
name = center;
position = "{140, 250}";
},
{
name = top;
position = "{324, 300}";
}
);
associatedMasterId = "B33A6296-7F33-4AA4-95A6-15EAB02AACC1";
background = {
components = (
{
name = a;
transform = "{1, 0, 0, 1, 25, 0}";
}
);
};
components = (
{
name = DotWide;
transform = "{1, 0, 0, 1, 180, 24}";
}
);
guideLines = (
{
angle = 90;
position = "{324, 510}";
}
);
hints = (
{
horizontal = 1;
place = "{82.445, 0}";
type = Stem;
}
);
layerId = "29D3F6B1-5BE0-44C2-88BB-5D9E66C8DB1B";
name = "8_2";
paths = (
{
closed = 1;
nodes = (
"105 0 LINE",
"184 0 LINE"
);
},
{
closed = 1;
nodes = (
"105 0 LINE",
"184 0 LINE",
"185 394 LINE",
"193 441 LINE",
"156 500 LINE",
"105 500 LINE"
);
},
{
closed = 1;
nodes = (
"505 0 LINE",
"506 312 LINE SMOOTH",
"506 378 OFFCURVE",
"497 510 OFFCURVE",
"324 510 CURVE SMOOTH",
"230 510 OFFCURVE",
"144 435 OFFCURVE",
"144 243 CURVE",
"185 243 LINE",
"185 311 OFFCURVE",
"193 435 OFFCURVE",
"312 435 CURVE SMOOTH",
"406 435 OFFCURVE",
"423 371 OFFCURVE",
"423 316 CURVE SMOOTH",
"423 294 LINE",
"422 0 LINE"
);
}
);
width = 610;
},
{
anchors = (
{
name = bottom;
position = "{308, 0}";
},
{
name = center;
position = "{140, 250}";
},
{
name = top;
position = "{324, 300}";
}
);
associatedMasterId = "B33A6296-7F33-4AA4-95A6-15EAB02AACC1";
background = {
components = (
{
name = a;
transform = "{1, 0, 0, 1, 25, 0}";
}
);
};
guideLines = (
{
angle = 90;
position = "{324, 510}";
}
);
hints = (
{
horizontal = 1;
place = "{82.445, 0}";
type = Stem;
}
);
layerId = "5D123C29-908C-4840-ADF0-44A4FFC1CB35";
name = "Regular Dec 19 16, 23:32";
paths = (
{
closed = 1;
nodes = (
"105 0 LINE",
"184 0 LINE"
);
},
{
closed = 1;
nodes = (
"105 0 LINE",
"184 0 LINE",
"185 394 LINE",
"193 441 LINE",
"156 500 LINE",
"105 500 LINE"
);
},
{
closed = 1;
nodes = (
"505 0 LINE",
"506 316 LINE SMOOTH",
"506 382 OFFCURVE",
"477 510 OFFCURVE",
"324 510 CURVE SMOOTH",
"230 510 OFFCURVE",
"144 435 OFFCURVE",
"144 243 CURVE",
"185 243 LINE",
"185 311 OFFCURVE",
"193 435 OFFCURVE",
"312 435 CURVE SMOOTH",
"406 435 OFFCURVE",
"423 371 OFFCURVE",
"423 316 CURVE SMOOTH",
"423 294 LINE",
"422 0 LINE"
);
}
);
width = 610;
},
{
anchors = (
{
name = bottom;
position = "{308, 0}";
},
{
name = center;
position = "{140, 250}";
},
{
name = top;
position = "{324, 580}";
}
);
guideLines = (
{
angle = 90;
position = "{324, 510}";
}
);
layerId = "B33A6296-7F33-4AA4-95A6-15EAB02AACC1";
paths = (
{
closed = 1;
nodes = (
"104 0 LINE",
"187 0 LINE"
);
},
{
closed = 1;
nodes = (
"104 0 LINE",
"187 0 LINE",
"185 364 LINE",
"193 411 LINE",
"156 470 LINE",
"104 470 LINE"
);
},
{
closed = 1;
nodes = (
"505 0 LINE",
"506 286 LINE SMOOTH",
"506 401 OFFCURVE",
"436 480 OFFCURVE",
"330 480 CURVE SMOOTH",
"227 480 OFFCURVE",
"144 405 OFFCURVE",
"144 213 CURVE",
"186 213 LINE",
"186 285 OFFCURVE",
"193 405 OFFCURVE",
"315 405 CURVE SMOOTH",
"423 405 OFFCURVE",
"423 312 OFFCURVE",
"423 286 CURVE SMOOTH",
"423 264 LINE",
"422 0 LINE"
);
}
);
width = 610;
},
{
anchors = (
{
name = bottom;
position = "{308, 0}";
},
{
name = center;
position = "{140, 250}";
},
{
name = top;
position = "{324, 580}";
}
);
associatedMasterId = "B33A6296-7F33-4AA4-95A6-15EAB02AACC1";
guideLines = (
{
angle = 90;
position = "{324, 510}";
}
);
hints = (
{
horizontal = 1;
place = "{82.445, 0}";
type = Stem;
}
);
layerId = "36571CDB-21F7-40F9-8A51-A00BC00D8B06";
name = "9";
paths = (
{
closed = 1;
nodes = (
"105 0 LINE",
"185 0 LINE"
);
},
{
closed = 1;
nodes = (
"105 0 LINE",
"185 0 LINE",
"185 364 LINE",
"193 411 LINE",
"156 470 LINE",
"105 470 LINE"
);
},
{
closed = 1;
nodes = (
"505 0 LINE",
"506 286 LINE SMOOTH",
"506 352 OFFCURVE",
"477 480 OFFCURVE",
"324 480 CURVE SMOOTH",
"230 480 OFFCURVE",
"144 405 OFFCURVE",
"144 213 CURVE",
"185 213 LINE",
"185 281 OFFCURVE",
"193 405 OFFCURVE",
"312 405 CURVE SMOOTH",
"407 405 OFFCURVE",
"423 341 OFFCURVE",
"423 286 CURVE SMOOTH",
"423 264 LINE",
"422 0 LINE"
);
}
);
width = 610;
}
);
unicode = 006E;
},
{
glyphname = eng;
layers = (
{
anchors = (
{
name = bottom;
position = "{356, 0}";
},
{
name = top;
position = "{356, 500}";
}
);
components = (
{
name = n;
}
);
layerId = "B33A6296-7F33-4AA4-95A6-15EAB02AACC1";
paths = (
{
closed = 1;
nodes = (
"286 -209 LINE",
"406 -213 OFFCURVE",
"505 -149 OFFCURVE",
"505 -16 CURVE SMOOTH",
"505 26 LINE",
"422 26 LINE SMOOTH",
"422 -100 OFFCURVE",
"385 -138 OFFCURVE",
"283 -134 CURVE"
);
},
{
closed = 0;
nodes = (
"253 -233 LINE"
);
}
);
width = 610;
}
);
unicode = 014B;
},
{
glyphname = o;
layers = (
{
anchors = (
{
name = bottom;
position = "{310, 0}";
},
{
name = center;
position = "{305, 250}";
},
{
name = ogonek;
position = "{308, 9}";
},
{
name = top;
position = "{305, 580}";
},
{
name = topright;
position = "{600, 500}";
}
);
layerId = "B33A6296-7F33-4AA4-95A6-15EAB02AACC1";
paths = (
{
closed = 1;
nodes = (
"147 480 OFFCURVE",
"82 355 OFFCURVE",
"82 230 CURVE SMOOTH",
"82 115 OFFCURVE",
"147 -10 OFFCURVE",
"305 -10 CURVE SMOOTH",
"463 -10 OFFCURVE",
"528 115 OFFCURVE",
"528 230 CURVE SMOOTH",
"528 355 OFFCURVE",
"463 480 OFFCURVE",
"305 480 CURVE SMOOTH"
);
},
{
closed = 1;
nodes = (
"395 405 OFFCURVE",
"445 340 OFFCURVE",
"445 230 CURVE SMOOTH",
"445 130 OFFCURVE",
"395 65 OFFCURVE",
"305 65 CURVE SMOOTH",
"215 65 OFFCURVE",
"165 130 OFFCURVE",
"165 230 CURVE SMOOTH",
"165 340 OFFCURVE",
"215 405 OFFCURVE",
"305 405 CURVE SMOOTH"
);
}
);
width = 610;
},
{
anchors = (
{
name = bottom;
position = "{310, 0}";
},
{
name = center;
position = "{305, 250}";
},
{
name = ogonek;
position = "{382, 10}";
},
{
name = top;
position = "{305, 300}";
},
{
name = topright;
position = "{600, 500}";
}
);
associatedMasterId = "B33A6296-7F33-4AA4-95A6-15EAB02AACC1";
layerId = "F97499D1-AD16-442E-B10D-7B5D88FFBF2A";
name = "1";
paths = (
{
closed = 1;
nodes = (
"462 -10 OFFCURVE",
"526 116 OFFCURVE",
"526 250 CURVE SMOOTH",
"526 384 OFFCURVE",
"462 510 OFFCURVE",
"305 510 CURVE SMOOTH",
"148 510 OFFCURVE",
"84 384 OFFCURVE",
"84 250 CURVE SMOOTH",
"84 116 OFFCURVE",
"148 -10 OFFCURVE",
"305 -10 CURVE SMOOTH"
);
},
{
closed = 1;
nodes = (
"215 65 OFFCURVE",
"167 130 OFFCURVE",
"167 250 CURVE SMOOTH",
"167 370 OFFCURVE",
"215 435 OFFCURVE",
"305 435 CURVE SMOOTH",
"395 435 OFFCURVE",
"443 370 OFFCURVE",
"443 250 CURVE SMOOTH",
"443 130 OFFCURVE",
"395 65 OFFCURVE",
"305 65 CURVE SMOOTH"
);
}
);
width = 610;
}
);
unicode = 006F;
},
{
glyphname = oe;
layers = (
{
anchors = (
{
name = bottom;
position = "{315, -10}";
},
{
name = ogonek;
position = "{353, -55}";
},
{
name = top;
position = "{315, 580}";
}
);
layerId = "B33A6296-7F33-4AA4-95A6-15EAB02AACC1";
paths = (
{
closed = 1;
nodes = (
"310 214 LINE",
"530 213 LINE",
"510 286 LINE",
"310 287 LINE"
);
},
{
closed = 1;
nodes = (
"440 218 LINE",
"530 213 LINE",
"531 235 LINE SMOOTH",
"537 361 OFFCURVE",
"474 480 OFFCURVE",
"310 480 CURVE SMOOTH",
"142 480 OFFCURVE",
"79 354 OFFCURVE",
"79 236 CURVE SMOOTH",
"79 117 OFFCURVE",
"144 -10 OFFCURVE",
"315 -10 CURVE SMOOTH",
"429 -10 OFFCURVE",
"488 47 OFFCURVE",
"518 118 CURVE",
"448 154 LINE",
"428 93 OFFCURVE",
"385 65 OFFCURVE",
"318 65 CURVE SMOOTH",
"214 65 OFFCURVE",
"162 132 OFFCURVE",
"162 237 CURVE SMOOTH",
"162 339 OFFCURVE",
"212 405 OFFCURVE",
"312 405 CURVE SMOOTH",
"401 405 OFFCURVE",
"456 352 OFFCURVE",
"442 235 CURVE SMOOTH"
);
},
{
closed = 1;
nodes = (
"269 460 LINE",
"269 0 LINE",
"352 0 LINE",
"352 460 LINE"
);
}
);
width = 610;
},
{
anchors = (
{
name = bottom;
position = "{315, -10}";
},
{
name = ogonek;
position = "{353, -55}";
},
{
name = top;
position = "{315, 530}";
}
);
associatedMasterId = "B33A6296-7F33-4AA4-95A6-15EAB02AACC1";
layerId = "707453ED-C125-4B51-9382-0B805157EEB7";
name = "Oct 10 17, 23:23";
paths = (
{
closed = 1;
nodes = (
"304 218 LINE",
"501 218 LINE",
"501 293 LINE",
"304 293 LINE"
);
},
{
closed = 1;
nodes = (
"448 218 LINE",
"529 218 LINE",
"530 250 LINE",
"530 370 OFFCURVE",
"473 510 OFFCURVE",
"310 510 CURVE SMOOTH",
"142 510 OFFCURVE",
"80 370 OFFCURVE",
"80 250 CURVE SMOOTH",
"80 128 OFFCURVE",
"152 -10 OFFCURVE",
"310 -10 CURVE SMOOTH",
"427 -10 OFFCURVE",
"486 46 OFFCURVE",
"517 118 CURVE",
"447 154 LINE",
"427 96 OFFCURVE",
"388 65 OFFCURVE",
"310 65 CURVE SMOOTH",
"222 65 OFFCURVE",
"162 130 OFFCURVE",
"162 250 CURVE SMOOTH",
"162 370 OFFCURVE",
"213 435 OFFCURVE",
"310 435 CURVE SMOOTH",
"403 435 OFFCURVE",
"448 370 OFFCURVE",
"448 250 CURVE SMOOTH"
);
},
{
closed = 1;
nodes = (
"269 500 LINE",
"269 0 LINE",
"352 0 LINE",
"352 500 LINE"
);
}
);
width = 610;
},
{
anchors = (
{
name = bottom;
position = "{315, -10}";
},
{
name = ogonek;
position = "{353, -55}";
},
{
name = top;
position = "{315, 580}";
}
);
associatedMasterId = "B33A6296-7F33-4AA4-95A6-15EAB02AACC1";
layerId = "89039BA9-8054-475B-A4E4-658076C637CE";
name = "Dec 14 17, 21:38";
paths = (
{
closed = 1;
nodes = (
"310 214 LINE",
"530 213 LINE",
"510 286 LINE",
"310 287 LINE"
);
},
{
closed = 1;
nodes = (
"440 218 LINE",
"530 213 LINE",
"531 235 LINE SMOOTH",
"537 361 OFFCURVE",
"474 480 OFFCURVE",
"310 480 CURVE SMOOTH",
"142 480 OFFCURVE",
"79 353 OFFCURVE",
"79 235 CURVE SMOOTH",
"79 117 OFFCURVE",
"146 -10 OFFCURVE",
"310 -10 CURVE SMOOTH",
"431 -10 OFFCURVE",
"487 46 OFFCURVE",
"518 118 CURVE",
"448 154 LINE",
"427 93 OFFCURVE",
"390 65 OFFCURVE",
"310 65 CURVE SMOOTH",
"218 65 OFFCURVE",
"162 132 OFFCURVE",
"162 235 CURVE SMOOTH",
"162 339 OFFCURVE",
"212 405 OFFCURVE",
"310 405 CURVE SMOOTH",
"402 405 OFFCURVE",
"456 352 OFFCURVE",
"442 235 CURVE SMOOTH"
);
},
{
closed = 1;
nodes = (
"269 460 LINE",
"269 0 LINE",
"352 0 LINE",
"352 460 LINE"
);
}
);
width = 610;
}
);
unicode = 0153;
},
{
glyphname = p;
layers = (
{
anchors = (
{
name = bottom;
position = "{305, 0}";
},
{
name = top;
position = "{305, 580}";
}
);
components = (
{
alignment = -1;
name = b;
transform = "{1, 0, 0, -1, 0, 470}";
}
);
layerId = "B33A6296-7F33-4AA4-95A6-15EAB02AACC1";
width = 610;
},
{
anchors = (
{
name = bottom;
position = "{305, 0}";
},
{
name = top;
position = "{305, 300}";
}
);
associatedMasterId = "B33A6296-7F33-4AA4-95A6-15EAB02AACC1";
background = {
components = (
{
name = b;
transform = "{1, 0, 0, -1, 0, 500}";
},
{
name = a;
transform = "{-1, 0, 0, -1, 545, 500}";
}
);
};
layerId = "3158898B-732F-4DB1-B6D2-28EF397EF386";
name = "Regular Dec 22 16, 21:49";
paths = (
{
closed = 1;
nodes = (
"82 -200 LINE",
"165 -200 LINE",
"163 106 LINE",
"154 250 LINE",
"165 395 LINE",
"163 428 LINE",
"146 500 LINE",
"82 500 LINE"
);
},
{
closed = 1;
nodes = (
"469 -10 OFFCURVE",
"528 126 OFFCURVE",
"528 250 CURVE SMOOTH",
"528 374 OFFCURVE",
"469 510 OFFCURVE",
"307 510 CURVE SMOOTH",
"156 510 OFFCURVE",
"113 370 OFFCURVE",
"113 250 CURVE SMOOTH",
"113 130 OFFCURVE",
"157 -10 OFFCURVE",
"307 -10 CURVE SMOOTH"
);
},
{
closed = 1;
nodes = (
"217 65 OFFCURVE",
"154 130 OFFCURVE",
"154 250 CURVE SMOOTH",
"154 370 OFFCURVE",
"217 435 OFFCURVE",
"307 435 CURVE SMOOTH",
"393 435 OFFCURVE",
"445 374 OFFCURVE",
"445 250 CURVE SMOOTH",
"445 126 OFFCURVE",
"393 65 OFFCURVE",
"307 65 CURVE SMOOTH"
);
}
);
width = 610;
}
);
unicode = 0070;
},
{
glyphname = thorn;
layers = (
{
components = (
{
name = "b-bowl";
}
);
layerId = "B33A6296-7F33-4AA4-95A6-15EAB02AACC1";
paths = (
{
closed = 1;
nodes = (
"162 374 LINE",
"165 700 LINE",
"82 700 LINE",
"82 -230 LINE",
"165 -230 LINE",
"162 96 LINE",
"137 235 LINE"
);
}
);
width = 610;
}
);
unicode = 00FE;
},
{
glyphname = r;
layers = (
{
anchors = (
{
name = bottom;
position = "{211, 0}";
},
{
name = ogonek;
position = "{172, 10}";
},
{
name = top;
position = "{275, 580}";
}
);
background = {
anchors = (
{
name = bottom;
position = "{351, 0}";
},
{
name = center;
position = "{183, 250}";
},
{
name = top;
position = "{367, 300}";
}
);
components = (
{
name = n;
transform = "{1, 0, 0, 1, 62, 0}";
}
);
hints = (
{
horizontal = 1;
place = "{82.445, 0}";
type = Stem;
}
);
};
layerId = "B33A6296-7F33-4AA4-95A6-15EAB02AACC1";
paths = (
{
closed = 1;
nodes = (
"164 0 LINE",
"247 0 LINE",
"247 370 LINE",
"261 398 LINE",
"215 470 LINE",
"164 470 LINE"
);
},
{
closed = 0;
nodes = (
"233 45 LINE"
);
},
{
closed = 1;
nodes = (
"241 480 OFFCURVE",
"207 318 OFFCURVE",
"207 212 CURVE",
"247 212 LINE",
"247 294 OFFCURVE",
"265 405 OFFCURVE",
"376 405 CURVE SMOOTH",
"429 405 OFFCURVE",
"450 380 OFFCURVE",
"474 319 CURVE",
"545 352 LINE",
"511 444 OFFCURVE",
"452 480 OFFCURVE",
"384 480 CURVE SMOOTH"
);
},
{
closed = 1;
nodes = (
"75 0 LINE",
"344 0 LINE",
"344 75 LINE SMOOTH",
"75 75 LINE"
);
},
{
closed = 1;
nodes = (
"85 395 LINE",
"204 395 LINE",
"204 470 LINE SMOOTH",
"85 470 LINE"
);
}
);
width = 610;
},
{
anchors = (
{
name = bottom;
position = "{300, 0}";
},
{
name = top;
position = "{300, 300}";
}
);
associatedMasterId = "B33A6296-7F33-4AA4-95A6-15EAB02AACC1";
background = {
components = (
{
name = n;
transform = "{1, 0, 0, 1, 43, 0}";
}
);
};
layerId = "05DFA2FB-7872-4F76-AAB6-DC47C535F99C";
name = "1";
paths = (
{
closed = 1;
nodes = (
"146 0 LINE",
"229 0 LINE",
"228 500 LINE",
"146 500 LINE"
);
},
{
closed = 1;
nodes = (
"568 382 LINE",
"529 469 OFFCURVE",
"470 510 OFFCURVE",
"375 510 CURVE SMOOTH",
"210 510 OFFCURVE",
"190 337 OFFCURVE",
"190 255 CURVE",
"229 255 LINE",
"229 330 OFFCURVE",
"249 435 OFFCURVE",
"373 435 CURVE SMOOTH",
"419 435 OFFCURVE",
"467 428 OFFCURVE",
"498 346 CURVE"
);
},
{
closed = 1;
nodes = (
"69 0 LINE",
"338 0 LINE",
"338 75 LINE SMOOTH",
"69 75 LINE"
);
},
{
closed = 1;
nodes = (
"69 425 LINE",
"188 425 LINE",
"188 500 LINE SMOOTH",
"69 500 LINE"
);
}
);
width = 610;
},
{
anchors = (
{
name = bottom;
position = "{300, 0}";
},
{
name = top;
position = "{300, 300}";
}
);
associatedMasterId = "B33A6296-7F33-4AA4-95A6-15EAB02AACC1";
background = {
anchors = (
{
name = bottom;
position = "{351, 0}";
},
{
name = center;
position = "{183, 250}";
},
{
name = top;
position = "{367, 300}";
}
);
components = (
{
name = n;
transform = "{1, 0, 0, 1, 32, 0}";
}
);
paths = (
{
closed = 1;
nodes = (
"153 0 LINE",
"232 0 LINE"
);
},
{
closed = 1;
nodes = (
"553 0 LINE",
"554 316 LINE SMOOTH",
"554 382 OFFCURVE",
"525 510 OFFCURVE",
"372 510 CURVE SMOOTH",
"278 510 OFFCURVE",
"192 435 OFFCURVE",
"192 243 CURVE",
"233 243 LINE",
"233 311 OFFCURVE",
"241 435 OFFCURVE",
"360 435 CURVE SMOOTH",
"454 435 OFFCURVE",
"471 371 OFFCURVE",
"471 316 CURVE SMOOTH",
"471 294 LINE",
"470 0 LINE"
);
}
);
};
layerId = "331B49F6-C565-4688-9F15-74E6E2384D0D";
name = "2";
paths = (
{
closed = 1;
nodes = (
"148 0 LINE",
"231 0 LINE",
"231 400 LINE",
"245 428 LINE",
"199 500 LINE",
"148 500 LINE"
);
},
{
closed = 1;
nodes = (
"69 0 LINE",
"338 0 LINE",
"338 75 LINE SMOOTH",
"69 75 LINE"
);
},
{
closed = 1;
nodes = (
"69 425 LINE",
"188 425 LINE",
"188 500 LINE SMOOTH",
"69 500 LINE"
);
},
{
closed = 1;
nodes = (
"567 381 LINE",
"544 450 OFFCURVE",
"475 510 OFFCURVE",
"373 510 CURVE SMOOTH",
"279 510 OFFCURVE",
"190 435 OFFCURVE",
"190 243 CURVE",
"231 243 LINE",
"231 311 OFFCURVE",
"246 435 OFFCURVE",
"365 435 CURVE SMOOTH",
"443 435 OFFCURVE",
"472 403 OFFCURVE",
"497 346 CURVE"
);
}
);
width = 610;
},
{
anchors = (
{
name = bottom;
position = "{300, 0}";
},
{
name = top;
position = "{300, 300}";
}
);
associatedMasterId = "B33A6296-7F33-4AA4-95A6-15EAB02AACC1";
background = {
anchors = (
{
name = bottom;
position = "{351, 0}";
},
{
name = center;
position = "{183, 250}";
},
{
name = top;
position = "{367, 300}";
}
);
components = (
{
name = s;
transform = "{1, 0, 0, 1, 50, 0}";
}
);
paths = (
{
closed = 1;
nodes = (
"153 0 LINE",
"232 0 LINE"
);
},
{
closed = 1;
nodes = (
"553 0 LINE",
"554 316 LINE SMOOTH",
"554 382 OFFCURVE",
"525 510 OFFCURVE",
"372 510 CURVE SMOOTH",
"278 510 OFFCURVE",
"192 435 OFFCURVE",
"192 243 CURVE",
"233 243 LINE",
"233 311 OFFCURVE",
"241 435 OFFCURVE",
"360 435 CURVE SMOOTH",
"454 435 OFFCURVE",
"471 371 OFFCURVE",
"471 316 CURVE SMOOTH",
"471 294 LINE",
"470 0 LINE"
);
}
);
};
layerId = "EF54DD4A-DC08-4695-9851-DC2B9E0469E4";
name = "3";
paths = (
{
closed = 1;
nodes = (
"148 0 LINE",
"231 0 LINE",
"231 400 LINE",
"245 428 LINE",
"199 500 LINE",
"148 500 LINE"
);
},
{
closed = 1;
nodes = (
"69 0 LINE",
"338 0 LINE",
"338 75 LINE SMOOTH",
"69 75 LINE"
);
},
{
closed = 1;
nodes = (
"69 425 LINE",
"188 425 LINE",
"188 500 LINE SMOOTH",
"69 500 LINE"
);
},
{
closed = 1;
nodes = (
"547 380 LINE",
"530 442 OFFCURVE",
"484 510 OFFCURVE",
"373 510 CURVE SMOOTH",
"279 510 OFFCURVE",
"190 435 OFFCURVE",
"190 243 CURVE",
"231 243 LINE",
"231 311 OFFCURVE",
"242 435 OFFCURVE",
"361 435 CURVE SMOOTH",
"441 435 OFFCURVE",
"465 389 OFFCURVE",
"471 342 CURVE"
);
}
);
width = 610;
},
{
anchors = (
{
name = bottom;
position = "{300, 0}";
},
{
name = top;
position = "{300, 300}";
}
);
associatedMasterId = "B33A6296-7F33-4AA4-95A6-15EAB02AACC1";
background = {
anchors = (
{
name = bottom;
position = "{351, 0}";
},
{
name = center;
position = "{183, 250}";
},
{
name = top;
position = "{367, 300}";
}
);
components = (
{
name = a;
transform = "{-1, 0, 0, 1, 615, 0}";
}
);
};
layerId = "EEEEAAE6-4B70-42E0-B165-33B43BCAE9C2";
name = "4";
paths = (
{
closed = 1;
nodes = (
"148 0 LINE",
"231 0 LINE",
"231 400 LINE",
"245 428 LINE",
"199 500 LINE",
"148 500 LINE"
);
},
{
closed = 1;
nodes = (
"69 0 LINE",
"338 0 LINE",
"338 75 LINE SMOOTH",
"69 75 LINE"
);
},
{
closed = 1;
nodes = (
"69 425 LINE",
"188 425 LINE",
"188 500 LINE SMOOTH",
"69 500 LINE"
);
},
{
closed = 1;
nodes = (
"547 380 LINE",
"530 442 OFFCURVE",
"472 510 OFFCURVE",
"373 510 CURVE SMOOTH",
"279 510 OFFCURVE",
"190 435 OFFCURVE",
"190 243 CURVE",
"231 243 LINE",
"231 311 OFFCURVE",
"242 435 OFFCURVE",
"361 435 CURVE SMOOTH",
"430 435 OFFCURVE",
"461 396 OFFCURVE",
"477 345 CURVE"
);
}
);
width = 610;
},
{
anchors = (
{
name = bottom;
position = "{300, 0}";
},
{
name = ogonek;
position = "{172, 10}";
},
{
name = top;
position = "{300, 300}";
}
);
associatedMasterId = "B33A6296-7F33-4AA4-95A6-15EAB02AACC1";
background = {
anchors = (
{
name = bottom;
position = "{351, 0}";
},
{
name = center;
position = "{183, 250}";
},
{
name = top;
position = "{367, 300}";
}
);
components = (
{
name = a;
transform = "{-1, 0, 0, 1, 612, 0}";
}
);
};
layerId = "B826CBAB-2E5F-4477-9E08-F291B48AB31E";
name = "5";
paths = (
{
closed = 1;
nodes = (
"148 0 LINE",
"231 0 LINE",
"231 400 LINE",
"245 428 LINE",
"199 500 LINE",
"148 500 LINE"
);
},
{
closed = 1;
nodes = (
"69 0 LINE",
"338 0 LINE",
"338 75 LINE SMOOTH",
"69 75 LINE"
);
},
{
closed = 1;
nodes = (
"69 425 LINE",
"188 425 LINE",
"188 500 LINE SMOOTH",
"69 500 LINE"
);
},
{
closed = 0;
nodes = (
"227 45 LINE"
);
},
{
closed = 1;
nodes = (
"224 510 OFFCURVE",
"184 444 OFFCURVE",
"184 345 CURVE",
"231 345 LINE",
"231 400 OFFCURVE",
"274 435 OFFCURVE",
"326 435 CURVE SMOOTH",
"398 435 OFFCURVE",
"432 407 OFFCURVE",
"456 346 CURVE",
"526 382 LINE",
"485 479 OFFCURVE",
"411 510 OFFCURVE",
"326 510 CURVE SMOOTH"
);
}
);
width = 610;
},
{
anchors = (
{
name = bottom;
position = "{211, 0}";
},
{
name = ogonek;
position = "{172, 10}";
},
{
name = top;
position = "{275, 580}";
}
);
associatedMasterId = "B33A6296-7F33-4AA4-95A6-15EAB02AACC1";
background = {
anchors = (
{
name = bottom;
position = "{351, 0}";
},
{
name = center;
position = "{183, 250}";
},
{
name = top;
position = "{367, 300}";
}
);
components = (
{
name = n;
transform = "{1, 0, 0, 1, 62, 0}";
}
);
};
layerId = "FC262A75-291D-4315-81BC-8B767F88F681";
name = "6";
paths = (
{
closed = 1;
nodes = (
"164 0 LINE",
"247 0 LINE",
"247 370 LINE",
"261 398 LINE",
"215 470 LINE",
"164 470 LINE"
);
},
{
closed = 1;
nodes = (
"75 0 LINE",
"344 0 LINE",
"344 75 LINE SMOOTH",
"75 75 LINE"
);
},
{
closed = 1;
nodes = (
"85 395 LINE",
"204 395 LINE",
"204 470 LINE SMOOTH",
"85 470 LINE"
);
},
{
closed = 0;
nodes = (
"233 45 LINE"
);
},
{
closed = 1;
nodes = (
"248 480 OFFCURVE",
"207 319 OFFCURVE",
"207 212 CURVE",
"247 212 LINE",
"247 292 OFFCURVE",
"265 405 OFFCURVE",
"373 405 CURVE SMOOTH",
"429 405 OFFCURVE",
"450 380 OFFCURVE",
"474 319 CURVE",
"545 352 LINE",
"509 445 OFFCURVE",
"459 480 OFFCURVE",
"373 480 CURVE SMOOTH"
);
}
);
width = 610;
}
);
unicode = 0072;
},
{
glyphname = s;
layers = (
{
anchors = (
{
name = bottom;
position = "{305, 0}";
},
{
name = top;
position = "{305, 300}";
}
);
associatedMasterId = "B33A6296-7F33-4AA4-95A6-15EAB02AACC1";
background = {
components = (
{
name = a;
transform = "{-1, 0, 0, 1, 584, 0}";
}
);
};
guideLines = (
{
angle = 270;
position = "{307, 435}";
}
);
layerId = "5B689DC8-D60A-408D-A10A-F29D0242E54E";
name = "4";
paths = (
{
closed = 1;
nodes = (
"137 39 OFFCURVE",
"214 -10 OFFCURVE",
"309 -10 CURVE SMOOTH",
"419 -10 OFFCURVE",
"504 37 OFFCURVE",
"504 145 CURVE SMOOTH",
"504 325 OFFCURVE",
"211 256 OFFCURVE",
"211 364 CURVE SMOOTH",
"211 416 OFFCURVE",
"250 435 OFFCURVE",
"307 435 CURVE SMOOTH",
"374 435 OFFCURVE",
"407 391 OFFCURVE",
"424 346 CURVE",
"494 381 LINE",
"466 457 OFFCURVE",
"396 510 OFFCURVE",
"307 510 CURVE SMOOTH",
"208 510 OFFCURVE",
"128 461 OFFCURVE",
"128 364 CURVE SMOOTH",
"128 179 OFFCURVE",
"421 249 OFFCURVE",
"421 142 CURVE SMOOTH",
"421 84 OFFCURVE",
"373 65 OFFCURVE",
"303 65 CURVE SMOOTH",
"231 65 OFFCURVE",
"196 104 OFFCURVE",
"177 154 CURVE",
"107 118 LINE"
);
}
);
width = 610;
},
{
anchors = (
{
name = bottom;
position = "{305, 0}";
},
{
name = top;
position = "{305, 580}";
}
);
background = {
paths = (
{
closed = 1;
nodes = (
"132 39 OFFCURVE",
"207 -10 OFFCURVE",
"306 -10 CURVE",
"422 -10 OFFCURVE",
"507 29 OFFCURVE",
"507 137 CURVE SMOOTH",
"507 249 OFFCURVE",
"395 269 OFFCURVE",
"306 281 CURVE SMOOTH",
"238 290 OFFCURVE",
"206 305 OFFCURVE",
"206 340 CURVE SMOOTH",
"206 392 OFFCURVE",
"245 405 OFFCURVE",
"306 405 CURVE SMOOTH",
"377 405 OFFCURVE",
"406 361 OFFCURVE",
"427 316 CURVE",
"497 351 LINE",
"469 427 OFFCURVE",
"399 480 OFFCURVE",
"306 480 CURVE SMOOTH",
"203 480 OFFCURVE",
"123 435 OFFCURVE",
"123 340 CURVE SMOOTH",
"123 237 OFFCURVE",
"220 214 OFFCURVE",
"306 202 CURVE SMOOTH",
"385 191 OFFCURVE",
"424 178 OFFCURVE",
"424 134 CURVE SMOOTH",
"424 76 OFFCURVE",
"380 65 OFFCURVE",
"306 65 CURVE SMOOTH",
"230 65 OFFCURVE",
"191 104 OFFCURVE",
"172 154 CURVE",
"102 118 LINE"
);
}
);
};
guideLines = (
{
angle = 270;
position = "{304, 480}";
}
);
layerId = "B33A6296-7F33-4AA4-95A6-15EAB02AACC1";
paths = (
{
closed = 1;
nodes = (
"128 41 OFFCURVE",
"200 -10 OFFCURVE",
"304 -10 CURVE",
"414 -10 OFFCURVE",
"497 31 OFFCURVE",
"497 132 CURVE SMOOTH",
"497 244 OFFCURVE",
"392 261 OFFCURVE",
"305 278 CURVE SMOOTH",
"230 293 OFFCURVE",
"210 304 OFFCURVE",
"210 340 CURVE SMOOTH",
"210 388 OFFCURVE",
"247 405 OFFCURVE",
"299 405 CURVE SMOOTH",
"380 405 OFFCURVE",
"406 364 OFFCURVE",
"426 316 CURVE",
"496 352 LINE",
"468 429 OFFCURVE",
"402 480 OFFCURVE",
"301 480 CURVE SMOOTH",
"205 480 OFFCURVE",
"127 433 OFFCURVE",
"127 340 CURVE SMOOTH",
"127 241 OFFCURVE",
"216 218 OFFCURVE",
"304 201 CURVE SMOOTH",
"375 187 OFFCURVE",
"414 183 OFFCURVE",
"414 132 CURVE SMOOTH",
"414 76 OFFCURVE",
"368 65 OFFCURVE",
"315 65 CURVE SMOOTH",
"221 65 OFFCURVE",
"194 99 OFFCURVE",
"169 154 CURVE",
"99 118 LINE"
);
}
);
width = 610;
},
{
anchors = (
{
name = bottom;
position = "{305, 0}";
},
{
name = top;
position = "{305, 300}";
}
);
associatedMasterId = "B33A6296-7F33-4AA4-95A6-15EAB02AACC1";
background = {
components = (
{
name = a;
transform = "{-1, 0, 0, 1, 596, 0}";
}
);
};
layerId = "927E4B5E-96C6-49BD-8166-E59CD8831DD2";
name = "3";
paths = (
{
closed = 1;
nodes = (
"141 39 OFFCURVE",
"218 -10 OFFCURVE",
"319 -10 CURVE SMOOTH",
"410 -10 OFFCURVE",
"497 27 OFFCURVE",
"497 135 CURVE SMOOTH",
"497 241 OFFCURVE",
"400 263 OFFCURVE",
"319 287 CURVE SMOOTH",
"243 310 OFFCURVE",
"215 313 OFFCURVE",
"215 364 CURVE SMOOTH",
"215 416 OFFCURVE",
"254 435 OFFCURVE",
"311 435 CURVE SMOOTH",
"379 435 OFFCURVE",
"412 391 OFFCURVE",
"429 346 CURVE",
"499 381 LINE",
"471 457 OFFCURVE",
"401 510 OFFCURVE",
"311 510 CURVE SMOOTH",
"212 510 OFFCURVE",
"132 461 OFFCURVE",
"132 364 CURVE SMOOTH",
"132 254 OFFCURVE",
"223 233 OFFCURVE",
"303 213 CURVE SMOOTH",
"362 198 OFFCURVE",
"415 185 OFFCURVE",
"415 135 CURVE SMOOTH",
"415 80 OFFCURVE",
"380 65 OFFCURVE",
"307 65 CURVE SMOOTH",
"235 65 OFFCURVE",
"200 104 OFFCURVE",
"181 154 CURVE",
"111 118 LINE"
);
}
);
width = 610;
},
{
anchors = (
{
name = bottom;
position = "{305, 0}";
},
{
name = top;
position = "{305, 300}";
}
);
associatedMasterId = "B33A6296-7F33-4AA4-95A6-15EAB02AACC1";
background = {
components = (
{
name = a;
transform = "{-1, 0, 0, 1, 596, 0}";
}
);
};
layerId = "591AD3C7-CAA9-4F6A-BEFC-F4EB3041DBBA";
name = "2";
paths = (
{
closed = 1;
nodes = (
"137 39 OFFCURVE",
"214 -10 OFFCURVE",
"309 -10 CURVE SMOOTH",
"419 -10 OFFCURVE",
"494 34 OFFCURVE",
"494 142 CURVE SMOOTH",
"494 322 OFFCURVE",
"211 252 OFFCURVE",
"211 364 CURVE SMOOTH",
"211 416 OFFCURVE",
"250 435 OFFCURVE",
"307 435 CURVE SMOOTH",
"374 435 OFFCURVE",
"407 391 OFFCURVE",
"424 346 CURVE",
"494 381 LINE",
"466 457 OFFCURVE",
"396 510 OFFCURVE",
"307 510 CURVE SMOOTH",
"208 510 OFFCURVE",
"128 461 OFFCURVE",
"128 364 CURVE SMOOTH",
"128 179 OFFCURVE",
"411 253 OFFCURVE",
"411 139 CURVE SMOOTH",
"411 81 OFFCURVE",
"373 65 OFFCURVE",
"303 65 CURVE SMOOTH",
"231 65 OFFCURVE",
"196 104 OFFCURVE",
"177 154 CURVE",
"107 118 LINE"
);
}
);
width = 610;
},
{
anchors = (
{
name = bottom;
position = "{305, 0}";
},
{
name = top;
position = "{305, 300}";
}
);
associatedMasterId = "B33A6296-7F33-4AA4-95A6-15EAB02AACC1";
layerId = "E44846E5-08CE-4F23-BF41-6D97C600E1C3";
name = "1";
paths = (
{
closed = 1;
nodes = (
"155 26 OFFCURVE",
"214 -10 OFFCURVE",
"309 -10 CURVE SMOOTH",
"419 -10 OFFCURVE",
"504 34 OFFCURVE",
"504 142 CURVE SMOOTH",
"504 322 OFFCURVE",
"211 256 OFFCURVE",
"211 364 CURVE SMOOTH",
"211 416 OFFCURVE",
"250 435 OFFCURVE",
"307 435 CURVE SMOOTH",
"374 435 OFFCURVE",
"427 399 OFFCURVE",
"447 374 CURVE",
"498 427 LINE",
"464 471 OFFCURVE",
"396 510 OFFCURVE",
"307 510 CURVE SMOOTH",
"208 510 OFFCURVE",
"128 461 OFFCURVE",
"128 364 CURVE SMOOTH",
"128 179 OFFCURVE",
"421 246 OFFCURVE",
"421 139 CURVE SMOOTH",
"421 81 OFFCURVE",
"373 65 OFFCURVE",
"303 65 CURVE SMOOTH",
"231 65 OFFCURVE",
"194 95 OFFCURVE",
"159 134 CURVE",
"106 78 LINE"
);
}
);
width = 610;
},
{
anchors = (
{
name = bottom;
position = "{305, 0}";
},
{
name = top;
position = "{305, 300}";
}
);
associatedMasterId = "B33A6296-7F33-4AA4-95A6-15EAB02AACC1";
background = {
components = (
{
name = a;
transform = "{-1, 0, 0, 1, 596, 0}";
}
);
};
layerId = "154F3C70-1DE2-439D-8D6C-FE5F03E0CDFF";
name = "4_NO";
paths = (
{
closed = 1;
nodes = (
"137 39 OFFCURVE",
"214 -10 OFFCURVE",
"309 -10 CURVE SMOOTH",
"419 -10 OFFCURVE",
"504 34 OFFCURVE",
"504 142 CURVE SMOOTH",
"504 325 OFFCURVE",
"199 244 OFFCURVE",
"199 352 CURVE SMOOTH",
"199 404 OFFCURVE",
"234 435 OFFCURVE",
"285 435 CURVE SMOOTH",
"359 435 OFFCURVE",
"392 415 OFFCURVE",
"424 346 CURVE",
"494 382 LINE",
"453 473 OFFCURVE",
"396 510 OFFCURVE",
"283 510 CURVE SMOOTH",
"208 510 OFFCURVE",
"116 450 OFFCURVE",
"116 352 CURVE SMOOTH",
"116 167 OFFCURVE",
"421 246 OFFCURVE",
"421 139 CURVE SMOOTH",
"421 81 OFFCURVE",
"373 65 OFFCURVE",
"303 65 CURVE SMOOTH",
"231 65 OFFCURVE",
"196 104 OFFCURVE",
"177 154 CURVE",
"107 118 LINE"
);
}
);
width = 610;
},
{
anchors = (
{
name = bottom;
position = "{305, 0}";
},
{
name = top;
position = "{305, 300}";
}
);
associatedMasterId = "B33A6296-7F33-4AA4-95A6-15EAB02AACC1";
background = {
components = (
{
name = a;
transform = "{-1, 0, 0, 1, 582, 0}";
}
);
};
components = (
{
name = DotWide;
transform = "{1, 0, 0, 1, 146, -303}";
}
);
guideLines = (
{
angle = 270;
position = "{307, 435}";
}
);
layerId = "600A2BB9-FF7C-4DA8-9E88-AD8369497504";
name = "5";
paths = (
{
closed = 1;
nodes = (
"132 39 OFFCURVE",
"209 -10 OFFCURVE",
"308 -10 CURVE SMOOTH",
"422 -10 OFFCURVE",
"507 39 OFFCURVE",
"507 147 CURVE SMOOTH",
"507 262 OFFCURVE",
"395 281 OFFCURVE",
"306 295 CURVE SMOOTH",
"238 306 OFFCURVE",
"206 321 OFFCURVE",
"206 362 CURVE SMOOTH",
"206 414 OFFCURVE",
"245 435 OFFCURVE",
"306 435 CURVE SMOOTH",
"377 435 OFFCURVE",
"410 391 OFFCURVE",
"427 346 CURVE",
"497 381 LINE",
"469 457 OFFCURVE",
"399 510 OFFCURVE",
"306 510 CURVE SMOOTH",
"203 510 OFFCURVE",
"123 457 OFFCURVE",
"123 362 CURVE SMOOTH",
"123 256 OFFCURVE",
"220 232 OFFCURVE",
"306 218 CURVE SMOOTH",
"385 205 OFFCURVE",
"424 194 OFFCURVE",
"424 144 CURVE SMOOTH",
"424 86 OFFCURVE",
"376 65 OFFCURVE",
"302 65 CURVE SMOOTH",
"226 65 OFFCURVE",
"191 104 OFFCURVE",
"172 154 CURVE",
"102 118 LINE"
);
}
);
width = 610;
},
{
anchors = (
{
name = bottom;
position = "{305, 0}";
},
{
name = top;
position = "{305, 300}";
}
);
associatedMasterId = "B33A6296-7F33-4AA4-95A6-15EAB02AACC1";
background = {
components = (
{
name = a;
transform = "{-1, 0, 0, 1, 582, 0}";
}
);
};
guideLines = (
{
angle = 270;
position = "{307, 435}";
}
);
layerId = "EBD148C7-83E4-425E-B09B-7F8970889BFC";
name = "6";
paths = (
{
closed = 1;
nodes = (
"132 39 OFFCURVE",
"209 -10 OFFCURVE",
"308 -10 CURVE SMOOTH",
"422 -10 OFFCURVE",
"507 39 OFFCURVE",
"507 147 CURVE SMOOTH",
"507 262 OFFCURVE",
"395 281 OFFCURVE",
"306 295 CURVE SMOOTH",
"238 306 OFFCURVE",
"206 321 OFFCURVE",
"206 362 CURVE SMOOTH",
"206 414 OFFCURVE",
"245 435 OFFCURVE",
"306 435 CURVE SMOOTH",
"377 435 OFFCURVE",
"410 391 OFFCURVE",
"427 346 CURVE",
"497 381 LINE",
"469 457 OFFCURVE",
"399 510 OFFCURVE",
"306 510 CURVE SMOOTH",
"203 510 OFFCURVE",
"123 457 OFFCURVE",
"123 362 CURVE SMOOTH",
"123 256 OFFCURVE",
"220 232 OFFCURVE",
"306 218 CURVE SMOOTH",
"385 205 OFFCURVE",
"424 194 OFFCURVE",
"424 144 CURVE SMOOTH",
"424 86 OFFCURVE",
"381 65 OFFCURVE",
"307 65 CURVE SMOOTH",
"231 65 OFFCURVE",
"191 104 OFFCURVE",
"172 154 CURVE",
"102 118 LINE"
);
}
);
width = 610;
},
{
anchors = (
{
name = bottom;
position = "{305, 0}";
},
{
name = top;
position = "{305, 300}";
}
);
associatedMasterId = "B33A6296-7F33-4AA4-95A6-15EAB02AACC1";
background = {
components = (
{
name = o;
}
);
};
guideLines = (
{
angle = 270;
position = "{307, 435}";
}
);
layerId = "3AEC090C-A2D0-4F30-B983-F456B21DD993";
name = "7";
paths = (
{
closed = 1;
nodes = (
"132 39 OFFCURVE",
"209 -10 OFFCURVE",
"308 -10 CURVE SMOOTH",
"422 -10 OFFCURVE",
"507 39 OFFCURVE",
"507 147 CURVE SMOOTH",
"507 262 OFFCURVE",
"395 282 OFFCURVE",
"306 297 CURVE SMOOTH",
"238 308 OFFCURVE",
"206 324 OFFCURVE",
"206 362 CURVE SMOOTH",
"206 414 OFFCURVE",
"245 435 OFFCURVE",
"306 435 CURVE SMOOTH",
"377 435 OFFCURVE",
"410 391 OFFCURVE",
"427 346 CURVE",
"497 381 LINE",
"469 457 OFFCURVE",
"399 510 OFFCURVE",
"306 510 CURVE SMOOTH",
"203 510 OFFCURVE",
"123 457 OFFCURVE",
"123 362 CURVE SMOOTH",
"123 256 OFFCURVE",
"220 231 OFFCURVE",
"306 216 CURVE SMOOTH",
"385 203 OFFCURVE",
"424 191 OFFCURVE",
"424 144 CURVE SMOOTH",
"424 86 OFFCURVE",
"381 65 OFFCURVE",
"307 65 CURVE SMOOTH",
"231 65 OFFCURVE",
"191 104 OFFCURVE",
"172 154 CURVE",
"102 118 LINE"
);
}
);
width = 610;
},
{
anchors = (
{
name = bottom;
position = "{305, 0}";
},
{
name = top;
position = "{305, 530}";
}
);
associatedMasterId = "B33A6296-7F33-4AA4-95A6-15EAB02AACC1";
background = {
components = (
{
name = o;
}
);
};
guideLines = (
{
angle = 270;
position = "{306, 435}";
}
);
layerId = "36898014-FFBC-4950-AC9A-1023D6EF4CC4";
name = "8";
paths = (
{
closed = 1;
nodes = (
"132 39 OFFCURVE",
"207 -10 OFFCURVE",
"306 -10 CURVE",
"422 -10 OFFCURVE",
"507 29 OFFCURVE",
"507 137 CURVE SMOOTH",
"507 249 OFFCURVE",
"395 269 OFFCURVE",
"306 281 CURVE SMOOTH",
"238 290 OFFCURVE",
"206 305 OFFCURVE",
"206 340 CURVE SMOOTH",
"206 392 OFFCURVE",
"245 405 OFFCURVE",
"306 405 CURVE SMOOTH",
"377 405 OFFCURVE",
"406 361 OFFCURVE",
"427 316 CURVE",
"497 351 LINE",
"469 427 OFFCURVE",
"399 480 OFFCURVE",
"306 480 CURVE SMOOTH",
"203 480 OFFCURVE",
"123 435 OFFCURVE",
"123 340 CURVE SMOOTH",
"123 237 OFFCURVE",
"220 214 OFFCURVE",
"306 202 CURVE SMOOTH",
"385 191 OFFCURVE",
"424 178 OFFCURVE",
"424 134 CURVE SMOOTH",
"424 76 OFFCURVE",
"380 65 OFFCURVE",
"306 65 CURVE SMOOTH",
"230 65 OFFCURVE",
"191 104 OFFCURVE",
"172 154 CURVE",
"102 118 LINE"
);
}
);
width = 610;
}
);
unicode = 0073;
},
